<?xml version="1.0" encoding="us-ascii" standalone="no"?><svg xmlns="http://www.w3.org/2000/svg" xmlns:xlink="http://www.w3.org/1999/xlink" contentStyleType="text/css" height="1427px" preserveAspectRatio="none" style="width:1470px;height:1427px;background:#777777;" version="1.1" viewBox="0 0 1470 1427" width="1470px" zoomAndPan="magnify"><defs/><g><rect fill="#777777" height="1427" style="stroke:none;stroke-width:1.0;" width="1470" x="0" y="0"/><!--cluster UI (tkinter)--><g id="cluster_UI (tkinter)"><path d="M88,133.28 L168,133.28 A3.75,3.75 0 0 1 170.5,135.78 L177.5,155.7683 L524,155.7683 A2.5,2.5 0 0 1 526.5,158.2683 L526.5,518.45 A2.5,2.5 0 0 1 524,520.95 L88,520.95 A2.5,2.5 0 0 1 85.5,518.45 L85.5,135.78 A2.5,2.5 0 0 1 88,133.28 " fill="none" style="stroke:#000000;stroke-width:1.5;"/><line style="stroke:#000000;stroke-width:1.5;" x1="85.5" x2="177.5" y1="155.7683" y2="155.7683"/><text fill="#000000" font-family="sans-serif" font-size="14" font-weight="bold" lengthAdjust="spacing" textLength="79" x="89.5" y="148.8152">UI (tkinter)</text></g><!--cluster Controller / Service--><g id="cluster_Controller / Service"><path d="M553,372.29 L695,372.29 A3.75,3.75 0 0 1 697.5,374.79 L704.5,394.7783 L1088,394.7783 A2.5,2.5 0 0 1 1090.5,397.2783 L1090.5,730.51 A2.5,2.5 0 0 1 1088,733.01 L553,733.01 A2.5,2.5 0 0 1 550.5,730.51 L550.5,374.79 A2.5,2.5 0 0 1 553,372.29 " fill="none" style="stroke:#000000;stroke-width:1.5;"/><line style="stroke:#000000;stroke-width:1.5;" x1="550.5" x2="704.5" y1="394.7783" y2="394.7783"/><text fill="#000000" font-family="sans-serif" font-size="14" font-weight="bold" lengthAdjust="spacing" textLength="141" x="554.5" y="387.8252">Controller / Service</text></g><!--cluster Persistence (SQLite)--><g id="cluster_Persistence (SQLite)"><path d="M75,571.39 L220,571.39 A3.75,3.75 0 0 1 222.5,573.89 L229.5,593.8783 L308,593.8783 A2.5,2.5 0 0 1 310.5,596.3783 L310.5,917.09 A2.5,2.5 0 0 1 308,919.59 L75,919.59 A2.5,2.5 0 0 1 72.5,917.09 L72.5,573.89 A2.5,2.5 0 0 1 75,571.39 " fill="none" style="stroke:#000000;stroke-width:1.5;"/><line style="stroke:#000000;stroke-width:1.5;" x1="72.5" x2="229.5" y1="593.8783" y2="593.8783"/><text fill="#000000" font-family="sans-serif" font-size="14" font-weight="bold" lengthAdjust="spacing" textLength="144" x="76.5" y="586.9252">Persistence (SQLite)</text></g><!--class DashboardGUI--><g id="elem_DashboardGUI"><rect codeLine="106" fill="#2E2E2E" height="143.0093" id="DashboardGUI" rx="2.5" ry="2.5" style="stroke:#FFFFFF;stroke-width:0.5;" width="157" x="271" y="168.28"/><text fill="#AAAAAA" font-family="sans-serif" font-size="11" font-style="italic" lengthAdjust="spacing" textLength="36" x="331.5" y="183.9148">&#171;View&#187;</text><text fill="#AAAAAA" font-family="Verdana" font-size="11" lengthAdjust="spacing" textLength="83" x="308" y="197.2942">DashboardGUI</text><line style="stroke:#FFFFFF;stroke-width:0.5;" x1="272" x2="427" y1="204.6037" y2="204.6037"/><text fill="#AAAAAA" font-family="sans-serif" font-size="11" lengthAdjust="spacing" textLength="75" x="277" y="219.2385">-master: tk.Tk</text><text fill="#AAAAAA" font-family="sans-serif" font-size="11" lengthAdjust="spacing" textLength="75" x="277" y="232.1936">-db: Database</text><text fill="#AAAAAA" font-family="sans-serif" font-size="11" lengthAdjust="spacing" textLength="132" x="277" y="245.1487">-notebook: ttk.Notebook</text><text fill="#AAAAAA" font-family="sans-serif" font-size="11" lengthAdjust="spacing" textLength="132" x="277" y="258.1037">-tab_overview: ttk.Frame</text><text fill="#AAAAAA" font-family="sans-serif" font-size="11" lengthAdjust="spacing" textLength="113" x="277" y="271.0588">-tab_entry: ttk.Frame</text><line style="stroke:#FFFFFF;stroke-width:0.5;" x1="272" x2="427" y1="277.3791" y2="277.3791"/><text fill="#AAAAAA" font-family="sans-serif" font-size="11" lengthAdjust="spacing" textLength="131" x="277" y="292.0139">+create_widgets(): None</text><text fill="#AAAAAA" font-family="sans-serif" font-size="11" lengthAdjust="spacing" textLength="145" x="277" y="304.969">+on_window_close(): None</text></g><!--class OverviewTab--><g id="elem_OverviewTab"><rect codeLine="117" fill="#2E2E2E" height="78.2339" id="OverviewTab" rx="2.5" ry="2.5" style="stroke:#FFFFFF;stroke-width:0.5;" width="274" x="101.5" y="426.72"/><text fill="#AAAAAA" font-family="sans-serif" font-size="11" font-style="italic" lengthAdjust="spacing" textLength="36" x="220.5" y="442.3548">&#171;View&#187;</text><text fill="#AAAAAA" font-family="Verdana" font-size="11" lengthAdjust="spacing" textLength="75" x="201" y="455.7342">OverviewTab</text><line style="stroke:#FFFFFF;stroke-width:0.5;" x1="102.5" x2="374.5" y1="463.0437" y2="463.0437"/><line style="stroke:#FFFFFF;stroke-width:0.5;" x1="102.5" x2="374.5" y1="471.0437" y2="471.0437"/><text fill="#AAAAAA" font-family="sans-serif" font-size="11" lengthAdjust="spacing" textLength="87" x="107.5" y="485.6785">+render(): None</text><text fill="#AAAAAA" font-family="sans-serif" font-size="11" lengthAdjust="spacing" textLength="262" x="107.5" y="498.6336">+update_overview(data: GoalEvaluation[*]): None</text></g><!--class EntryTab--><g id="elem_EntryTab"><rect codeLine="122" fill="#2E2E2E" height="65.2788" id="EntryTab" rx="2.5" ry="2.5" style="stroke:#FFFFFF;stroke-width:0.5;" width="99" x="411" y="433.2"/><text fill="#AAAAAA" font-family="sans-serif" font-size="11" font-style="italic" lengthAdjust="spacing" textLength="36" x="442.5" y="448.8348">&#171;View&#187;</text><text fill="#AAAAAA" font-family="Verdana" font-size="11" lengthAdjust="spacing" textLength="51" x="435" y="462.2142">EntryTab</text><line style="stroke:#FFFFFF;stroke-width:0.5;" x1="412" x2="509" y1="469.5237" y2="469.5237"/><line style="stroke:#FFFFFF;stroke-width:0.5;" x1="412" x2="509" y1="477.5237" y2="477.5237"/><text fill="#AAAAAA" font-family="sans-serif" font-size="11" lengthAdjust="spacing" textLength="87" x="417" y="492.1585">+render(): None</text></g><!--class DashboardController--><g id="elem_DashboardController"><rect codeLine="131" fill="#2E2E2E" height="117.0991" id="DashboardController" rx="2.5" ry="2.5" style="stroke:#FFFFFF;stroke-width:0.5;" width="305" x="566" y="407.29"/><text fill="#AAAAAA" font-family="sans-serif" font-size="11" font-style="italic" lengthAdjust="spacing" textLength="67" x="685" y="422.9248">&#171;Controller&#187;</text><text fill="#AAAAAA" font-family="Verdana" font-size="11" lengthAdjust="spacing" textLength="117" x="660" y="436.3042">DashboardController</text><line style="stroke:#FFFFFF;stroke-width:0.5;" x1="567" x2="870" y1="443.6137" y2="443.6137"/><text fill="#AAAAAA" font-family="sans-serif" font-size="11" lengthAdjust="spacing" textLength="147" x="572" y="458.2485">-service: DashboardService</text><text fill="#AAAAAA" font-family="sans-serif" font-size="11" lengthAdjust="spacing" textLength="183" x="572" y="471.2036">-student_repo: StudentRepository</text><line style="stroke:#FFFFFF;stroke-width:0.5;" x1="567" x2="870" y1="477.5239" y2="477.5239"/><text fill="#AAAAAA" font-family="sans-serif" font-size="11" lengthAdjust="spacing" textLength="138" x="572" y="492.1587">+load_initial_data(): None</text><text fill="#AAAAAA" font-family="sans-serif" font-size="11" lengthAdjust="spacing" textLength="210" x="572" y="505.1137">+save_student(student: Student): None</text><text fill="#AAAAAA" font-family="sans-serif" font-size="11" lengthAdjust="spacing" textLength="293" x="572" y="518.0688">+compute_overview(student_id: str): GoalEvaluation[*]</text></g><!--class DashboardService--><g id="elem_DashboardService"><rect codeLine="139" fill="#2E2E2E" height="117.0991" id="DashboardService" rx="2.5" ry="2.5" style="stroke:#FFFFFF;stroke-width:0.5;" width="507" x="567" y="599.91"/><text fill="#AAAAAA" font-family="sans-serif" font-size="11" font-style="italic" lengthAdjust="spacing" textLength="50" x="795.5" y="615.5448">&#171;Service&#187;</text><text fill="#AAAAAA" font-family="Verdana" font-size="11" lengthAdjust="spacing" textLength="104" x="768.5" y="628.9242">DashboardService</text><line style="stroke:#FFFFFF;stroke-width:0.5;" x1="568" x2="1073" y1="636.2337" y2="636.2337"/><line style="stroke:#FFFFFF;stroke-width:0.5;" x1="568" x2="1073" y1="644.2337" y2="644.2337"/><text fill="#AAAAAA" font-family="sans-serif" font-size="11" lengthAdjust="spacing" textLength="241" x="573" y="658.8685">+calc_average_grade(student: Student): float</text><text fill="#AAAAAA" font-family="sans-serif" font-size="11" lengthAdjust="spacing" textLength="375" x="573" y="671.8236">+calc_time_progress(student: Student, program: StudyProgram): float</text><text fill="#AAAAAA" font-family="sans-serif" font-size="11" lengthAdjust="spacing" textLength="365" x="573" y="684.7787">+calc_cp_progress(student: Student, program: StudyProgram): float</text><text fill="#AAAAAA" font-family="sans-serif" font-size="11" lengthAdjust="spacing" textLength="206" x="573" y="697.7337">+calc_cp_pace(student: Student): float</text><text fill="#AAAAAA" font-family="sans-serif" font-size="11" lengthAdjust="spacing" textLength="495" x="573" y="710.6888">+evaluate_goals(student: Student, program: StudyProgram, goals: Goal[*]): GoalEvaluation[*]</text></g><!--class Database--><g id="elem_Database"><rect codeLine="149" fill="#2E2E2E" height="104.144" id="Database" rx="2.5" ry="2.5" style="stroke:#FFFFFF;stroke-width:0.5;" width="152" x="101.5" y="799.44"/><text fill="#AAAAAA" font-family="Verdana" font-size="11" lengthAdjust="spacing" textLength="53" x="151" y="815.4991">Database</text><line style="stroke:#FFFFFF;stroke-width:0.5;" x1="102.5" x2="252.5" y1="822.8087" y2="822.8087"/><text fill="#AAAAAA" font-family="sans-serif" font-size="11" lengthAdjust="spacing" textLength="71" x="107.5" y="837.4434">-db_path: str</text><text fill="#AAAAAA" font-family="sans-serif" font-size="11" lengthAdjust="spacing" textLength="140" x="107.5" y="850.3985">-conn: sqlite3.Connection</text><line style="stroke:#FFFFFF;stroke-width:0.5;" x1="102.5" x2="252.5" y1="856.7188" y2="856.7188"/><text fill="#AAAAAA" font-family="sans-serif" font-size="11" lengthAdjust="spacing" textLength="94" x="107.5" y="871.3536">+connect(): None</text><text fill="#AAAAAA" font-family="sans-serif" font-size="11" lengthAdjust="spacing" textLength="88" x="107.5" y="884.3087">+init_db(): None</text><text fill="#AAAAAA" font-family="sans-serif" font-size="11" lengthAdjust="spacing" textLength="79" x="107.5" y="897.2637">+close(): None</text></g><!--class StudentRepository--><g id="elem_StudentRepository"><rect codeLine="157" fill="#2E2E2E" height="104.144" id="StudentRepository" rx="2.5" ry="2.5" style="stroke:#FFFFFF;stroke-width:0.5;" width="206" x="88.5" y="606.39"/><text fill="#AAAAAA" font-family="sans-serif" font-size="11" font-style="italic" lengthAdjust="spacing" textLength="70" x="156.5" y="622.0248">&#171;Repository&#187;</text><text fill="#AAAAAA" font-family="Verdana" font-size="11" lengthAdjust="spacing" textLength="105" x="139" y="635.4042">StudentRepository</text><line style="stroke:#FFFFFF;stroke-width:0.5;" x1="89.5" x2="293.5" y1="642.7137" y2="642.7137"/><text fill="#AAAAAA" font-family="sans-serif" font-size="11" lengthAdjust="spacing" textLength="75" x="94.5" y="657.3485">-db: Database</text><line style="stroke:#FFFFFF;stroke-width:0.5;" x1="89.5" x2="293.5" y1="663.6688" y2="663.6688"/><text fill="#AAAAAA" font-family="sans-serif" font-size="11" lengthAdjust="spacing" textLength="159" x="94.5" y="678.3036">+add(student: Student): None</text><text fill="#AAAAAA" font-family="sans-serif" font-size="11" lengthAdjust="spacing" textLength="194" x="94.5" y="691.2587">+get_by_id(student_id: str): Student</text><text fill="#AAAAAA" font-family="sans-serif" font-size="11" lengthAdjust="spacing" textLength="176" x="94.5" y="704.2137">+update(student: Student): None</text></g><!--class Student--><g id="elem_Student"><rect codeLine="11" fill="#2E2E2E" height="143.0093" id="Student" rx="2.5" ry="2.5" style="stroke:#FFFFFF;stroke-width:0.5;" width="339" x="413" y="780.01"/><text fill="#AAAAAA" font-family="Verdana" font-size="11" lengthAdjust="spacing" textLength="44" x="560.5" y="796.0691">Student</text><line style="stroke:#FFFFFF;stroke-width:0.5;" x1="414" x2="751" y1="803.3787" y2="803.3787"/><text fill="#AAAAAA" font-family="sans-serif" font-size="11" lengthAdjust="spacing" textLength="84" x="419" y="818.0134">-student_id: str</text><text fill="#AAAAAA" font-family="sans-serif" font-size="11" lengthAdjust="spacing" textLength="56" x="419" y="830.9685">-name: str</text><text fill="#AAAAAA" font-family="sans-serif" font-size="11" lengthAdjust="spacing" textLength="89" x="419" y="843.9236">-start_date: date</text><line style="stroke:#FFFFFF;stroke-width:0.5;" x1="414" x2="751" y1="850.2439" y2="850.2439"/><text fill="#AAAAAA" font-family="sans-serif" font-size="11" lengthAdjust="spacing" textLength="149" x="419" y="864.8787">+get_average_grade(): float</text><text fill="#AAAAAA" font-family="sans-serif" font-size="11" lengthAdjust="spacing" textLength="327" x="419" y="877.8337">+get_time_progress_percentage(duration_months: int): float</text><text fill="#AAAAAA" font-family="sans-serif" font-size="11" lengthAdjust="spacing" textLength="276" x="419" y="890.7888">+get_cp_progress_percentage(total_ects: int): float</text><text fill="#AAAAAA" font-family="sans-serif" font-size="11" lengthAdjust="spacing" textLength="125" x="419" y="903.7439">+get_earned_ects(): int</text><text fill="#AAAAAA" font-family="sans-serif" font-size="11" lengthAdjust="spacing" textLength="148" x="419" y="916.699">+get_cp_per_month(): float</text></g><!--class Enrollment--><g id="elem_Enrollment"><rect codeLine="23" fill="#2E2E2E" height="65.2788" id="Enrollment" rx="2.5" ry="2.5" style="stroke:#FFFFFF;stroke-width:0.5;" width="114" x="449.5" y="1355.26"/><text fill="#AAAAAA" font-family="Verdana" font-size="11" lengthAdjust="spacing" textLength="61" x="476" y="1371.3191">Enrollment</text><line style="stroke:#FFFFFF;stroke-width:0.5;" x1="450.5" x2="562.5" y1="1378.6287" y2="1378.6287"/><text fill="#AAAAAA" font-family="sans-serif" font-size="11" lengthAdjust="spacing" textLength="67" x="455.5" y="1393.2634">-grade: float</text><text fill="#AAAAAA" font-family="sans-serif" font-size="11" lengthAdjust="spacing" textLength="102" x="455.5" y="1406.2185">-date_passed: date</text><line style="stroke:#FFFFFF;stroke-width:0.5;" x1="450.5" x2="562.5" y1="1412.5388" y2="1412.5388"/></g><!--class Module--><g id="elem_Module"><rect codeLine="28" fill="#2E2E2E" height="78.2339" id="Module" rx="2.5" ry="2.5" style="stroke:#FFFFFF;stroke-width:0.5;" width="95" x="526" y="1190.12"/><text fill="#AAAAAA" font-family="Verdana" font-size="11" lengthAdjust="spacing" textLength="40" x="553.5" y="1206.1791">Module</text><line style="stroke:#FFFFFF;stroke-width:0.5;" x1="527" x2="620" y1="1213.4887" y2="1213.4887"/><text fill="#AAAAAA" font-family="sans-serif" font-size="11" lengthAdjust="spacing" textLength="83" x="532" y="1228.1234">-module_id: str</text><text fill="#AAAAAA" font-family="sans-serif" font-size="11" lengthAdjust="spacing" textLength="47" x="532" y="1241.0785">-title: str</text><text fill="#AAAAAA" font-family="sans-serif" font-size="11" lengthAdjust="spacing" textLength="48" x="532" y="1254.0336">-ects: int</text><line style="stroke:#FFFFFF;stroke-width:0.5;" x1="527" x2="620" y1="1260.3539" y2="1260.3539"/></g><!--class StudyProgram--><g id="elem_StudyProgram"><rect codeLine="34" fill="#2E2E2E" height="91.189" id="StudyProgram" rx="2.5" ry="2.5" style="stroke:#FFFFFF;stroke-width:0.5;" width="131" x="517" y="998.02"/><text fill="#AAAAAA" font-family="Verdana" font-size="11" lengthAdjust="spacing" textLength="82" x="541.5" y="1014.0791">StudyProgram</text><line style="stroke:#FFFFFF;stroke-width:0.5;" x1="518" x2="647" y1="1021.3887" y2="1021.3887"/><text fill="#AAAAAA" font-family="sans-serif" font-size="11" lengthAdjust="spacing" textLength="90" x="523" y="1036.0234">-program_id: str</text><text fill="#AAAAAA" font-family="sans-serif" font-size="11" lengthAdjust="spacing" textLength="56" x="523" y="1048.9785">-name: str</text><text fill="#AAAAAA" font-family="sans-serif" font-size="11" lengthAdjust="spacing" textLength="78" x="523" y="1061.9336">-total_ects: int</text><text fill="#AAAAAA" font-family="sans-serif" font-size="11" lengthAdjust="spacing" textLength="119" x="523" y="1074.8887">-duration_months: int</text><line style="stroke:#FFFFFF;stroke-width:0.5;" x1="518" x2="647" y1="1081.209" y2="1081.209"/></g><!--class Status--><g id="elem_Status"><rect codeLine="47" fill="#2E2E2E" height="78.2339" id="Status" rx="2.5" ry="2.5" style="stroke:#FFFFFF;stroke-width:0.5;" width="55" x="1132" y="1190.12"/><text fill="#AAAAAA" font-family="Verdana" font-size="11" lengthAdjust="spacing" textLength="36" x="1141.5" y="1206.1791">Status</text><line style="stroke:#FFFFFF;stroke-width:0.5;" x1="1133" x2="1186" y1="1213.4887" y2="1213.4887"/><text fill="#AAAAAA" font-family="sans-serif" font-size="11" lengthAdjust="spacing" textLength="35" x="1138" y="1228.1234">GREEN</text><text fill="#AAAAAA" font-family="sans-serif" font-size="11" lengthAdjust="spacing" textLength="43" x="1138" y="1241.0785">YELLOW</text><text fill="#AAAAAA" font-family="sans-serif" font-size="11" lengthAdjust="spacing" textLength="21" x="1138" y="1254.0336">RED</text><line style="stroke:#FFFFFF;stroke-width:0.5;" x1="1133" x2="1186" y1="1260.3539" y2="1260.3539"/></g><!--class GoalEvaluation--><g id="elem_GoalEvaluation"><rect codeLine="53" fill="#2E2E2E" height="130.0542" id="GoalEvaluation" rx="2.5" ry="2.5" style="stroke:#FFFFFF;stroke-width:0.5;" width="91" x="1372" y="1164.21"/><text fill="#AAAAAA" font-family="Verdana" font-size="11" lengthAdjust="spacing" textLength="85" x="1375" y="1180.2691">GoalEvaluation</text><line style="stroke:#FFFFFF;stroke-width:0.5;" x1="1373" x2="1462" y1="1187.5787" y2="1187.5787"/><text fill="#AAAAAA" font-family="sans-serif" font-size="11" lengthAdjust="spacing" textLength="78" x="1378" y="1202.2134">-status: Status</text><text fill="#AAAAAA" font-family="sans-serif" font-size="11" lengthAdjust="spacing" textLength="64" x="1378" y="1215.1685">-value: float</text><text fill="#AAAAAA" font-family="sans-serif" font-size="11" lengthAdjust="spacing" textLength="68" x="1378" y="1228.1236">-target: float</text><text fill="#AAAAAA" font-family="sans-serif" font-size="11" lengthAdjust="spacing" textLength="71" x="1378" y="1241.0787">-value2: float</text><text fill="#AAAAAA" font-family="sans-serif" font-size="11" lengthAdjust="spacing" textLength="75" x="1378" y="1254.0337">-target2: float</text><text fill="#AAAAAA" font-family="sans-serif" font-size="11" lengthAdjust="spacing" textLength="59" x="1378" y="1266.9888">-label1: str</text><text fill="#AAAAAA" font-family="sans-serif" font-size="11" lengthAdjust="spacing" textLength="59" x="1378" y="1279.9439">-label2: str</text><line style="stroke:#FFFFFF;stroke-width:0.5;" x1="1373" x2="1462" y1="1286.2642" y2="1286.2642"/></g><!--class Goal--><g id="elem_Goal"><rect codeLine="63" fill="#2E2E2E" height="65.2788" id="Goal" rx="2.5" ry="2.5" style="stroke:#FFFFFF;stroke-width:0.5;" width="381" x="824" y="1010.97"/><text fill="#AAAAAA" font-family="Verdana" font-size="11" font-style="italic" lengthAdjust="spacing" textLength="26" x="1001.5" y="1027.0291">Goal</text><line style="stroke:#FFFFFF;stroke-width:0.5;" x1="825" x2="1204" y1="1034.3387" y2="1034.3387"/><line style="stroke:#FFFFFF;stroke-width:0.5;" x1="825" x2="1204" y1="1042.3387" y2="1042.3387"/><text fill="#AAAAAA" font-family="sans-serif" font-size="11" lengthAdjust="spacing" textLength="369" x="830" y="1056.9734">+evaluate(student: Student, program: StudyProgram): GoalEvaluation</text><text fill="#AAAAAA" font-family="sans-serif" font-size="11" font-style="italic" lengthAdjust="spacing" textLength="81" x="830" y="1069.9285">+get_title(): str</text></g><!--class GradeAverageGoal--><g id="elem_GradeAverageGoal"><rect codeLine="72" fill="#2E2E2E" height="65.2788" id="GradeAverageGoal" rx="2.5" ry="2.5" style="stroke:#FFFFFF;stroke-width:0.5;" width="115" x="1222" y="1196.59"/><text fill="#AAAAAA" font-family="Verdana" font-size="11" lengthAdjust="spacing" textLength="109" x="1225" y="1212.6491">GradeAverageGoal</text><line style="stroke:#FFFFFF;stroke-width:0.5;" x1="1223" x2="1336" y1="1219.9587" y2="1219.9587"/><text fill="#AAAAAA" font-family="sans-serif" font-size="11" lengthAdjust="spacing" textLength="93" x="1228" y="1234.5934">-target_avg: float</text><line style="stroke:#FFFFFF;stroke-width:0.5;" x1="1223" x2="1336" y1="1240.9137" y2="1240.9137"/><text fill="#AAAAAA" font-family="sans-serif" font-size="11" lengthAdjust="spacing" textLength="81" x="1228" y="1255.5485">+get_title(): str</text></g><!--class DeadlineGoal--><g id="elem_DeadlineGoal"><rect codeLine="78" fill="#2E2E2E" height="65.2788" id="DeadlineGoal" rx="2.5" ry="2.5" style="stroke:#FFFFFF;stroke-width:0.5;" width="131" x="767" y="1196.59"/><text fill="#AAAAAA" font-family="Verdana" font-size="11" lengthAdjust="spacing" textLength="75" x="795" y="1212.6491">DeadlineGoal</text><line style="stroke:#FFFFFF;stroke-width:0.5;" x1="768" x2="897" y1="1219.9587" y2="1219.9587"/><text fill="#AAAAAA" font-family="sans-serif" font-size="11" lengthAdjust="spacing" textLength="119" x="773" y="1234.5934">-duration_months: int</text><line style="stroke:#FFFFFF;stroke-width:0.5;" x1="768" x2="897" y1="1240.9137" y2="1240.9137"/><text fill="#AAAAAA" font-family="sans-serif" font-size="11" lengthAdjust="spacing" textLength="81" x="773" y="1255.5485">+get_title(): str</text></g><!--class CpPaceGoal--><g id="elem_CpPaceGoal"><rect codeLine="84" fill="#2E2E2E" height="65.2788" id="CpPaceGoal" rx="2.5" ry="2.5" style="stroke:#FFFFFF;stroke-width:0.5;" width="164" x="932.5" y="1196.59"/><text fill="#AAAAAA" font-family="Verdana" font-size="11" lengthAdjust="spacing" textLength="68" x="980.5" y="1212.6491">CpPaceGoal</text><line style="stroke:#FFFFFF;stroke-width:0.5;" x1="933.5" x2="1095.5" y1="1219.9587" y2="1219.9587"/><text fill="#AAAAAA" font-family="sans-serif" font-size="11" lengthAdjust="spacing" textLength="152" x="938.5" y="1234.5934">-target_cp_per_month: float</text><line style="stroke:#FFFFFF;stroke-width:0.5;" x1="933.5" x2="1095.5" y1="1240.9137" y2="1240.9137"/><text fill="#AAAAAA" font-family="sans-serif" font-size="11" lengthAdjust="spacing" textLength="81" x="938.5" y="1255.5485">+get_title(): str</text></g><!--class Main--><g id="elem_Main"><rect codeLine="100" fill="#2E2E2E" height="65.2788" id="Main" rx="2.5" ry="2.5" style="stroke:#FFFFFF;stroke-width:0.5;" width="89" x="7" y="7"/><text fill="#AAAAAA" font-family="sans-serif" font-size="11" font-style="italic" lengthAdjust="spacing" textLength="65" x="19" y="22.6348">&#171;bootstrap&#187;</text><text fill="#AAAAAA" font-family="Verdana" font-size="11" lengthAdjust="spacing" textLength="26" x="38.5" y="36.0142">Main</text><line style="stroke:#FFFFFF;stroke-width:0.5;" x1="8" x2="95" y1="43.3237" y2="43.3237"/><line style="stroke:#FFFFFF;stroke-width:0.5;" x1="8" x2="95" y1="51.3237" y2="51.3237"/><text fill="#AAAAAA" font-family="sans-serif" font-size="11" lengthAdjust="spacing" textLength="77" x="13" y="65.9585">+main(): None</text></g><!--link Student to Enrollment--><g id="link_Student_Enrollment"><path codeLine="42" d="M532.4,923.31 C519.01,946.09 506.36,972.16 499.5,998.02 C465.41,1126.6 487.93,1287.57 500.12,1354.94 " fill="none" id="Student-Enrollment" style="stroke:#FFFFFF;stroke-width:1.0;"/><text fill="#141414" font-family="Verdana" font-size="11" lengthAdjust="spacing" textLength="7" x="520.1238" y="942.0944">1</text><text fill="#141414" font-family="Verdana" font-size="11" lengthAdjust="spacing" textLength="22" x="474.5354" y="1344.8986">0..*</text></g><!--link Module to Enrollment--><g id="link_Module_Enrollment"><path codeLine="43" d="M557.11,1268.56 C545.8,1295.01 530.93,1329.78 520.24,1354.78 " fill="none" id="Module-Enrollment" style="stroke:#FFFFFF;stroke-width:1.0;"/><text fill="#141414" font-family="Verdana" font-size="11" lengthAdjust="spacing" textLength="7" x="546.6914" y="1287.5266">1</text><text fill="#141414" font-family="Verdana" font-size="11" lengthAdjust="spacing" textLength="22" x="525.3426" y="1344.7056">0..*</text></g><!--link Student to StudyProgram--><g id="link_Student_StudyProgram"><path codeLine="44" d="M582.5,923.3 C582.5,948.21 582.5,975.51 582.5,997.7 " fill="none" id="Student-StudyProgram" style="stroke:#FFFFFF;stroke-width:1.0;"/><text fill="#141414" font-family="Verdana" font-size="11" lengthAdjust="spacing" textLength="40" x="583.5" y="965.0791">studies</text><text fill="#141414" font-family="Verdana" font-size="11" lengthAdjust="spacing" textLength="7" x="575.1555" y="942.0834">1</text><text fill="#141414" font-family="Verdana" font-size="11" lengthAdjust="spacing" textLength="7" x="574.9641" y="987.7613">1</text></g><!--link StudyProgram to Module--><g id="link_StudyProgram_Module"><path codeLine="45" d="M580.3,1089.53 C578.79,1120.22 576.82,1160.45 575.39,1189.68 " fill="none" id="StudyProgram-Module" style="stroke:#FFFFFF;stroke-width:1.0;"/><text fill="#141414" font-family="Verdana" font-size="11" lengthAdjust="spacing" textLength="47" x="579.81" y="1131.2691">contains</text><text fill="#141414" font-family="Verdana" font-size="11" lengthAdjust="spacing" textLength="7" x="572.4628" y="1108.3147">1</text><text fill="#141414" font-family="Verdana" font-size="11" lengthAdjust="spacing" textLength="22" x="551.8242" y="1179.8547">1..*</text></g><!--link Student to Goal--><g id="link_Student_Goal"><path codeLine="68" d="M743.67,923.43 C811.76,953.4 887.64,986.79 941.72,1010.59 " fill="none" id="Student-Goal" style="stroke:#FFFFFF;stroke-width:1.0;"/><text fill="#141414" font-family="Verdana" font-size="11" lengthAdjust="spacing" textLength="20" x="838.19" y="965.0791">has</text><text fill="#141414" font-family="Verdana" font-size="11" lengthAdjust="spacing" textLength="7" x="751.6979" y="941.9806">1</text><text fill="#141414" font-family="Verdana" font-size="11" lengthAdjust="spacing" textLength="22" x="902.4404" y="1000.5362">1..*</text></g><!--link Goal to GoalEvaluation--><g id="link_Goal_GoalEvaluation"><path codeLine="69" d="M1149.22,1076.65 C1214.41,1095.88 1291.91,1124.45 1354.5,1164.21 C1360.42,1167.97 1361.6498,1168.4907 1367.1698,1173.2107 " fill="none" id="Goal-to-GoalEvaluation" style="stroke:#FFFFFF;stroke-width:1.0;stroke-dasharray:7.0,7.0;"/><polygon fill="#FFFFFF" points="1371.73,1177.11,1367.4892,1168.2209,1367.9298,1173.8606,1362.2902,1174.3012,1371.73,1177.11" style="stroke:#FFFFFF;stroke-width:1.0;"/></g><!--link Goal to Status--><g id="link_Goal_Status"><path codeLine="70" d="M1042.63,1076.75 C1063.09,1100.49 1091.19,1133.82 1114.5,1164.21 C1120.79,1172.4 1123.8459,1176.471 1129.9059,1185.041 " fill="none" id="Goal-to-Status" style="stroke:#FFFFFF;stroke-width:1.0;stroke-dasharray:7.0,7.0;"/><polygon fill="#FFFFFF" points="1133.37,1189.94,1131.4398,1180.2821,1130.4832,1185.8575,1124.9078,1184.901,1133.37,1189.94" style="stroke:#FFFFFF;stroke-width:1.0;"/></g><!--reverse link Goal to GradeAverageGoal--><g id="link_Goal_GradeAverageGoal"><path codeLine="76" d="M1085.4066,1085.8079 C1124.0566,1108.8179 1160.86,1132.1 1204.5,1164.21 C1217.88,1174.05 1231.88,1185.62 1244.12,1196.21 " fill="none" id="Goal-backto-GradeAverageGoal" style="stroke:#FFFFFF;stroke-width:1.0;"/><polygon fill="none" points="1069.94,1076.6,1082.3373,1090.9634,1088.4759,1080.6524,1069.94,1076.6" style="stroke:#FFFFFF;stroke-width:1.0;"/></g><!--reverse link Goal to DeadlineGoal--><g id="link_Goal_DeadlineGoal"><path codeLine="82" d="M970.1274,1089.383 C936.8174,1122.983 897.42,1162.73 864.14,1196.31 " fill="none" id="Goal-backto-DeadlineGoal" style="stroke:#FFFFFF;stroke-width:1.0;"/><polygon fill="none" points="982.8,1076.6,965.8664,1085.1588,974.3884,1093.6072,982.8,1076.6" style="stroke:#FFFFFF;stroke-width:1.0;"/></g><!--reverse link Goal to CpPaceGoal--><g id="link_Goal_CpPaceGoal"><path codeLine="88" d="M1014.5,1094.6 C1014.5,1128.2 1014.5,1162.73 1014.5,1196.31 " fill="none" id="Goal-backto-CpPaceGoal" style="stroke:#FFFFFF;stroke-width:1.0;"/><polygon fill="none" points="1014.5,1076.6,1008.5,1094.6,1020.5,1094.6,1014.5,1076.6" style="stroke:#FFFFFF;stroke-width:1.0;"/></g><!--reverse link DashboardGUI to OverviewTab--><g id="link_DashboardGUI_OverviewTab"><path codeLine="126" d="M309.052,322.4323 C290.252,360.3723 273.16,394.89 257.58,426.32 " fill="none" id="DashboardGUI-backto-OverviewTab" style="stroke:#FFFFFF;stroke-width:1.0;"/><polygon fill="none" points="314.38,311.68,308.1319,315.2802,309.052,322.4323,315.3001,318.8322,314.38,311.68" style="stroke:#FFFFFF;stroke-width:1.0;"/></g><!--reverse link DashboardGUI to EntryTab--><g id="link_DashboardGUI_EntryTab"><path codeLine="127" d="M389.9484,322.4321 C410.0884,363.0721 429.04,401.34 444.63,432.8 " fill="none" id="DashboardGUI-backto-EntryTab" style="stroke:#FFFFFF;stroke-width:1.0;"/><polygon fill="none" points="384.62,311.68,383.7002,318.8322,389.9484,322.4321,390.8683,315.2799,384.62,311.68" style="stroke:#FFFFFF;stroke-width:1.0;"/></g><!--link Main to Database--><g id="link_Main_Database"><path codeLine="176" d="M43.88,72.69 C35.29,111.7 22.5,179.68 22.5,238.78 C22.5,238.78 22.5,238.78 22.5,659.46 C22.5,715.84 59.158,760.9611 99.078,795.2411 " fill="none" id="Main-to-Database" style="stroke:#FFFFFF;stroke-width:1.0;stroke-dasharray:7.0,7.0;"/><polygon fill="#FFFFFF" points="103.63,799.15,99.4079,790.252,99.8367,795.8926,94.1961,796.3213,103.63,799.15" style="stroke:#FFFFFF;stroke-width:1.0;"/><text fill="#141414" font-family="Verdana" font-size="11" lengthAdjust="spacing" textLength="42" x="23.5" y="470.3991">creates</text></g><!--link Main to DashboardGUI--><g id="link_Main_DashboardGUI"><path codeLine="177" d="M96.44,70.52 C142.45,101.11 209.9136,145.968 265.5336,182.948 " fill="none" id="Main-to-DashboardGUI" style="stroke:#FFFFFF;stroke-width:1.0;stroke-dasharray:7.0,7.0;"/><polygon fill="#FFFFFF" points="270.53,186.27,265.25,177.9561,266.3663,183.5017,260.8207,184.618,270.53,186.27" style="stroke:#FFFFFF;stroke-width:1.0;"/><text fill="#141414" font-family="Verdana" font-size="11" lengthAdjust="spacing" textLength="42" x="166.05" y="114.3391">creates</text></g><!--link DashboardGUI to DashboardController--><g id="link_DashboardGUI_DashboardController"><path codeLine="181" d="M428.21,288.57 C485.25,323.21 557.5414,367.1059 618.0814,403.8659 " fill="none" id="DashboardGUI-to-DashboardController" style="stroke:#FFFFFF;stroke-width:1.0;stroke-dasharray:7.0,7.0;"/><polygon fill="#FFFFFF" points="623.21,406.98,617.5932,398.8898,618.9362,404.3849,613.4411,405.7279,623.21,406.98" style="stroke:#FFFFFF;stroke-width:1.0;"/><text fill="#141414" font-family="Verdana" font-size="11" lengthAdjust="spacing" textLength="121" x="535" y="353.3491">calls (recommended)</text></g><!--link DashboardController to DashboardService--><g id="link_DashboardController_DashboardService"><path codeLine="184" d="M749.52,524.81 C762.18,548.47 773.9602,570.4792 786.6202,594.1492 " fill="none" id="DashboardController-to-DashboardService" style="stroke:#FFFFFF;stroke-width:1.0;"/><polygon fill="#FFFFFF" points="789.45,599.44,788.7325,589.6173,787.0918,595.031,781.6781,593.3904,789.45,599.44" style="stroke:#FFFFFF;stroke-width:1.0;"/></g><!--link DashboardController to StudentRepository--><g id="link_DashboardController_StudentRepository"><path codeLine="185" d="M565.72,522.1 C478.64,553.6 377.4823,590.1892 300.2923,618.1092 " fill="none" id="DashboardController-to-StudentRepository" style="stroke:#FFFFFF;stroke-width:1.0;"/><polygon fill="#FFFFFF" points="294.65,620.15,304.4739,620.8503,299.3519,618.4493,301.7528,613.3273,294.65,620.15" style="stroke:#FFFFFF;stroke-width:1.0;"/></g><!--link StudentRepository to Database--><g id="link_StudentRepository_Database"><path codeLine="188" d="M187.73,710.91 C185.73,738.21 183.7182,765.676 181.7182,792.986 " fill="none" id="StudentRepository-to-Database" style="stroke:#FFFFFF;stroke-width:1.0;"/><polygon fill="#FFFFFF" points="181.28,798.97,185.9267,790.2862,181.6452,793.9834,177.948,789.7019,181.28,798.97" style="stroke:#FFFFFF;stroke-width:1.0;"/></g><!--link DashboardService to Student--><g id="link_DashboardService_Student"><path codeLine="191" d="M748.45,717.3 C723.96,736.96 700.9888,755.3938 675.3788,775.9538 " fill="none" id="DashboardService-to-Student" style="stroke:#FFFFFF;stroke-width:1.0;stroke-dasharray:7.0,7.0;"/><polygon fill="#FFFFFF" points="670.7,779.71,680.2223,777.1949,674.599,776.5798,675.2141,770.9565,670.7,779.71" style="stroke:#FFFFFF;stroke-width:1.0;"/></g><!--link DashboardService to StudyProgram--><g id="link_DashboardService_StudyProgram"><path codeLine="192" d="M566.75,699.88 C489.59,717.68 418.92,741.58 395.5,772.01 C353.33,826.8 361.76,867.23 395.5,927.59 C421.26,973.67 468.3353,1001.2574 511.2153,1018.9874 " fill="none" id="DashboardService-to-StudyProgram" style="stroke:#FFFFFF;stroke-width:1.0;stroke-dasharray:7.0,7.0;"/><polygon fill="#FFFFFF" points="516.76,1021.28,509.9713,1014.1446,512.1394,1019.3695,506.9145,1021.5375,516.76,1021.28" style="stroke:#FFFFFF;stroke-width:1.0;"/></g><!--link DashboardService to Goal--><g id="link_DashboardService_Goal"><path codeLine="193" d="M849.75,717.24 C891.25,799.19 963.0702,941.0268 995.7202,1005.5268 " fill="none" id="DashboardService-to-Goal" style="stroke:#FFFFFF;stroke-width:1.0;stroke-dasharray:7.0,7.0;"/><polygon fill="#FFFFFF" points="998.43,1010.88,997.9341,1001.0436,996.1718,1006.419,990.7965,1004.6567,998.43,1010.88" style="stroke:#FFFFFF;stroke-width:1.0;"/></g><!--link DashboardService to GoalEvaluation--><g id="link_DashboardService_GoalEvaluation"><path codeLine="194" d="M896.74,717.38 C980.12,782.13 1116.05,891.87 1222.5,998.02 C1277.21,1052.57 1329.8836,1115.9874 1367.8636,1163.9174 " fill="none" id="DashboardService-to-GoalEvaluation" style="stroke:#FFFFFF;stroke-width:1.0;stroke-dasharray:7.0,7.0;"/><polygon fill="#FFFFFF" points="1371.59,1168.62,1369.1355,1159.0819,1368.4847,1164.7012,1362.8654,1164.0504,1371.59,1168.62" style="stroke:#FFFFFF;stroke-width:1.0;"/></g><!--SRC=[fLVRSjis47tdLo1wiHH7SkAygQfdd5ZDPEfSQYVjj9qE1o8t4aOKo09WF4hgl-cVzCTw088aA56AEys3Gm2xYzs3inUTiF5up6xDDYDsngxvDY-DtOeUfVH9I69NbpS_lhZ-E8yU2PbaPKfCM-59aN5foaqMhGJs4g6IZ2Az5hBWYczOad6jBurHOb4QUftaybPy8VOqYaxOzuV-uUpPY5tb6oua6_9IivJWmuPzV7CzEgfeyYMP5IdsDMBLtOW9pahZTXWRwsePYtIA25IrAVc6WgKsN9auvGQRzc_ajazXEkQVIV4bnKl5KngEfknJbdFJdXkneRXG-LAHrd51Ai5bK1YcfU96v3BUvDAiz9G9QVRLaw9NsUI6Pp4bvf0USIKfTHBMASXqRPAgxWqzleyQZEPIvLcs2M1oyONNZ2qGSG5fIZqg7HDlyhG4Txpwngsw81jXiX3b9fok8VjUs_SM1D37cokgvT57sy78Ezs3khiE5zR463mRWEbiy7GoUJm8e8XyI8S5TYtWluxtrhio5QIZpdOZxkpvMwOCkM50U1r59CiDB743vbi4NjtCvs_n_w_pw-jtl-3ZPdvb8wW0UvNpRFwPPwMBr2bO1aDvwetO7IiGFEWO50SvWWqdSBud4UvaV47PinhpQdbUBU4DN-239uQrRZbdJgboZeO-zwPrJZvX_c6d7Tp0qMvCCFArjdvVvnd8PDdiBzzx2eUjys7ALbn7xdCokTWrtUnxg6fGBVylgsHl8l6Ge0WiMrJwt74Qix_WoAwTsluLyJH3JMjj7w3gSVEXcThqo-8zJ_QT3il0GxrlJKL72tPOkSz7x0CbAoaIM3bZbqMHuTDHq_c7R7YG9KWLF5a3DpO8ZPon5tbkB1cAGiZb046UiBfuGD2l4Pfj7pQgjxaajtUFl_SUfJUsjyncYzhMnKL5reuIY1KrJdnypOO6ZSsG6Ws21dF5zMgHSvM-WiHizhEWEs_C5aAk8JzbPZtviFOrQJ65Zk4BhibNijmG75b3379l_SgNDRw8S_3dCynMvpyWHQWz1ElLTlVaD55aw_MTIF70kWd8dO5ZTqAc-LsSPBccuD2LuHFshh18yspAxaXAbfOCHOnzG0eoNVppDm9YQCePK57QiA7cvO8KK6aWUUSTXiek8gUAP4ggwr5PkEvInpd4YkyMWTyV_x7ZQDsx4F-3Bd9AdTVAmV70rxxZshpbGaE5bqWYsmK0n1cxjVe9zL8Y49pDsaNB3rqfJriLRwuxhIWgygPitc2XXSdLjWeKgPp6GWeZq00jT5rmDMQMs1lQAy4ToIJV56Nu3Zl3qgZdJRgFiHi5elPVxRkWBYGxSrIFLy60unGwWzL_w2IxTe89wtzQGMNyXkDruukNGEt1rprXJhp2kc9zF-eX8zyZ5GLAZGJcmzkVheMXdI9L5PoQT-a20TX6qCnF63yabdzcK7q-0LSbPgcg-Jfgk7MNMPPpSRheRlRMbCuetl8Nz6WNRLBiLSXJdgR7gMlRs68BelPmrik7fUQ8iRqQs9GyhFAbEmn7tYFHOAwOm5whqSwEtzQwFzvnSVXynDfdqgX4AHMsvib4VAF9MjEsLThwJLbcpf2DgU8hGuPn52ZDXl1H5qeaArF_-BATSL9ixGym_-dcfePPc61Tqz5x0a59ROLS0pvW83ZhrRN-snrPcY-61KNMphrmM2XQ6tRr0ZyUrwOaTuJvJe8ILct5xU5tx3T1MRKplWYiZABEjHq_WhlW3h02L8fGE3SM-NHaFGjaAWVT-xBJkbD4VTR6uulz7d18SByHu5gxyXSsoREVSTKz_XXQTQ7sYkutTxHNngi1kKgZWuTr0UkNS5FamPDW8lyN]--></g></svg>