<?xml version="1.0" encoding="us-ascii" standalone="no"?><svg xmlns="http://www.w3.org/2000/svg" xmlns:xlink="http://www.w3.org/1999/xlink" contentStyleType="text/css" height="1450px" preserveAspectRatio="none" style="width:1453px;height:1450px;background:#777777;" version="1.1" viewBox="0 0 1453 1450" width="1453px" zoomAndPan="magnify"><defs/><g><rect fill="#777777" height="1450" style="stroke:none;stroke-width:1.0;" width="1453" x="0" y="0"/><!--cluster Application / Bootstrapping--><g id="cluster_Application / Bootstrapping"><path d="M59.5,6 L262.5,6 A3.75,3.75 0 0 1 265,8.5 L272,28.4883 L272.5,28.4883 A2.5,2.5 0 0 1 275,30.9883 L275,106.82 A2.5,2.5 0 0 1 272.5,109.32 L59.5,109.32 A2.5,2.5 0 0 1 57,106.82 L57,8.5 A2.5,2.5 0 0 1 59.5,6 " fill="none" style="stroke:#000000;stroke-width:1.5;"/><line style="stroke:#000000;stroke-width:1.5;" x1="57" x2="272" y1="28.4883" y2="28.4883"/><text fill="#000000" font-family="sans-serif" font-size="14" font-weight="bold" lengthAdjust="spacing" textLength="202" x="61" y="21.5352">Application / Bootstrapping</text></g><!--cluster UI (tkinter)--><g id="cluster_UI (tkinter)"><path d="M71.5,156.32 L151.5,156.32 A3.75,3.75 0 0 1 154,158.82 L161,178.8083 L507.5,178.8083 A2.5,2.5 0 0 1 510,181.3083 L510,541.49 A2.5,2.5 0 0 1 507.5,543.99 L71.5,543.99 A2.5,2.5 0 0 1 69,541.49 L69,158.82 A2.5,2.5 0 0 1 71.5,156.32 " fill="none" style="stroke:#000000;stroke-width:1.5;"/><line style="stroke:#000000;stroke-width:1.5;" x1="69" x2="161" y1="178.8083" y2="178.8083"/><text fill="#000000" font-family="sans-serif" font-size="14" font-weight="bold" lengthAdjust="spacing" textLength="79" x="73" y="171.8552">UI (tkinter)</text></g><!--cluster Controller / Service--><g id="cluster_Controller / Service"><path d="M536.5,395.33 L678.5,395.33 A3.75,3.75 0 0 1 681,397.83 L688,417.8183 L1071.5,417.8183 A2.5,2.5 0 0 1 1074,420.3183 L1074,753.55 A2.5,2.5 0 0 1 1071.5,756.05 L536.5,756.05 A2.5,2.5 0 0 1 534,753.55 L534,397.83 A2.5,2.5 0 0 1 536.5,395.33 " fill="none" style="stroke:#000000;stroke-width:1.5;"/><line style="stroke:#000000;stroke-width:1.5;" x1="534" x2="688" y1="417.8183" y2="417.8183"/><text fill="#000000" font-family="sans-serif" font-size="14" font-weight="bold" lengthAdjust="spacing" textLength="141" x="538" y="410.8652">Controller / Service</text></g><!--cluster Persistence (SQLite)--><g id="cluster_Persistence (SQLite)"><path d="M58.5,594.43 L203.5,594.43 A3.75,3.75 0 0 1 206,596.93 L213,616.9183 L291.5,616.9183 A2.5,2.5 0 0 1 294,619.4183 L294,940.13 A2.5,2.5 0 0 1 291.5,942.63 L58.5,942.63 A2.5,2.5 0 0 1 56,940.13 L56,596.93 A2.5,2.5 0 0 1 58.5,594.43 " fill="none" style="stroke:#000000;stroke-width:1.5;"/><line style="stroke:#000000;stroke-width:1.5;" x1="56" x2="213" y1="616.9183" y2="616.9183"/><text fill="#000000" font-family="sans-serif" font-size="14" font-weight="bold" lengthAdjust="spacing" textLength="144" x="60" y="609.9652">Persistence (SQLite)</text></g><!--class App--><g id="elem_App"><rect codeLine="96" fill="#2E2E2E" height="52.3237" id="App" rx="2.5" ry="2.5" style="stroke:#FFFFFF;stroke-width:0.5;" width="89" x="121.5" y="41"/><text fill="#AAAAAA" font-family="Verdana" font-size="11" lengthAdjust="spacing" textLength="22" x="155" y="57.0591">App</text><line style="stroke:#FFFFFF;stroke-width:0.5;" x1="122.5" x2="209.5" y1="64.3687" y2="64.3687"/><line style="stroke:#FFFFFF;stroke-width:0.5;" x1="122.5" x2="209.5" y1="72.3687" y2="72.3687"/><text fill="#AAAAAA" font-family="sans-serif" font-size="11" lengthAdjust="spacing" textLength="77" x="127.5" y="87.0034">+main(): None</text></g><!--class DashboardGUI--><g id="elem_DashboardGUI"><rect codeLine="102" fill="#2E2E2E" height="143.0093" id="DashboardGUI" rx="2.5" ry="2.5" style="stroke:#FFFFFF;stroke-width:0.5;" width="157" x="239.5" y="191.32"/><text fill="#AAAAAA" font-family="sans-serif" font-size="11" font-style="italic" lengthAdjust="spacing" textLength="36" x="300" y="206.9548">&#171;View&#187;</text><text fill="#AAAAAA" font-family="Verdana" font-size="11" lengthAdjust="spacing" textLength="83" x="276.5" y="220.3342">DashboardGUI</text><line style="stroke:#FFFFFF;stroke-width:0.5;" x1="240.5" x2="395.5" y1="227.6437" y2="227.6437"/><text fill="#AAAAAA" font-family="sans-serif" font-size="11" lengthAdjust="spacing" textLength="75" x="245.5" y="242.2785">-master: tk.Tk</text><text fill="#AAAAAA" font-family="sans-serif" font-size="11" lengthAdjust="spacing" textLength="75" x="245.5" y="255.2336">-db: Database</text><text fill="#AAAAAA" font-family="sans-serif" font-size="11" lengthAdjust="spacing" textLength="132" x="245.5" y="268.1887">-notebook: ttk.Notebook</text><text fill="#AAAAAA" font-family="sans-serif" font-size="11" lengthAdjust="spacing" textLength="132" x="245.5" y="281.1437">-tab_overview: ttk.Frame</text><text fill="#AAAAAA" font-family="sans-serif" font-size="11" lengthAdjust="spacing" textLength="113" x="245.5" y="294.0988">-tab_entry: ttk.Frame</text><line style="stroke:#FFFFFF;stroke-width:0.5;" x1="240.5" x2="395.5" y1="300.4191" y2="300.4191"/><text fill="#AAAAAA" font-family="sans-serif" font-size="11" lengthAdjust="spacing" textLength="131" x="245.5" y="315.0539">+create_widgets(): None</text><text fill="#AAAAAA" font-family="sans-serif" font-size="11" lengthAdjust="spacing" textLength="145" x="245.5" y="328.009">+on_window_close(): None</text></g><!--class OverviewTab--><g id="elem_OverviewTab"><rect codeLine="113" fill="#2E2E2E" height="78.2339" id="OverviewTab" rx="2.5" ry="2.5" style="stroke:#FFFFFF;stroke-width:0.5;" width="274" x="85" y="449.76"/><text fill="#AAAAAA" font-family="sans-serif" font-size="11" font-style="italic" lengthAdjust="spacing" textLength="36" x="204" y="465.3948">&#171;View&#187;</text><text fill="#AAAAAA" font-family="Verdana" font-size="11" lengthAdjust="spacing" textLength="75" x="184.5" y="478.7742">OverviewTab</text><line style="stroke:#FFFFFF;stroke-width:0.5;" x1="86" x2="358" y1="486.0837" y2="486.0837"/><line style="stroke:#FFFFFF;stroke-width:0.5;" x1="86" x2="358" y1="494.0837" y2="494.0837"/><text fill="#AAAAAA" font-family="sans-serif" font-size="11" lengthAdjust="spacing" textLength="87" x="91" y="508.7185">+render(): None</text><text fill="#AAAAAA" font-family="sans-serif" font-size="11" lengthAdjust="spacing" textLength="262" x="91" y="521.6736">+update_overview(data: GoalEvaluation[*]): None</text></g><!--class EntryTab--><g id="elem_EntryTab"><rect codeLine="118" fill="#2E2E2E" height="65.2788" id="EntryTab" rx="2.5" ry="2.5" style="stroke:#FFFFFF;stroke-width:0.5;" width="99" x="394.5" y="456.24"/><text fill="#AAAAAA" font-family="sans-serif" font-size="11" font-style="italic" lengthAdjust="spacing" textLength="36" x="426" y="471.8748">&#171;View&#187;</text><text fill="#AAAAAA" font-family="Verdana" font-size="11" lengthAdjust="spacing" textLength="51" x="418.5" y="485.2542">EntryTab</text><line style="stroke:#FFFFFF;stroke-width:0.5;" x1="395.5" x2="492.5" y1="492.5637" y2="492.5637"/><line style="stroke:#FFFFFF;stroke-width:0.5;" x1="395.5" x2="492.5" y1="500.5637" y2="500.5637"/><text fill="#AAAAAA" font-family="sans-serif" font-size="11" lengthAdjust="spacing" textLength="87" x="400.5" y="515.1985">+render(): None</text></g><!--class DashboardController--><g id="elem_DashboardController"><rect codeLine="127" fill="#2E2E2E" height="117.0991" id="DashboardController" rx="2.5" ry="2.5" style="stroke:#FFFFFF;stroke-width:0.5;" width="305" x="549.5" y="430.33"/><text fill="#AAAAAA" font-family="sans-serif" font-size="11" font-style="italic" lengthAdjust="spacing" textLength="67" x="668.5" y="445.9648">&#171;Controller&#187;</text><text fill="#AAAAAA" font-family="Verdana" font-size="11" lengthAdjust="spacing" textLength="117" x="643.5" y="459.3442">DashboardController</text><line style="stroke:#FFFFFF;stroke-width:0.5;" x1="550.5" x2="853.5" y1="466.6537" y2="466.6537"/><text fill="#AAAAAA" font-family="sans-serif" font-size="11" lengthAdjust="spacing" textLength="147" x="555.5" y="481.2885">-service: DashboardService</text><text fill="#AAAAAA" font-family="sans-serif" font-size="11" lengthAdjust="spacing" textLength="183" x="555.5" y="494.2436">-student_repo: StudentRepository</text><line style="stroke:#FFFFFF;stroke-width:0.5;" x1="550.5" x2="853.5" y1="500.5639" y2="500.5639"/><text fill="#AAAAAA" font-family="sans-serif" font-size="11" lengthAdjust="spacing" textLength="138" x="555.5" y="515.1987">+load_initial_data(): None</text><text fill="#AAAAAA" font-family="sans-serif" font-size="11" lengthAdjust="spacing" textLength="210" x="555.5" y="528.1537">+save_student(student: Student): None</text><text fill="#AAAAAA" font-family="sans-serif" font-size="11" lengthAdjust="spacing" textLength="293" x="555.5" y="541.1088">+compute_overview(student_id: str): GoalEvaluation[*]</text></g><!--class DashboardService--><g id="elem_DashboardService"><rect codeLine="135" fill="#2E2E2E" height="117.0991" id="DashboardService" rx="2.5" ry="2.5" style="stroke:#FFFFFF;stroke-width:0.5;" width="507" x="550.5" y="622.95"/><text fill="#AAAAAA" font-family="sans-serif" font-size="11" font-style="italic" lengthAdjust="spacing" textLength="50" x="779" y="638.5848">&#171;Service&#187;</text><text fill="#AAAAAA" font-family="Verdana" font-size="11" lengthAdjust="spacing" textLength="104" x="752" y="651.9642">DashboardService</text><line style="stroke:#FFFFFF;stroke-width:0.5;" x1="551.5" x2="1056.5" y1="659.2737" y2="659.2737"/><line style="stroke:#FFFFFF;stroke-width:0.5;" x1="551.5" x2="1056.5" y1="667.2737" y2="667.2737"/><text fill="#AAAAAA" font-family="sans-serif" font-size="11" lengthAdjust="spacing" textLength="241" x="556.5" y="681.9085">+calc_average_grade(student: Student): float</text><text fill="#AAAAAA" font-family="sans-serif" font-size="11" lengthAdjust="spacing" textLength="375" x="556.5" y="694.8636">+calc_time_progress(student: Student, program: StudyProgram): float</text><text fill="#AAAAAA" font-family="sans-serif" font-size="11" lengthAdjust="spacing" textLength="365" x="556.5" y="707.8187">+calc_cp_progress(student: Student, program: StudyProgram): float</text><text fill="#AAAAAA" font-family="sans-serif" font-size="11" lengthAdjust="spacing" textLength="206" x="556.5" y="720.7737">+calc_cp_pace(student: Student): float</text><text fill="#AAAAAA" font-family="sans-serif" font-size="11" lengthAdjust="spacing" textLength="495" x="556.5" y="733.7288">+evaluate_goals(student: Student, program: StudyProgram, goals: Goal[*]): GoalEvaluation[*]</text></g><!--class Database--><g id="elem_Database"><rect codeLine="145" fill="#2E2E2E" height="104.144" id="Database" rx="2.5" ry="2.5" style="stroke:#FFFFFF;stroke-width:0.5;" width="152" x="85" y="822.48"/><text fill="#AAAAAA" font-family="Verdana" font-size="11" lengthAdjust="spacing" textLength="53" x="134.5" y="838.5391">Database</text><line style="stroke:#FFFFFF;stroke-width:0.5;" x1="86" x2="236" y1="845.8487" y2="845.8487"/><text fill="#AAAAAA" font-family="sans-serif" font-size="11" lengthAdjust="spacing" textLength="71" x="91" y="860.4834">-db_path: str</text><text fill="#AAAAAA" font-family="sans-serif" font-size="11" lengthAdjust="spacing" textLength="140" x="91" y="873.4385">-conn: sqlite3.Connection</text><line style="stroke:#FFFFFF;stroke-width:0.5;" x1="86" x2="236" y1="879.7588" y2="879.7588"/><text fill="#AAAAAA" font-family="sans-serif" font-size="11" lengthAdjust="spacing" textLength="94" x="91" y="894.3936">+connect(): None</text><text fill="#AAAAAA" font-family="sans-serif" font-size="11" lengthAdjust="spacing" textLength="88" x="91" y="907.3487">+init_db(): None</text><text fill="#AAAAAA" font-family="sans-serif" font-size="11" lengthAdjust="spacing" textLength="79" x="91" y="920.3037">+close(): None</text></g><!--class StudentRepository--><g id="elem_StudentRepository"><rect codeLine="153" fill="#2E2E2E" height="104.144" id="StudentRepository" rx="2.5" ry="2.5" style="stroke:#FFFFFF;stroke-width:0.5;" width="206" x="72" y="629.43"/><text fill="#AAAAAA" font-family="sans-serif" font-size="11" font-style="italic" lengthAdjust="spacing" textLength="70" x="140" y="645.0648">&#171;Repository&#187;</text><text fill="#AAAAAA" font-family="Verdana" font-size="11" lengthAdjust="spacing" textLength="105" x="122.5" y="658.4442">StudentRepository</text><line style="stroke:#FFFFFF;stroke-width:0.5;" x1="73" x2="277" y1="665.7537" y2="665.7537"/><text fill="#AAAAAA" font-family="sans-serif" font-size="11" lengthAdjust="spacing" textLength="75" x="78" y="680.3885">-db: Database</text><line style="stroke:#FFFFFF;stroke-width:0.5;" x1="73" x2="277" y1="686.7088" y2="686.7088"/><text fill="#AAAAAA" font-family="sans-serif" font-size="11" lengthAdjust="spacing" textLength="159" x="78" y="701.3436">+add(student: Student): None</text><text fill="#AAAAAA" font-family="sans-serif" font-size="11" lengthAdjust="spacing" textLength="194" x="78" y="714.2987">+get_by_id(student_id: str): Student</text><text fill="#AAAAAA" font-family="sans-serif" font-size="11" lengthAdjust="spacing" textLength="176" x="78" y="727.2537">+update(student: Student): None</text></g><!--class Student--><g id="elem_Student"><rect codeLine="11" fill="#2E2E2E" height="143.0093" id="Student" rx="2.5" ry="2.5" style="stroke:#FFFFFF;stroke-width:0.5;" width="339" x="396.5" y="803.05"/><text fill="#AAAAAA" font-family="Verdana" font-size="11" lengthAdjust="spacing" textLength="44" x="544" y="819.1091">Student</text><line style="stroke:#FFFFFF;stroke-width:0.5;" x1="397.5" x2="734.5" y1="826.4187" y2="826.4187"/><text fill="#AAAAAA" font-family="sans-serif" font-size="11" lengthAdjust="spacing" textLength="84" x="402.5" y="841.0534">-student_id: str</text><text fill="#AAAAAA" font-family="sans-serif" font-size="11" lengthAdjust="spacing" textLength="56" x="402.5" y="854.0085">-name: str</text><text fill="#AAAAAA" font-family="sans-serif" font-size="11" lengthAdjust="spacing" textLength="89" x="402.5" y="866.9636">-start_date: date</text><line style="stroke:#FFFFFF;stroke-width:0.5;" x1="397.5" x2="734.5" y1="873.2839" y2="873.2839"/><text fill="#AAAAAA" font-family="sans-serif" font-size="11" lengthAdjust="spacing" textLength="149" x="402.5" y="887.9187">+get_average_grade(): float</text><text fill="#AAAAAA" font-family="sans-serif" font-size="11" lengthAdjust="spacing" textLength="327" x="402.5" y="900.8737">+get_time_progress_percentage(duration_months: int): float</text><text fill="#AAAAAA" font-family="sans-serif" font-size="11" lengthAdjust="spacing" textLength="276" x="402.5" y="913.8288">+get_cp_progress_percentage(total_ects: int): float</text><text fill="#AAAAAA" font-family="sans-serif" font-size="11" lengthAdjust="spacing" textLength="125" x="402.5" y="926.7839">+get_earned_ects(): int</text><text fill="#AAAAAA" font-family="sans-serif" font-size="11" lengthAdjust="spacing" textLength="148" x="402.5" y="939.739">+get_cp_per_month(): float</text></g><!--class Enrollment--><g id="elem_Enrollment"><rect codeLine="23" fill="#2E2E2E" height="65.2788" id="Enrollment" rx="2.5" ry="2.5" style="stroke:#FFFFFF;stroke-width:0.5;" width="114" x="433" y="1378.3"/><text fill="#AAAAAA" font-family="Verdana" font-size="11" lengthAdjust="spacing" textLength="61" x="459.5" y="1394.3591">Enrollment</text><line style="stroke:#FFFFFF;stroke-width:0.5;" x1="434" x2="546" y1="1401.6687" y2="1401.6687"/><text fill="#AAAAAA" font-family="sans-serif" font-size="11" lengthAdjust="spacing" textLength="67" x="439" y="1416.3034">-grade: float</text><text fill="#AAAAAA" font-family="sans-serif" font-size="11" lengthAdjust="spacing" textLength="102" x="439" y="1429.2585">-date_passed: date</text><line style="stroke:#FFFFFF;stroke-width:0.5;" x1="434" x2="546" y1="1435.5788" y2="1435.5788"/></g><!--class Module--><g id="elem_Module"><rect codeLine="28" fill="#2E2E2E" height="78.2339" id="Module" rx="2.5" ry="2.5" style="stroke:#FFFFFF;stroke-width:0.5;" width="95" x="509.5" y="1213.16"/><text fill="#AAAAAA" font-family="Verdana" font-size="11" lengthAdjust="spacing" textLength="40" x="537" y="1229.2191">Module</text><line style="stroke:#FFFFFF;stroke-width:0.5;" x1="510.5" x2="603.5" y1="1236.5287" y2="1236.5287"/><text fill="#AAAAAA" font-family="sans-serif" font-size="11" lengthAdjust="spacing" textLength="83" x="515.5" y="1251.1634">-module_id: str</text><text fill="#AAAAAA" font-family="sans-serif" font-size="11" lengthAdjust="spacing" textLength="47" x="515.5" y="1264.1185">-title: str</text><text fill="#AAAAAA" font-family="sans-serif" font-size="11" lengthAdjust="spacing" textLength="48" x="515.5" y="1277.0736">-ects: int</text><line style="stroke:#FFFFFF;stroke-width:0.5;" x1="510.5" x2="603.5" y1="1283.3939" y2="1283.3939"/></g><!--class StudyProgram--><g id="elem_StudyProgram"><rect codeLine="34" fill="#2E2E2E" height="91.189" id="StudyProgram" rx="2.5" ry="2.5" style="stroke:#FFFFFF;stroke-width:0.5;" width="131" x="500.5" y="1021.06"/><text fill="#AAAAAA" font-family="Verdana" font-size="11" lengthAdjust="spacing" textLength="82" x="525" y="1037.1191">StudyProgram</text><line style="stroke:#FFFFFF;stroke-width:0.5;" x1="501.5" x2="630.5" y1="1044.4287" y2="1044.4287"/><text fill="#AAAAAA" font-family="sans-serif" font-size="11" lengthAdjust="spacing" textLength="90" x="506.5" y="1059.0634">-program_id: str</text><text fill="#AAAAAA" font-family="sans-serif" font-size="11" lengthAdjust="spacing" textLength="56" x="506.5" y="1072.0185">-name: str</text><text fill="#AAAAAA" font-family="sans-serif" font-size="11" lengthAdjust="spacing" textLength="78" x="506.5" y="1084.9736">-total_ects: int</text><text fill="#AAAAAA" font-family="sans-serif" font-size="11" lengthAdjust="spacing" textLength="119" x="506.5" y="1097.9287">-duration_months: int</text><line style="stroke:#FFFFFF;stroke-width:0.5;" x1="501.5" x2="630.5" y1="1104.249" y2="1104.249"/></g><!--class Status--><g id="elem_Status"><rect codeLine="47" fill="#2E2E2E" height="78.2339" id="Status" rx="2.5" ry="2.5" style="stroke:#FFFFFF;stroke-width:0.5;" width="55" x="1115.5" y="1213.16"/><text fill="#AAAAAA" font-family="Verdana" font-size="11" lengthAdjust="spacing" textLength="36" x="1125" y="1229.2191">Status</text><line style="stroke:#FFFFFF;stroke-width:0.5;" x1="1116.5" x2="1169.5" y1="1236.5287" y2="1236.5287"/><text fill="#AAAAAA" font-family="sans-serif" font-size="11" lengthAdjust="spacing" textLength="35" x="1121.5" y="1251.1634">GREEN</text><text fill="#AAAAAA" font-family="sans-serif" font-size="11" lengthAdjust="spacing" textLength="43" x="1121.5" y="1264.1185">YELLOW</text><text fill="#AAAAAA" font-family="sans-serif" font-size="11" lengthAdjust="spacing" textLength="21" x="1121.5" y="1277.0736">RED</text><line style="stroke:#FFFFFF;stroke-width:0.5;" x1="1116.5" x2="1169.5" y1="1283.3939" y2="1283.3939"/></g><!--class GoalEvaluation--><g id="elem_GoalEvaluation"><rect codeLine="53" fill="#2E2E2E" height="130.0542" id="GoalEvaluation" rx="2.5" ry="2.5" style="stroke:#FFFFFF;stroke-width:0.5;" width="91" x="1355.5" y="1187.25"/><text fill="#AAAAAA" font-family="Verdana" font-size="11" lengthAdjust="spacing" textLength="85" x="1358.5" y="1203.3091">GoalEvaluation</text><line style="stroke:#FFFFFF;stroke-width:0.5;" x1="1356.5" x2="1445.5" y1="1210.6187" y2="1210.6187"/><text fill="#AAAAAA" font-family="sans-serif" font-size="11" lengthAdjust="spacing" textLength="78" x="1361.5" y="1225.2534">-status: Status</text><text fill="#AAAAAA" font-family="sans-serif" font-size="11" lengthAdjust="spacing" textLength="64" x="1361.5" y="1238.2085">-value: float</text><text fill="#AAAAAA" font-family="sans-serif" font-size="11" lengthAdjust="spacing" textLength="68" x="1361.5" y="1251.1636">-target: float</text><text fill="#AAAAAA" font-family="sans-serif" font-size="11" lengthAdjust="spacing" textLength="71" x="1361.5" y="1264.1187">-value2: float</text><text fill="#AAAAAA" font-family="sans-serif" font-size="11" lengthAdjust="spacing" textLength="75" x="1361.5" y="1277.0737">-target2: float</text><text fill="#AAAAAA" font-family="sans-serif" font-size="11" lengthAdjust="spacing" textLength="59" x="1361.5" y="1290.0288">-label1: str</text><text fill="#AAAAAA" font-family="sans-serif" font-size="11" lengthAdjust="spacing" textLength="59" x="1361.5" y="1302.9839">-label2: str</text><line style="stroke:#FFFFFF;stroke-width:0.5;" x1="1356.5" x2="1445.5" y1="1309.3042" y2="1309.3042"/></g><!--class Goal--><g id="elem_Goal"><rect codeLine="63" fill="#2E2E2E" height="65.2788" id="Goal" rx="2.5" ry="2.5" style="stroke:#FFFFFF;stroke-width:0.5;" width="381" x="807.5" y="1034.01"/><text fill="#AAAAAA" font-family="Verdana" font-size="11" font-style="italic" lengthAdjust="spacing" textLength="26" x="985" y="1050.0691">Goal</text><line style="stroke:#FFFFFF;stroke-width:0.5;" x1="808.5" x2="1187.5" y1="1057.3787" y2="1057.3787"/><line style="stroke:#FFFFFF;stroke-width:0.5;" x1="808.5" x2="1187.5" y1="1065.3787" y2="1065.3787"/><text fill="#AAAAAA" font-family="sans-serif" font-size="11" lengthAdjust="spacing" textLength="369" x="813.5" y="1080.0134">+evaluate(student: Student, program: StudyProgram): GoalEvaluation</text><text fill="#AAAAAA" font-family="sans-serif" font-size="11" font-style="italic" lengthAdjust="spacing" textLength="81" x="813.5" y="1092.9685">+get_title(): str</text></g><!--class GradeAverageGoal--><g id="elem_GradeAverageGoal"><rect codeLine="72" fill="#2E2E2E" height="65.2788" id="GradeAverageGoal" rx="2.5" ry="2.5" style="stroke:#FFFFFF;stroke-width:0.5;" width="115" x="1205.5" y="1219.63"/><text fill="#AAAAAA" font-family="Verdana" font-size="11" lengthAdjust="spacing" textLength="109" x="1208.5" y="1235.6891">GradeAverageGoal</text><line style="stroke:#FFFFFF;stroke-width:0.5;" x1="1206.5" x2="1319.5" y1="1242.9987" y2="1242.9987"/><text fill="#AAAAAA" font-family="sans-serif" font-size="11" lengthAdjust="spacing" textLength="93" x="1211.5" y="1257.6334">-target_avg: float</text><line style="stroke:#FFFFFF;stroke-width:0.5;" x1="1206.5" x2="1319.5" y1="1263.9537" y2="1263.9537"/><text fill="#AAAAAA" font-family="sans-serif" font-size="11" lengthAdjust="spacing" textLength="81" x="1211.5" y="1278.5885">+get_title(): str</text></g><!--class DeadlineGoal--><g id="elem_DeadlineGoal"><rect codeLine="78" fill="#2E2E2E" height="65.2788" id="DeadlineGoal" rx="2.5" ry="2.5" style="stroke:#FFFFFF;stroke-width:0.5;" width="131" x="750.5" y="1219.63"/><text fill="#AAAAAA" font-family="Verdana" font-size="11" lengthAdjust="spacing" textLength="75" x="778.5" y="1235.6891">DeadlineGoal</text><line style="stroke:#FFFFFF;stroke-width:0.5;" x1="751.5" x2="880.5" y1="1242.9987" y2="1242.9987"/><text fill="#AAAAAA" font-family="sans-serif" font-size="11" lengthAdjust="spacing" textLength="119" x="756.5" y="1257.6334">-duration_months: int</text><line style="stroke:#FFFFFF;stroke-width:0.5;" x1="751.5" x2="880.5" y1="1263.9537" y2="1263.9537"/><text fill="#AAAAAA" font-family="sans-serif" font-size="11" lengthAdjust="spacing" textLength="81" x="756.5" y="1278.5885">+get_title(): str</text></g><!--class CpPaceGoal--><g id="elem_CpPaceGoal"><rect codeLine="84" fill="#2E2E2E" height="65.2788" id="CpPaceGoal" rx="2.5" ry="2.5" style="stroke:#FFFFFF;stroke-width:0.5;" width="164" x="916" y="1219.63"/><text fill="#AAAAAA" font-family="Verdana" font-size="11" lengthAdjust="spacing" textLength="68" x="964" y="1235.6891">CpPaceGoal</text><line style="stroke:#FFFFFF;stroke-width:0.5;" x1="917" x2="1079" y1="1242.9987" y2="1242.9987"/><text fill="#AAAAAA" font-family="sans-serif" font-size="11" lengthAdjust="spacing" textLength="152" x="922" y="1257.6334">-target_cp_per_month: float</text><line style="stroke:#FFFFFF;stroke-width:0.5;" x1="917" x2="1079" y1="1263.9537" y2="1263.9537"/><text fill="#AAAAAA" font-family="sans-serif" font-size="11" lengthAdjust="spacing" textLength="81" x="922" y="1278.5885">+get_title(): str</text></g><!--link Student to Enrollment--><g id="link_Student_Enrollment"><path codeLine="42" d="M515.9,946.35 C502.51,969.13 489.86,995.2 483,1021.06 C448.91,1149.64 471.43,1310.61 483.62,1377.98 " fill="none" id="Student-Enrollment" style="stroke:#FFFFFF;stroke-width:1.0;"/><text fill="#141414" font-family="Verdana" font-size="11" lengthAdjust="spacing" textLength="7" x="503.6238" y="965.1344">1</text><text fill="#141414" font-family="Verdana" font-size="11" lengthAdjust="spacing" textLength="22" x="458.0354" y="1367.9386">0..*</text></g><!--link Module to Enrollment--><g id="link_Module_Enrollment"><path codeLine="43" d="M540.61,1291.6 C529.3,1318.05 514.43,1352.82 503.74,1377.82 " fill="none" id="Module-Enrollment" style="stroke:#FFFFFF;stroke-width:1.0;"/><text fill="#141414" font-family="Verdana" font-size="11" lengthAdjust="spacing" textLength="7" x="530.1914" y="1310.5666">1</text><text fill="#141414" font-family="Verdana" font-size="11" lengthAdjust="spacing" textLength="22" x="508.8426" y="1367.7456">0..*</text></g><!--link Student to StudyProgram--><g id="link_Student_StudyProgram"><path codeLine="44" d="M566,946.34 C566,971.25 566,998.55 566,1020.74 " fill="none" id="Student-StudyProgram" style="stroke:#FFFFFF;stroke-width:1.0;"/><text fill="#141414" font-family="Verdana" font-size="11" lengthAdjust="spacing" textLength="40" x="567" y="988.1191">studies</text><text fill="#141414" font-family="Verdana" font-size="11" lengthAdjust="spacing" textLength="7" x="558.6555" y="965.1234">1</text><text fill="#141414" font-family="Verdana" font-size="11" lengthAdjust="spacing" textLength="7" x="558.4641" y="1010.8013">1</text></g><!--link StudyProgram to Module--><g id="link_StudyProgram_Module"><path codeLine="45" d="M563.8,1112.57 C562.29,1143.26 560.32,1183.49 558.89,1212.72 " fill="none" id="StudyProgram-Module" style="stroke:#FFFFFF;stroke-width:1.0;"/><text fill="#141414" font-family="Verdana" font-size="11" lengthAdjust="spacing" textLength="47" x="563.31" y="1154.3091">contains</text><text fill="#141414" font-family="Verdana" font-size="11" lengthAdjust="spacing" textLength="7" x="555.9628" y="1131.3547">1</text><text fill="#141414" font-family="Verdana" font-size="11" lengthAdjust="spacing" textLength="22" x="535.3242" y="1202.8947">1..*</text></g><!--link Student to Goal--><g id="link_Student_Goal"><path codeLine="68" d="M727.17,946.47 C795.26,976.44 871.14,1009.83 925.22,1033.63 " fill="none" id="Student-Goal" style="stroke:#FFFFFF;stroke-width:1.0;"/><text fill="#141414" font-family="Verdana" font-size="11" lengthAdjust="spacing" textLength="20" x="821.69" y="988.1191">has</text><text fill="#141414" font-family="Verdana" font-size="11" lengthAdjust="spacing" textLength="7" x="735.1979" y="965.0206">1</text><text fill="#141414" font-family="Verdana" font-size="11" lengthAdjust="spacing" textLength="22" x="885.9404" y="1023.5762">1..*</text></g><!--link Goal to GoalEvaluation--><g id="link_Goal_GoalEvaluation"><path codeLine="69" d="M1132.72,1099.69 C1197.91,1118.92 1275.41,1147.49 1338,1187.25 C1343.92,1191.01 1345.1498,1191.5307 1350.6698,1196.2507 " fill="none" id="Goal-to-GoalEvaluation" style="stroke:#FFFFFF;stroke-width:1.0;stroke-dasharray:7.0,7.0;"/><polygon fill="#FFFFFF" points="1355.23,1200.15,1350.9892,1191.2609,1351.4298,1196.9006,1345.7902,1197.3412,1355.23,1200.15" style="stroke:#FFFFFF;stroke-width:1.0;"/></g><!--link Goal to Status--><g id="link_Goal_Status"><path codeLine="70" d="M1026.13,1099.79 C1046.59,1123.53 1074.69,1156.86 1098,1187.25 C1104.29,1195.44 1107.3459,1199.511 1113.4059,1208.081 " fill="none" id="Goal-to-Status" style="stroke:#FFFFFF;stroke-width:1.0;stroke-dasharray:7.0,7.0;"/><polygon fill="#FFFFFF" points="1116.87,1212.98,1114.9398,1203.3221,1113.9832,1208.8975,1108.4078,1207.941,1116.87,1212.98" style="stroke:#FFFFFF;stroke-width:1.0;"/></g><!--reverse link Goal to GradeAverageGoal--><g id="link_Goal_GradeAverageGoal"><path codeLine="76" d="M1068.9066,1108.8479 C1107.5566,1131.8579 1144.36,1155.14 1188,1187.25 C1201.38,1197.09 1215.38,1208.66 1227.62,1219.25 " fill="none" id="Goal-backto-GradeAverageGoal" style="stroke:#FFFFFF;stroke-width:1.0;"/><polygon fill="none" points="1053.44,1099.64,1065.8373,1114.0034,1071.9759,1103.6924,1053.44,1099.64" style="stroke:#FFFFFF;stroke-width:1.0;"/></g><!--reverse link Goal to DeadlineGoal--><g id="link_Goal_DeadlineGoal"><path codeLine="82" d="M953.6274,1112.423 C920.3174,1146.023 880.92,1185.77 847.64,1219.35 " fill="none" id="Goal-backto-DeadlineGoal" style="stroke:#FFFFFF;stroke-width:1.0;"/><polygon fill="none" points="966.3,1099.64,949.3664,1108.1988,957.8884,1116.6472,966.3,1099.64" style="stroke:#FFFFFF;stroke-width:1.0;"/></g><!--reverse link Goal to CpPaceGoal--><g id="link_Goal_CpPaceGoal"><path codeLine="88" d="M998,1117.64 C998,1151.24 998,1185.77 998,1219.35 " fill="none" id="Goal-backto-CpPaceGoal" style="stroke:#FFFFFF;stroke-width:1.0;"/><polygon fill="none" points="998,1099.64,992,1117.64,1004,1117.64,998,1099.64" style="stroke:#FFFFFF;stroke-width:1.0;"/></g><!--reverse link DashboardGUI to OverviewTab--><g id="link_DashboardGUI_OverviewTab"><path codeLine="122" d="M282.8954,345.7508 C266.6454,383.6908 251.97,417.93 238.5,449.36 " fill="none" id="DashboardGUI-backto-OverviewTab" style="stroke:#FFFFFF;stroke-width:1.0;"/><polygon fill="none" points="287.62,334.72,281.5808,338.6605,282.8954,345.7508,288.9346,341.8103,287.62,334.72" style="stroke:#FFFFFF;stroke-width:1.0;"/></g><!--reverse link DashboardGUI to EntryTab--><g id="link_DashboardGUI_EntryTab"><path codeLine="123" d="M363.7512,345.18 C386.6012,385.82 408.29,424.38 425.98,455.84 " fill="none" id="DashboardGUI-backto-EntryTab" style="stroke:#FFFFFF;stroke-width:1.0;"/><polygon fill="none" points="357.87,334.72,357.3239,341.9104,363.7512,345.18,364.2973,337.9896,357.87,334.72" style="stroke:#FFFFFF;stroke-width:1.0;"/></g><!--link App to Database--><g id="link_App_Database"><path codeLine="170" d="M124.38,93.65 C76.97,126.25 6,187.46 6,261.82 C6,261.82 6,261.82 6,682.5 C6,738.88 42.658,784.0011 82.578,818.2811 " fill="none" id="App-to-Database" style="stroke:#FFFFFF;stroke-width:1.0;stroke-dasharray:7.0,7.0;"/><polygon fill="#FFFFFF" points="87.13,822.19,82.9079,813.292,83.3367,818.9326,77.6961,819.3613,87.13,822.19" style="stroke:#FFFFFF;stroke-width:1.0;"/><text fill="#141414" font-family="Verdana" font-size="11" lengthAdjust="spacing" textLength="42" x="7" y="493.4391">creates</text></g><!--link App to DashboardGUI--><g id="link_App_DashboardGUI"><path codeLine="171" d="M185.87,93.48 C205.26,118.19 231.9759,152.2099 258.7359,186.3099 " fill="none" id="App-to-DashboardGUI" style="stroke:#FFFFFF;stroke-width:1.0;stroke-dasharray:7.0,7.0;"/><polygon fill="#FFFFFF" points="262.44,191.03,260.0306,181.4804,259.3532,187.0966,253.7371,186.4192,262.44,191.03" style="stroke:#FFFFFF;stroke-width:1.0;"/><text fill="#141414" font-family="Verdana" font-size="11" lengthAdjust="spacing" textLength="42" x="220.5" y="137.3791">creates</text></g><!--link DashboardGUI to DashboardController--><g id="link_DashboardGUI_DashboardController"><path codeLine="174" d="M396.63,309.7 C456.21,344.46 533.2877,389.4361 597.4177,426.8561 " fill="none" id="DashboardGUI-to-DashboardController" style="stroke:#FFFFFF;stroke-width:1.0;stroke-dasharray:7.0,7.0;"/><polygon fill="#FFFFFF" points="602.6,429.88,596.8425,421.8893,598.2814,427.3601,592.8106,428.799,602.6,429.88" style="stroke:#FFFFFF;stroke-width:1.0;"/><text fill="#141414" font-family="Verdana" font-size="11" lengthAdjust="spacing" textLength="121" x="511" y="376.3891">calls (recommended)</text></g><!--link DashboardController to DashboardService--><g id="link_DashboardController_DashboardService"><path codeLine="177" d="M733.02,547.85 C745.68,571.51 757.4602,593.5192 770.1202,617.1892 " fill="none" id="DashboardController-to-DashboardService" style="stroke:#FFFFFF;stroke-width:1.0;"/><polygon fill="#FFFFFF" points="772.95,622.48,772.2325,612.6573,770.5918,618.071,765.1781,616.4304,772.95,622.48" style="stroke:#FFFFFF;stroke-width:1.0;"/></g><!--link DashboardController to StudentRepository--><g id="link_DashboardController_StudentRepository"><path codeLine="178" d="M549.22,545.14 C462.14,576.64 360.9823,613.2292 283.7923,641.1492 " fill="none" id="DashboardController-to-StudentRepository" style="stroke:#FFFFFF;stroke-width:1.0;"/><polygon fill="#FFFFFF" points="278.15,643.19,287.9739,643.8903,282.8519,641.4893,285.2528,636.3673,278.15,643.19" style="stroke:#FFFFFF;stroke-width:1.0;"/></g><!--link StudentRepository to Database--><g id="link_StudentRepository_Database"><path codeLine="181" d="M171.23,733.95 C169.23,761.25 167.2182,788.716 165.2182,816.026 " fill="none" id="StudentRepository-to-Database" style="stroke:#FFFFFF;stroke-width:1.0;"/><polygon fill="#FFFFFF" points="164.78,822.01,169.4267,813.3262,165.1452,817.0234,161.448,812.7419,164.78,822.01" style="stroke:#FFFFFF;stroke-width:1.0;"/></g><!--link DashboardService to Student--><g id="link_DashboardService_Student"><path codeLine="184" d="M731.95,740.34 C707.46,760 684.4888,778.4338 658.8788,798.9938 " fill="none" id="DashboardService-to-Student" style="stroke:#FFFFFF;stroke-width:1.0;stroke-dasharray:7.0,7.0;"/><polygon fill="#FFFFFF" points="654.2,802.75,663.7223,800.2349,658.099,799.6198,658.7141,793.9965,654.2,802.75" style="stroke:#FFFFFF;stroke-width:1.0;"/></g><!--link DashboardService to StudyProgram--><g id="link_DashboardService_StudyProgram"><path codeLine="185" d="M550.25,722.92 C473.09,740.72 402.42,764.62 379,795.05 C336.83,849.84 345.26,890.27 379,950.63 C404.76,996.71 451.8353,1024.2974 494.7153,1042.0274 " fill="none" id="DashboardService-to-StudyProgram" style="stroke:#FFFFFF;stroke-width:1.0;stroke-dasharray:7.0,7.0;"/><polygon fill="#FFFFFF" points="500.26,1044.32,493.4713,1037.1846,495.6394,1042.4095,490.4145,1044.5775,500.26,1044.32" style="stroke:#FFFFFF;stroke-width:1.0;"/></g><!--link DashboardService to Goal--><g id="link_DashboardService_Goal"><path codeLine="186" d="M833.25,740.28 C874.75,822.23 946.5702,964.0668 979.2202,1028.5668 " fill="none" id="DashboardService-to-Goal" style="stroke:#FFFFFF;stroke-width:1.0;stroke-dasharray:7.0,7.0;"/><polygon fill="#FFFFFF" points="981.93,1033.92,981.4341,1024.0836,979.6718,1029.459,974.2965,1027.6967,981.93,1033.92" style="stroke:#FFFFFF;stroke-width:1.0;"/></g><!--link DashboardService to GoalEvaluation--><g id="link_DashboardService_GoalEvaluation"><path codeLine="187" d="M880.24,740.42 C963.62,805.17 1099.55,914.91 1206,1021.06 C1260.71,1075.61 1313.3836,1139.0274 1351.3636,1186.9574 " fill="none" id="DashboardService-to-GoalEvaluation" style="stroke:#FFFFFF;stroke-width:1.0;stroke-dasharray:7.0,7.0;"/><polygon fill="#FFFFFF" points="1355.09,1191.66,1352.6355,1182.1219,1351.9847,1187.7412,1346.3654,1187.0904,1355.09,1191.66" style="stroke:#FFFFFF;stroke-width:1.0;"/></g><!--SRC=[fLVRRXit47tVhs3y4YcAvDXvKrq3JgmQGHqdjPCMRL4igDs9H6X5Rack3INDt_HF-cCzvDwugqjSr0-oICuSpWmF3qTFsNWyPdTsan4xPjTyemhhfg8dANqIajZbnUsFhwu_pg8dGYPPaH8ppdYIPrpQOfr5Iu6vHEWaeyYiXCovvckMPDoO2skrc1UMtYHAtedFn5v4qLFs_Ru_h9qCsQLQSo7PW1U6fOGOrkpZs-lXGKUh5cINfDcNY9Lx8oS4AwsVOMnioc4iqYaoqEMav6iAXiPoRUEKMqowpyXFZm0TytlIV47nGlEK1iCf-vGfRjjrAzOKvrejD1aJvwGJR0Q7GLfeReMIyLf9kpHJ9gJTTa_odSvMMPx5bDXzViIrfDHRkA1WqyKaNUuRHlmrQceqarfbsJeeayylt6Ri2X7diAQqgae7ugrA2t2dSb_xKRV8LjWih7AJJXV8dTVclIi2w5F1vUNmuA7rQbG5lQFgVZjiM1FZwEG8J6T7BoQJPqT1AQ8gfVq6VGJywqJleYjIGIRgJ3Vc7g_QPSfmDom8RwA8PB464hTWlgl0rUriTeF_lywkhz_zWY-tiqkNGLcmAyMpsJtF2f-fTt0CXlEq0d4ppY0uq34e3d844zxWTCiYdCdudBAJkkRbyBGS8Xe-nnUUMDQ6vOCPKHaS3QgxDwtlv7DM7UoqKpTmj9iJGBxKw5_hUmOoEJPNcsyTXQ-jZs7Abjn4_kjaSjw7RkQhKjL5TVo_A2zxaqbL4eZ0egtAhd2ynzbV2AIFK-DV4aypQ5gBlOUgX-53c1hwTVwU9zj1XpBmsEXRgEYWO8VAVJfa7oXPIf40vPXTv7c6hvwQFZxSXaSXHJbFLgWQEmeXZjahfQoZGfuBkJWAX1vcbLwCtCFXyhbHakhhti1zVCC65W-K9JqC_I-vMSuLr-aLBCxEVXRqS7xU21eti9yokvfyM5NQCf_2n_8vDrGfah8qLse5CzZTLADAdlWyLk31FM3BzHz0TMeNmLwzwQ-C4arETnz4YeCoGKvO0rSUX4pLGvnaob0dONmyPUzoLpEUJTa3ISdIWa6Cs0TS9MRoV_v6GWoFQuQgQ6FPmF1YJXfLQKhohWeOBlsAZ3J9b7GteYBthqITvm0Zth_Clp_xenTe_GOX_qTjv9qwfwN0rI3MNSirV8SAht4Pd9gZ4CVipladj9CIWU7PMJje-M5AvsdhKi5rkmvDkMhaxnO38wpIcp9HNCaq5b9OWOVCbQvRN8FU8ww0jgIqOvceTLw4vz1hUeOxpgHx6Fqia7NrhJqNtE-arm_jY2feLBn3fq7w3oz27oVebFud2XJk6u7N3rYyGDKUlTrpvitBMfUitrtra97lSHK5f4QYveExdww5fPv8bO9JyowT8m4dw4qVX3P2OlXd1jUN4t1LeYSg7r5F3J_kCijnBaxdtScTcj9fgLl-WXxjeBqKMmevucbwcBhkEPflGDGTdAtiGwav0BQbWOtaOQGMVZ5iNGzaW_vW0hpMe-q1l-trzV3BYSMNGzOUau4IfPGxpPE9-CPZwQ3Ti-VqcxBC7kCsffelBLd68L263H2ZoRL8bhR-4UKUnqc-6KREqtK-3QVGW_hdnWHBWOosozZMJSZ2VhOiq4RNTc8VeMbbsUKh_7PRsOBy4jehYPDqRalk5hzZlmdAofdnUO0oZ3gxTi88za8qI14PQeBUhLt1qg6BBB0f0_J7maQrm4UxqCRZystftcUuhT_Oresg3HlERr-KSfzg6LwrlbQE_YTljAM-PNzQid_lOgqxkory4xTt9MY8_mK0]--></g></svg>