<?xml version="1.0" encoding="us-ascii" standalone="no"?><svg xmlns="http://www.w3.org/2000/svg" xmlns:xlink="http://www.w3.org/1999/xlink" contentStyleType="text/css" height="1478px" preserveAspectRatio="none" style="width:2034px;height:1478px;background:#777777;" version="1.1" viewBox="0 0 2034 1478" width="2034px" zoomAndPan="magnify"><defs/><g><rect fill="#777777" height="1478" style="stroke:none;stroke-width:1.0;" width="2034" x="0" y="0"/><!--cluster Model--><g id="cluster_Model"><path d="M8.5,599.29 L53.5,599.29 A3.75,3.75 0 0 1 56,601.79 L63,621.7783 L2024.5,621.7783 A2.5,2.5 0 0 1 2027,624.2783 L2027,1469.47 A2.5,2.5 0 0 1 2024.5,1471.97 L8.5,1471.97 A2.5,2.5 0 0 1 6,1469.47 L6,601.79 A2.5,2.5 0 0 1 8.5,599.29 " fill="none" style="stroke:#000000;stroke-width:1.5;"/><line style="stroke:#000000;stroke-width:1.5;" x1="6" x2="63" y1="621.7783" y2="621.7783"/><text fill="#000000" font-family="sans-serif" font-size="14" font-weight="bold" lengthAdjust="spacing" textLength="44" x="10" y="614.8252">Model</text></g><!--cluster Controller--><g id="cluster_Controller"><path d="M204.5,359.33 L278.5,359.33 A3.75,3.75 0 0 1 281,361.83 L288,381.8183 L535.5,381.8183 A2.5,2.5 0 0 1 538,384.3183 L538,563.79 A2.5,2.5 0 0 1 535.5,566.29 L204.5,566.29 A2.5,2.5 0 0 1 202,563.79 L202,361.83 A2.5,2.5 0 0 1 204.5,359.33 " fill="none" style="stroke:#000000;stroke-width:1.5;"/><line style="stroke:#000000;stroke-width:1.5;" x1="202" x2="288" y1="381.8183" y2="381.8183"/><text fill="#000000" font-family="sans-serif" font-size="14" font-weight="bold" lengthAdjust="spacing" textLength="73" x="206" y="374.8652">Controller</text></g><!--cluster View--><g id="cluster_View"><path d="M564.5,133.28 L600.5,133.28 A3.75,3.75 0 0 1 603,135.78 L610,155.7683 L1000.5,155.7683 A2.5,2.5 0 0 1 1003,158.2683 L1003,518.45 A2.5,2.5 0 0 1 1000.5,520.95 L564.5,520.95 A2.5,2.5 0 0 1 562,518.45 L562,135.78 A2.5,2.5 0 0 1 564.5,133.28 " fill="none" style="stroke:#000000;stroke-width:1.5;"/><line style="stroke:#000000;stroke-width:1.5;" x1="562" x2="610" y1="155.7683" y2="155.7683"/><text fill="#000000" font-family="sans-serif" font-size="14" font-weight="bold" lengthAdjust="spacing" textLength="35" x="566" y="148.8152">View</text></g><!--class Student--><g id="elem_Student"><rect codeLine="21" fill="#2E2E2E" height="143.0093" id="Student" rx="2.5" ry="2.5" style="stroke:#FFFFFF;stroke-width:0.5;" width="339" x="959.5" y="807.44"/><text fill="#AAAAAA" font-family="Verdana" font-size="11" lengthAdjust="spacing" textLength="44" x="1107" y="823.4991">Student</text><line style="stroke:#FFFFFF;stroke-width:0.5;" x1="960.5" x2="1297.5" y1="830.8087" y2="830.8087"/><text fill="#AAAAAA" font-family="sans-serif" font-size="11" lengthAdjust="spacing" textLength="84" x="965.5" y="845.4434">-student_id: str</text><text fill="#AAAAAA" font-family="sans-serif" font-size="11" lengthAdjust="spacing" textLength="56" x="965.5" y="858.3985">-name: str</text><text fill="#AAAAAA" font-family="sans-serif" font-size="11" lengthAdjust="spacing" textLength="89" x="965.5" y="871.3536">-start_date: date</text><line style="stroke:#FFFFFF;stroke-width:0.5;" x1="960.5" x2="1297.5" y1="877.6739" y2="877.6739"/><text fill="#AAAAAA" font-family="sans-serif" font-size="11" lengthAdjust="spacing" textLength="149" x="965.5" y="892.3087">+get_average_grade(): float</text><text fill="#AAAAAA" font-family="sans-serif" font-size="11" lengthAdjust="spacing" textLength="327" x="965.5" y="905.2637">+get_time_progress_percentage(duration_months: int): float</text><text fill="#AAAAAA" font-family="sans-serif" font-size="11" lengthAdjust="spacing" textLength="276" x="965.5" y="918.2188">+get_cp_progress_percentage(total_ects: int): float</text><text fill="#AAAAAA" font-family="sans-serif" font-size="11" lengthAdjust="spacing" textLength="125" x="965.5" y="931.1739">+get_earned_ects(): int</text><text fill="#AAAAAA" font-family="sans-serif" font-size="11" lengthAdjust="spacing" textLength="148" x="965.5" y="944.129">+get_cp_per_month(): float</text></g><!--class Enrollment--><g id="elem_Enrollment"><rect codeLine="33" fill="#2E2E2E" height="65.2788" id="Enrollment" rx="2.5" ry="2.5" style="stroke:#FFFFFF;stroke-width:0.5;" width="114" x="1138" y="1382.69"/><text fill="#AAAAAA" font-family="Verdana" font-size="11" lengthAdjust="spacing" textLength="61" x="1164.5" y="1398.7491">Enrollment</text><line style="stroke:#FFFFFF;stroke-width:0.5;" x1="1139" x2="1251" y1="1406.0587" y2="1406.0587"/><text fill="#AAAAAA" font-family="sans-serif" font-size="11" lengthAdjust="spacing" textLength="67" x="1144" y="1420.6934">-grade: float</text><text fill="#AAAAAA" font-family="sans-serif" font-size="11" lengthAdjust="spacing" textLength="102" x="1144" y="1433.6485">-date_passed: date</text><line style="stroke:#FFFFFF;stroke-width:0.5;" x1="1139" x2="1251" y1="1439.9688" y2="1439.9688"/></g><!--class Module--><g id="elem_Module"><rect codeLine="38" fill="#2E2E2E" height="78.2339" id="Module" rx="2.5" ry="2.5" style="stroke:#FFFFFF;stroke-width:0.5;" width="95" x="1147.5" y="1217.55"/><text fill="#AAAAAA" font-family="Verdana" font-size="11" lengthAdjust="spacing" textLength="40" x="1175" y="1233.6091">Module</text><line style="stroke:#FFFFFF;stroke-width:0.5;" x1="1148.5" x2="1241.5" y1="1240.9187" y2="1240.9187"/><text fill="#AAAAAA" font-family="sans-serif" font-size="11" lengthAdjust="spacing" textLength="83" x="1153.5" y="1255.5534">-module_id: str</text><text fill="#AAAAAA" font-family="sans-serif" font-size="11" lengthAdjust="spacing" textLength="47" x="1153.5" y="1268.5085">-title: str</text><text fill="#AAAAAA" font-family="sans-serif" font-size="11" lengthAdjust="spacing" textLength="48" x="1153.5" y="1281.4636">-ects: int</text><line style="stroke:#FFFFFF;stroke-width:0.5;" x1="1148.5" x2="1241.5" y1="1287.7839" y2="1287.7839"/></g><!--class StudyProgram--><g id="elem_StudyProgram"><rect codeLine="44" fill="#2E2E2E" height="91.189" id="StudyProgram" rx="2.5" ry="2.5" style="stroke:#FFFFFF;stroke-width:0.5;" width="131" x="1128.5" y="1025.45"/><text fill="#AAAAAA" font-family="Verdana" font-size="11" lengthAdjust="spacing" textLength="82" x="1153" y="1041.5091">StudyProgram</text><line style="stroke:#FFFFFF;stroke-width:0.5;" x1="1129.5" x2="1258.5" y1="1048.8187" y2="1048.8187"/><text fill="#AAAAAA" font-family="sans-serif" font-size="11" lengthAdjust="spacing" textLength="90" x="1134.5" y="1063.4534">-program_id: str</text><text fill="#AAAAAA" font-family="sans-serif" font-size="11" lengthAdjust="spacing" textLength="56" x="1134.5" y="1076.4085">-name: str</text><text fill="#AAAAAA" font-family="sans-serif" font-size="11" lengthAdjust="spacing" textLength="78" x="1134.5" y="1089.3636">-total_ects: int</text><text fill="#AAAAAA" font-family="sans-serif" font-size="11" lengthAdjust="spacing" textLength="119" x="1134.5" y="1102.3187">-duration_months: int</text><line style="stroke:#FFFFFF;stroke-width:0.5;" x1="1129.5" x2="1258.5" y1="1108.639" y2="1108.639"/></g><!--class Status--><g id="elem_Status"><rect codeLine="57" fill="#2E2E2E" height="78.2339" id="Status" rx="2.5" ry="2.5" style="stroke:#FFFFFF;stroke-width:0.5;" width="55" x="1314.5" y="1217.55"/><text fill="#AAAAAA" font-family="Verdana" font-size="11" lengthAdjust="spacing" textLength="36" x="1324" y="1233.6091">Status</text><line style="stroke:#FFFFFF;stroke-width:0.5;" x1="1315.5" x2="1368.5" y1="1240.9187" y2="1240.9187"/><text fill="#AAAAAA" font-family="sans-serif" font-size="11" lengthAdjust="spacing" textLength="35" x="1320.5" y="1255.5534">GREEN</text><text fill="#AAAAAA" font-family="sans-serif" font-size="11" lengthAdjust="spacing" textLength="43" x="1320.5" y="1268.5085">YELLOW</text><text fill="#AAAAAA" font-family="sans-serif" font-size="11" lengthAdjust="spacing" textLength="21" x="1320.5" y="1281.4636">RED</text><line style="stroke:#FFFFFF;stroke-width:0.5;" x1="1315.5" x2="1368.5" y1="1287.7839" y2="1287.7839"/></g><!--class GoalEvaluation--><g id="elem_GoalEvaluation"><rect codeLine="63" fill="#2E2E2E" height="130.0542" id="GoalEvaluation" rx="2.5" ry="2.5" style="stroke:#FFFFFF;stroke-width:0.5;" width="91" x="1919.5" y="1191.64"/><text fill="#AAAAAA" font-family="Verdana" font-size="11" lengthAdjust="spacing" textLength="85" x="1922.5" y="1207.6991">GoalEvaluation</text><line style="stroke:#FFFFFF;stroke-width:0.5;" x1="1920.5" x2="2009.5" y1="1215.0087" y2="1215.0087"/><text fill="#AAAAAA" font-family="sans-serif" font-size="11" lengthAdjust="spacing" textLength="78" x="1925.5" y="1229.6434">-status: Status</text><text fill="#AAAAAA" font-family="sans-serif" font-size="11" lengthAdjust="spacing" textLength="64" x="1925.5" y="1242.5985">-value: float</text><text fill="#AAAAAA" font-family="sans-serif" font-size="11" lengthAdjust="spacing" textLength="68" x="1925.5" y="1255.5536">-target: float</text><text fill="#AAAAAA" font-family="sans-serif" font-size="11" lengthAdjust="spacing" textLength="71" x="1925.5" y="1268.5087">-value2: float</text><text fill="#AAAAAA" font-family="sans-serif" font-size="11" lengthAdjust="spacing" textLength="75" x="1925.5" y="1281.4637">-target2: float</text><text fill="#AAAAAA" font-family="sans-serif" font-size="11" lengthAdjust="spacing" textLength="59" x="1925.5" y="1294.4188">-label1: str</text><text fill="#AAAAAA" font-family="sans-serif" font-size="11" lengthAdjust="spacing" textLength="59" x="1925.5" y="1307.3739">-label2: str</text><line style="stroke:#FFFFFF;stroke-width:0.5;" x1="1920.5" x2="2009.5" y1="1313.6942" y2="1313.6942"/></g><!--class Goal--><g id="elem_Goal"><rect codeLine="73" fill="#2E2E2E" height="65.2788" id="Goal" rx="2.5" ry="2.5" style="stroke:#FFFFFF;stroke-width:0.5;" width="381" x="1368.5" y="1038.4"/><text fill="#AAAAAA" font-family="Verdana" font-size="11" font-style="italic" lengthAdjust="spacing" textLength="26" x="1546" y="1054.4591">Goal</text><line style="stroke:#FFFFFF;stroke-width:0.5;" x1="1369.5" x2="1748.5" y1="1061.7687" y2="1061.7687"/><line style="stroke:#FFFFFF;stroke-width:0.5;" x1="1369.5" x2="1748.5" y1="1069.7687" y2="1069.7687"/><text fill="#AAAAAA" font-family="sans-serif" font-size="11" lengthAdjust="spacing" textLength="369" x="1374.5" y="1084.4034">+evaluate(student: Student, program: StudyProgram): GoalEvaluation</text><text fill="#AAAAAA" font-family="sans-serif" font-size="11" font-style="italic" lengthAdjust="spacing" textLength="81" x="1374.5" y="1097.3585">+get_title(): str</text></g><!--class GradeAverageGoal--><g id="elem_GradeAverageGoal"><rect codeLine="82" fill="#2E2E2E" height="65.2788" id="GradeAverageGoal" rx="2.5" ry="2.5" style="stroke:#FFFFFF;stroke-width:0.5;" width="115" x="1404.5" y="1224.02"/><text fill="#AAAAAA" font-family="Verdana" font-size="11" lengthAdjust="spacing" textLength="109" x="1407.5" y="1240.0791">GradeAverageGoal</text><line style="stroke:#FFFFFF;stroke-width:0.5;" x1="1405.5" x2="1518.5" y1="1247.3887" y2="1247.3887"/><text fill="#AAAAAA" font-family="sans-serif" font-size="11" lengthAdjust="spacing" textLength="93" x="1410.5" y="1262.0234">-target_avg: float</text><line style="stroke:#FFFFFF;stroke-width:0.5;" x1="1405.5" x2="1518.5" y1="1268.3437" y2="1268.3437"/><text fill="#AAAAAA" font-family="sans-serif" font-size="11" lengthAdjust="spacing" textLength="81" x="1410.5" y="1282.9785">+get_title(): str</text></g><!--class DeadlineGoal--><g id="elem_DeadlineGoal"><rect codeLine="88" fill="#2E2E2E" height="65.2788" id="DeadlineGoal" rx="2.5" ry="2.5" style="stroke:#FFFFFF;stroke-width:0.5;" width="131" x="1554.5" y="1224.02"/><text fill="#AAAAAA" font-family="Verdana" font-size="11" lengthAdjust="spacing" textLength="75" x="1582.5" y="1240.0791">DeadlineGoal</text><line style="stroke:#FFFFFF;stroke-width:0.5;" x1="1555.5" x2="1684.5" y1="1247.3887" y2="1247.3887"/><text fill="#AAAAAA" font-family="sans-serif" font-size="11" lengthAdjust="spacing" textLength="119" x="1560.5" y="1262.0234">-duration_months: int</text><line style="stroke:#FFFFFF;stroke-width:0.5;" x1="1555.5" x2="1684.5" y1="1268.3437" y2="1268.3437"/><text fill="#AAAAAA" font-family="sans-serif" font-size="11" lengthAdjust="spacing" textLength="81" x="1560.5" y="1282.9785">+get_title(): str</text></g><!--class CpPaceGoal--><g id="elem_CpPaceGoal"><rect codeLine="94" fill="#2E2E2E" height="65.2788" id="CpPaceGoal" rx="2.5" ry="2.5" style="stroke:#FFFFFF;stroke-width:0.5;" width="164" x="1720" y="1224.02"/><text fill="#AAAAAA" font-family="Verdana" font-size="11" lengthAdjust="spacing" textLength="68" x="1768" y="1240.0791">CpPaceGoal</text><line style="stroke:#FFFFFF;stroke-width:0.5;" x1="1721" x2="1883" y1="1247.3887" y2="1247.3887"/><text fill="#AAAAAA" font-family="sans-serif" font-size="11" lengthAdjust="spacing" textLength="152" x="1726" y="1262.0234">-target_cp_per_month: float</text><line style="stroke:#FFFFFF;stroke-width:0.5;" x1="1721" x2="1883" y1="1268.3437" y2="1268.3437"/><text fill="#AAAAAA" font-family="sans-serif" font-size="11" lengthAdjust="spacing" textLength="81" x="1726" y="1282.9785">+get_title(): str</text></g><!--class DashboardService--><g id="elem_DashboardService"><rect codeLine="101" fill="#2E2E2E" height="104.144" id="DashboardService" rx="2.5" ry="2.5" style="stroke:#FFFFFF;stroke-width:0.5;" width="507" x="1145.5" y="642.29"/><text fill="#AAAAAA" font-family="Verdana" font-size="11" lengthAdjust="spacing" textLength="104" x="1347" y="658.3491">DashboardService</text><line style="stroke:#FFFFFF;stroke-width:0.5;" x1="1146.5" x2="1651.5" y1="665.6587" y2="665.6587"/><line style="stroke:#FFFFFF;stroke-width:0.5;" x1="1146.5" x2="1651.5" y1="673.6587" y2="673.6587"/><text fill="#AAAAAA" font-family="sans-serif" font-size="11" lengthAdjust="spacing" textLength="241" x="1151.5" y="688.2934">+calc_average_grade(student: Student): float</text><text fill="#AAAAAA" font-family="sans-serif" font-size="11" lengthAdjust="spacing" textLength="375" x="1151.5" y="701.2485">+calc_time_progress(student: Student, program: StudyProgram): float</text><text fill="#AAAAAA" font-family="sans-serif" font-size="11" lengthAdjust="spacing" textLength="365" x="1151.5" y="714.2036">+calc_cp_progress(student: Student, program: StudyProgram): float</text><text fill="#AAAAAA" font-family="sans-serif" font-size="11" lengthAdjust="spacing" textLength="206" x="1151.5" y="727.1587">+calc_cp_pace(student: Student): float</text><text fill="#AAAAAA" font-family="sans-serif" font-size="11" lengthAdjust="spacing" textLength="495" x="1151.5" y="740.1137">+evaluate_goals(student: Student, program: StudyProgram, goals: Goal[*]): GoalEvaluation[*]</text></g><!--class Database--><g id="elem_Database"><rect codeLine="110" fill="#2E2E2E" height="104.144" id="Database" rx="2.5" ry="2.5" style="stroke:#FFFFFF;stroke-width:0.5;" width="152" x="382" y="826.87"/><text fill="#AAAAAA" font-family="Verdana" font-size="11" lengthAdjust="spacing" textLength="53" x="431.5" y="842.9291">Database</text><line style="stroke:#FFFFFF;stroke-width:0.5;" x1="383" x2="533" y1="850.2387" y2="850.2387"/><text fill="#AAAAAA" font-family="sans-serif" font-size="11" lengthAdjust="spacing" textLength="71" x="388" y="864.8734">-db_path: str</text><text fill="#AAAAAA" font-family="sans-serif" font-size="11" lengthAdjust="spacing" textLength="140" x="388" y="877.8285">-conn: sqlite3.Connection</text><line style="stroke:#FFFFFF;stroke-width:0.5;" x1="383" x2="533" y1="884.1488" y2="884.1488"/><text fill="#AAAAAA" font-family="sans-serif" font-size="11" lengthAdjust="spacing" textLength="94" x="388" y="898.7836">+connect(): None</text><text fill="#AAAAAA" font-family="sans-serif" font-size="11" lengthAdjust="spacing" textLength="88" x="388" y="911.7387">+init_db(): None</text><text fill="#AAAAAA" font-family="sans-serif" font-size="11" lengthAdjust="spacing" textLength="79" x="388" y="924.6937">+close(): None</text></g><!--class StudentRepository--><g id="elem_StudentRepository"><rect codeLine="118" fill="#2E2E2E" height="104.144" id="StudentRepository" rx="2.5" ry="2.5" style="stroke:#FFFFFF;stroke-width:0.5;" width="206" x="267" y="642.29"/><text fill="#AAAAAA" font-family="Verdana" font-size="11" lengthAdjust="spacing" textLength="105" x="317.5" y="658.3491">StudentRepository</text><line style="stroke:#FFFFFF;stroke-width:0.5;" x1="268" x2="472" y1="665.6587" y2="665.6587"/><text fill="#AAAAAA" font-family="sans-serif" font-size="11" lengthAdjust="spacing" textLength="75" x="273" y="680.2934">-db: Database</text><line style="stroke:#FFFFFF;stroke-width:0.5;" x1="268" x2="472" y1="686.6137" y2="686.6137"/><text fill="#AAAAAA" font-family="sans-serif" font-size="11" lengthAdjust="spacing" textLength="159" x="273" y="701.2485">+add(student: Student): None</text><text fill="#AAAAAA" font-family="sans-serif" font-size="11" lengthAdjust="spacing" textLength="194" x="273" y="714.2036">+get_by_id(student_id: str): Student</text><text fill="#AAAAAA" font-family="sans-serif" font-size="11" lengthAdjust="spacing" textLength="176" x="273" y="727.1587">+update(student: Student): None</text><text fill="#AAAAAA" font-family="sans-serif" font-size="11" lengthAdjust="spacing" textLength="79" x="273" y="740.1137">+close(): None</text></g><!--class ModuleRepository--><g id="elem_ModuleRepository"><rect codeLine="126" fill="#2E2E2E" height="91.189" id="ModuleRepository" rx="2.5" ry="2.5" style="stroke:#FFFFFF;stroke-width:0.5;" width="203" x="29.5" y="648.77"/><text fill="#AAAAAA" font-family="Verdana" font-size="11" lengthAdjust="spacing" textLength="101" x="80.5" y="664.8291">ModuleRepository</text><line style="stroke:#FFFFFF;stroke-width:0.5;" x1="30.5" x2="231.5" y1="672.1387" y2="672.1387"/><text fill="#AAAAAA" font-family="sans-serif" font-size="11" lengthAdjust="spacing" textLength="75" x="35.5" y="686.7734">-db: Database</text><line style="stroke:#FFFFFF;stroke-width:0.5;" x1="30.5" x2="231.5" y1="693.0937" y2="693.0937"/><text fill="#AAAAAA" font-family="sans-serif" font-size="11" lengthAdjust="spacing" textLength="156" x="35.5" y="707.7285">+add(module: Module): None</text><text fill="#AAAAAA" font-family="sans-serif" font-size="11" lengthAdjust="spacing" textLength="191" x="35.5" y="720.6836">+get_by_id(module_id: str): Module</text><text fill="#AAAAAA" font-family="sans-serif" font-size="11" lengthAdjust="spacing" textLength="79" x="35.5" y="733.6387">+close(): None</text></g><!--class EnrollmentRepository--><g id="elem_EnrollmentRepository"><rect codeLine="133" fill="#2E2E2E" height="91.189" id="EnrollmentRepository" rx="2.5" ry="2.5" style="stroke:#FFFFFF;stroke-width:0.5;" width="428" x="508" y="648.77"/><text fill="#AAAAAA" font-family="Verdana" font-size="11" lengthAdjust="spacing" textLength="122" x="661" y="664.8291">EnrollmentRepository</text><line style="stroke:#FFFFFF;stroke-width:0.5;" x1="509" x2="935" y1="672.1387" y2="672.1387"/><text fill="#AAAAAA" font-family="sans-serif" font-size="11" lengthAdjust="spacing" textLength="75" x="514" y="686.7734">-db: Database</text><line style="stroke:#FFFFFF;stroke-width:0.5;" x1="509" x2="935" y1="693.0937" y2="693.0937"/><text fill="#AAAAAA" font-family="sans-serif" font-size="11" lengthAdjust="spacing" textLength="416" x="514" y="707.7285">+upsert(student_id: str, module_id: str, grade: float, date_passed: date): None</text><text fill="#AAAAAA" font-family="sans-serif" font-size="11" lengthAdjust="spacing" textLength="254" x="514" y="720.6836">+list_by_student(student_id: str): Enrollment[*]</text><text fill="#AAAAAA" font-family="sans-serif" font-size="11" lengthAdjust="spacing" textLength="79" x="514" y="733.6387">+close(): None</text></g><!--class DashboardController--><g id="elem_DashboardController"><rect codeLine="159" fill="#2E2E2E" height="155.9644" id="DashboardController" rx="2.5" ry="2.5" style="stroke:#FFFFFF;stroke-width:0.5;" width="305" x="217.5" y="394.33"/><text fill="#AAAAAA" font-family="Verdana" font-size="11" lengthAdjust="spacing" textLength="117" x="311.5" y="410.3891">DashboardController</text><line style="stroke:#FFFFFF;stroke-width:0.5;" x1="218.5" x2="521.5" y1="417.6987" y2="417.6987"/><text fill="#AAAAAA" font-family="sans-serif" font-size="11" lengthAdjust="spacing" textLength="147" x="223.5" y="432.3334">-service: DashboardService</text><text fill="#AAAAAA" font-family="sans-serif" font-size="11" lengthAdjust="spacing" textLength="183" x="223.5" y="445.2885">-student_repo: StudentRepository</text><text fill="#AAAAAA" font-family="sans-serif" font-size="11" lengthAdjust="spacing" textLength="180" x="223.5" y="458.2436">-module_repo: ModuleRepository</text><text fill="#AAAAAA" font-family="sans-serif" font-size="11" lengthAdjust="spacing" textLength="217" x="223.5" y="471.1987">-enrollment_repo: EnrollmentRepository</text><line style="stroke:#FFFFFF;stroke-width:0.5;" x1="218.5" x2="521.5" y1="477.519" y2="477.519"/><text fill="#AAAAAA" font-family="sans-serif" font-size="11" lengthAdjust="spacing" textLength="138" x="223.5" y="492.1537">+load_initial_data(): None</text><text fill="#AAAAAA" font-family="sans-serif" font-size="11" lengthAdjust="spacing" textLength="210" x="223.5" y="505.1088">+save_student(student: Student): None</text><text fill="#AAAAAA" font-family="sans-serif" font-size="11" lengthAdjust="spacing" textLength="293" x="223.5" y="518.0639">+compute_overview(student_id: str): GoalEvaluation[*]</text><text fill="#AAAAAA" font-family="sans-serif" font-size="11" lengthAdjust="spacing" textLength="3" x="223.5" y="531.019">&#160;</text><text fill="#AAAAAA" font-family="sans-serif" font-size="11" lengthAdjust="spacing" textLength="104" x="223.5" y="543.974">+shutdown(): None</text></g><!--class DashboardGUI--><g id="elem_DashboardGUI"><rect codeLine="177" fill="#2E2E2E" height="130.0542" id="DashboardGUI" rx="2.5" ry="2.5" style="stroke:#FFFFFF;stroke-width:0.5;" width="191" x="619.5" y="168.28"/><text fill="#AAAAAA" font-family="Verdana" font-size="11" lengthAdjust="spacing" textLength="83" x="673.5" y="184.3391">DashboardGUI</text><line style="stroke:#FFFFFF;stroke-width:0.5;" x1="620.5" x2="809.5" y1="191.6487" y2="191.6487"/><text fill="#AAAAAA" font-family="sans-serif" font-size="11" lengthAdjust="spacing" textLength="75" x="625.5" y="206.2834">-master: tk.Tk</text><text fill="#AAAAAA" font-family="sans-serif" font-size="11" lengthAdjust="spacing" textLength="179" x="625.5" y="219.2385">-controller: DashboardController</text><text fill="#AAAAAA" font-family="sans-serif" font-size="11" lengthAdjust="spacing" textLength="132" x="625.5" y="232.1936">-notebook: ttk.Notebook</text><text fill="#AAAAAA" font-family="sans-serif" font-size="11" lengthAdjust="spacing" textLength="132" x="625.5" y="245.1487">-tab_overview: ttk.Frame</text><text fill="#AAAAAA" font-family="sans-serif" font-size="11" lengthAdjust="spacing" textLength="113" x="625.5" y="258.1037">-tab_entry: ttk.Frame</text><line style="stroke:#FFFFFF;stroke-width:0.5;" x1="620.5" x2="809.5" y1="264.424" y2="264.424"/><text fill="#AAAAAA" font-family="sans-serif" font-size="11" lengthAdjust="spacing" textLength="131" x="625.5" y="279.0588">+create_widgets(): None</text><text fill="#AAAAAA" font-family="sans-serif" font-size="11" lengthAdjust="spacing" textLength="145" x="625.5" y="292.0139">+on_window_close(): None</text></g><!--class TargetMonitoring--><g id="elem_TargetMonitoring"><rect codeLine="188" fill="#2E2E2E" height="65.2788" id="TargetMonitoring" rx="2.5" ry="2.5" style="stroke:#FFFFFF;stroke-width:0.5;" width="274" x="578" y="439.67"/><text fill="#AAAAAA" font-family="Verdana" font-size="11" lengthAdjust="spacing" textLength="96" x="667" y="455.7291">TargetMonitoring</text><line style="stroke:#FFFFFF;stroke-width:0.5;" x1="579" x2="851" y1="463.0387" y2="463.0387"/><line style="stroke:#FFFFFF;stroke-width:0.5;" x1="579" x2="851" y1="471.0387" y2="471.0387"/><text fill="#AAAAAA" font-family="sans-serif" font-size="11" lengthAdjust="spacing" textLength="87" x="584" y="485.6734">+render(): None</text><text fill="#AAAAAA" font-family="sans-serif" font-size="11" lengthAdjust="spacing" textLength="262" x="584" y="498.6285">+update_overview(data: GoalEvaluation[*]): None</text></g><!--class DataCollection--><g id="elem_DataCollection"><rect codeLine="193" fill="#2E2E2E" height="52.3237" id="DataCollection" rx="2.5" ry="2.5" style="stroke:#FFFFFF;stroke-width:0.5;" width="99" x="887.5" y="446.15"/><text fill="#AAAAAA" font-family="Verdana" font-size="11" lengthAdjust="spacing" textLength="81" x="896.5" y="462.2091">DataCollection</text><line style="stroke:#FFFFFF;stroke-width:0.5;" x1="888.5" x2="985.5" y1="469.5187" y2="469.5187"/><line style="stroke:#FFFFFF;stroke-width:0.5;" x1="888.5" x2="985.5" y1="477.5187" y2="477.5187"/><text fill="#AAAAAA" font-family="sans-serif" font-size="11" lengthAdjust="spacing" textLength="87" x="893.5" y="492.1534">+render(): None</text></g><!--class Main--><g id="elem_Main"><rect codeLine="10" fill="#2E2E2E" height="65.2788" id="Main" rx="2.5" ry="2.5" style="stroke:#FFFFFF;stroke-width:0.5;" width="90" x="1009" y="7"/><text fill="#AAAAAA" font-family="sans-serif" font-size="11" font-style="italic" lengthAdjust="spacing" textLength="88" x="1010" y="22.6348">&#171;Bootstrapping&#187;</text><text fill="#AAAAAA" font-family="Verdana" font-size="11" lengthAdjust="spacing" textLength="26" x="1041" y="36.0142">Main</text><line style="stroke:#FFFFFF;stroke-width:0.5;" x1="1010" x2="1098" y1="43.3237" y2="43.3237"/><line style="stroke:#FFFFFF;stroke-width:0.5;" x1="1010" x2="1098" y1="51.3237" y2="51.3237"/><text fill="#AAAAAA" font-family="sans-serif" font-size="11" lengthAdjust="spacing" textLength="77" x="1015" y="65.9585">+main(): None</text></g><!--link Student to Enrollment--><g id="link_Student_Enrollment"><path codeLine="52" d="M1114.69,950.64 C1099.78,1040.11 1084.37,1197.51 1130,1321.69 C1138.13,1343.82 1152.92,1365.56 1166.34,1382.41 " fill="none" id="Student-Enrollment" style="stroke:#FFFFFF;stroke-width:1.0;"/><text fill="#141414" font-family="Verdana" font-size="11" lengthAdjust="spacing" textLength="7" x="1105.9368" y="969.4146">1</text><text fill="#141414" font-family="Verdana" font-size="11" lengthAdjust="spacing" textLength="22" x="1136.1601" y="1372.3768">0..*</text></g><!--link Module to Enrollment--><g id="link_Module_Enrollment"><path codeLine="53" d="M1195,1295.99 C1195,1322.44 1195,1357.21 1195,1382.21 " fill="none" id="Module-Enrollment" style="stroke:#FFFFFF;stroke-width:1.0;"/><text fill="#141414" font-family="Verdana" font-size="11" lengthAdjust="spacing" textLength="7" x="1187.3984" y="1314.9566">1</text><text fill="#141414" font-family="Verdana" font-size="11" lengthAdjust="spacing" textLength="22" x="1170.7313" y="1372.1356">0..*</text></g><!--link Student to StudyProgram--><g id="link_Student_StudyProgram"><path codeLine="54" d="M1153.2,950.73 C1161.72,975.64 1171.06,1002.94 1178.64,1025.13 " fill="none" id="Student-StudyProgram" style="stroke:#FFFFFF;stroke-width:1.0;"/><text fill="#141414" font-family="Verdana" font-size="11" lengthAdjust="spacing" textLength="40" x="1168.32" y="992.5091">studies</text><text fill="#141414" font-family="Verdana" font-size="11" lengthAdjust="spacing" textLength="7" x="1148.2377" y="969.5134">1</text><text fill="#141414" font-family="Verdana" font-size="11" lengthAdjust="spacing" textLength="7" x="1168.7521" y="1015.1913">1</text></g><!--link StudyProgram to Module--><g id="link_StudyProgram_Module"><path codeLine="55" d="M1194.24,1116.96 C1194.41,1147.65 1194.63,1187.88 1194.79,1217.11 " fill="none" id="StudyProgram-Module" style="stroke:#FFFFFF;stroke-width:1.0;"/><text fill="#141414" font-family="Verdana" font-size="11" lengthAdjust="spacing" textLength="47" x="1195.47" y="1158.6991">contains</text><text fill="#141414" font-family="Verdana" font-size="11" lengthAdjust="spacing" textLength="7" x="1186.7612" y="1135.7447">1</text><text fill="#141414" font-family="Verdana" font-size="11" lengthAdjust="spacing" textLength="22" x="1170.8633" y="1207.2847">1..*</text></g><!--link Student to Goal--><g id="link_Student_Goal"><path codeLine="78" d="M1289.42,950.86 C1357.2,980.83 1432.73,1014.22 1486.56,1038.02 " fill="none" id="Student-Goal" style="stroke:#FFFFFF;stroke-width:1.0;"/><text fill="#141414" font-family="Verdana" font-size="11" lengthAdjust="spacing" textLength="20" x="1383.51" y="992.5091">has</text><text fill="#141414" font-family="Verdana" font-size="11" lengthAdjust="spacing" textLength="7" x="1297.3764" y="969.4106">1</text><text fill="#141414" font-family="Verdana" font-size="11" lengthAdjust="spacing" textLength="22" x="1447.3505" y="1027.9662">1..*</text></g><!--link Goal to GoalEvaluation--><g id="link_Goal_GoalEvaluation"><path codeLine="79" d="M1629.15,1104.11 C1671.39,1122.6 1726.58,1145.33 1777,1161.64 C1831.36,1179.22 1852.26,1163.52 1902,1191.64 C1907.97,1195.01 1909.1089,1195.3173 1914.5889,1199.8073 " fill="none" id="Goal-to-GoalEvaluation" style="stroke:#FFFFFF;stroke-width:1.0;stroke-dasharray:7.0,7.0;"/><polygon fill="#FFFFFF" points="1919.23,1203.61,1914.8035,1194.812,1915.3624,1200.4411,1909.7332,1201.0001,1919.23,1203.61" style="stroke:#FFFFFF;stroke-width:1.0;"/></g><!--link Goal to Status--><g id="link_Goal_Status"><path codeLine="80" d="M1502.98,1103.97 C1467.39,1125.87 1421.68,1157.13 1387,1191.64 C1379.29,1199.3 1375.4943,1203.5454 1369.1243,1212.4754 " fill="none" id="Goal-to-Status" style="stroke:#FFFFFF;stroke-width:1.0;stroke-dasharray:7.0,7.0;"/><polygon fill="#FFFFFF" points="1365.64,1217.36,1374.1229,1212.356,1368.5436,1213.2895,1367.6101,1207.7102,1365.64,1217.36" style="stroke:#FFFFFF;stroke-width:1.0;"/></g><!--reverse link Goal to GradeAverageGoal--><g id="link_Goal_GradeAverageGoal"><path codeLine="86" d="M1533.6922,1119.9457 C1515.9422,1153.5457 1496.6,1190.16 1478.86,1223.74 " fill="none" id="Goal-backto-GradeAverageGoal" style="stroke:#FFFFFF;stroke-width:1.0;"/><polygon fill="none" points="1542.1,1104.03,1528.3869,1117.1431,1538.9974,1122.7483,1542.1,1104.03" style="stroke:#FFFFFF;stroke-width:1.0;"/></g><!--reverse link Goal to DeadlineGoal--><g id="link_Goal_DeadlineGoal"><path codeLine="92" d="M1575.3038,1121.1124 C1586.4638,1154.7124 1598.24,1190.16 1609.39,1223.74 " fill="none" id="Goal-backto-DeadlineGoal" style="stroke:#FFFFFF;stroke-width:1.0;"/><polygon fill="none" points="1569.63,1104.03,1569.6097,1123.0037,1580.9979,1119.2211,1569.63,1104.03" style="stroke:#FFFFFF;stroke-width:1.0;"/></g><!--reverse link Goal to CpPaceGoal--><g id="link_Goal_CpPaceGoal"><path codeLine="98" d="M1615.6904,1114.8826 C1660.1504,1148.4826 1715.32,1190.16 1759.75,1223.74 " fill="none" id="Goal-backto-CpPaceGoal" style="stroke:#FFFFFF;stroke-width:1.0;"/><polygon fill="none" points="1601.33,1104.03,1612.0728,1119.6694,1619.3079,1110.0959,1601.33,1104.03" style="stroke:#FFFFFF;stroke-width:1.0;"/></g><!--link StudentRepository to Database--><g id="link_StudentRepository_Database"><path codeLine="141" d="M394.75,746.71 C406.8,771.71 418.634,796.2755 430.684,821.2655 " fill="none" id="StudentRepository-to-Database" style="stroke:#FFFFFF;stroke-width:1.0;"/><polygon fill="#FFFFFF" points="433.29,826.67,432.984,816.8259,431.1183,822.1662,425.778,820.3006,433.29,826.67" style="stroke:#FFFFFF;stroke-width:1.0;"/></g><!--link ModuleRepository to Database--><g id="link_ModuleRepository_Database"><path codeLine="142" d="M211.41,740.26 C263.32,769.25 325.211,803.8055 376.321,832.3355 " fill="none" id="ModuleRepository-to-Database" style="stroke:#FFFFFF;stroke-width:1.0;"/><polygon fill="#FFFFFF" points="381.56,835.26,375.6511,827.3806,377.1941,832.8229,371.7518,834.366,381.56,835.26" style="stroke:#FFFFFF;stroke-width:1.0;"/></g><!--link EnrollmentRepository to Database--><g id="link_EnrollmentRepository_Database"><path codeLine="143" d="M657.08,740.26 C619.37,766.34 576.6449,795.8872 537.4149,823.0172 " fill="none" id="EnrollmentRepository-to-Database" style="stroke:#FFFFFF;stroke-width:1.0;"/><polygon fill="#FFFFFF" points="532.48,826.43,542.1575,824.6008,536.5924,823.586,537.6071,818.0209,532.48,826.43" style="stroke:#FFFFFF;stroke-width:1.0;"/></g><!--link StudentRepository to Student--><g id="link_StudentRepository_Student"><path codeLine="145" d="M473.29,741.21 C479.23,743.14 485.16,744.9 491,746.44 C690.47,798.85 753.01,745.23 952,799.44 C960.27,801.69 962.9634,802.3664 971.3434,805.1864 " fill="none" id="StudentRepository-to-Student" style="stroke:#FFFFFF;stroke-width:1.0;stroke-dasharray:7.0,7.0;"/><polygon fill="#FFFFFF" points="977.03,807.1,969.7758,800.4384,972.2911,805.5053,967.2243,808.0206,977.03,807.1" style="stroke:#FFFFFF;stroke-width:1.0;"/></g><!--link ModuleRepository to Module--><g id="link_ModuleRepository_Module"><path codeLine="146" d="M228.46,740.41 C235.65,742.74 242.88,744.79 250,746.44 C365.53,773.19 1234.25,713.53 1316,799.44 C1362.26,848.06 1332.28,885.34 1316,950.45 C1312.34,965.11 1304.88,966.15 1300,980.45 C1280.19,1038.55 1297.8,1058.88 1277,1116.64 C1269.17,1138.37 1262.69,1141.71 1251,1161.64 C1240.23,1179.99 1231.2476,1195.1294 1221.0776,1212.1494 " fill="none" id="ModuleRepository-to-Module" style="stroke:#FFFFFF;stroke-width:1.0;stroke-dasharray:7.0,7.0;"/><polygon fill="#FFFFFF" points="1218,1217.3,1226.0501,1211.6259,1220.5647,1213.0079,1219.1827,1207.5224,1218,1217.3" style="stroke:#FFFFFF;stroke-width:1.0;"/></g><!--link EnrollmentRepository to Enrollment--><g id="link_EnrollmentRepository_Enrollment"><path codeLine="147" d="M909.05,740.43 C919.5,742.56 929.87,744.58 940,746.44 C1027.54,762.5 1273.25,737.33 1337,799.44 C1395.36,856.29 1359.54,899.23 1366,980.45 C1366.53,987.09 1368.5,989.27 1366,995.45 C1359.05,1012.64 1346.56,1009.55 1337,1025.45 C1296.98,1092.01 1301.81,1116.29 1283,1191.64 C1268.78,1248.59 1282.5,1267.48 1260,1321.69 C1250.89,1343.65 1239.5702,1360.8168 1226.2602,1377.8068 " fill="none" id="EnrollmentRepository-to-Enrollment" style="stroke:#FFFFFF;stroke-width:1.0;stroke-dasharray:7.0,7.0;"/><polygon fill="#FFFFFF" points="1222.56,1382.53,1231.2591,1377.912,1225.6435,1378.594,1224.9615,1372.9784,1222.56,1382.53" style="stroke:#FFFFFF;stroke-width:1.0;"/></g><!--link DashboardService to Student--><g id="link_DashboardService_Student"><path codeLine="149" d="M1374.87,746.71 C1367.97,757.82 1359.65,768.81 1350,777.44 C1349.78,777.64 1326.942,788.0567 1290.672,804.5467 " fill="none" id="DashboardService-to-Student" style="stroke:#FFFFFF;stroke-width:1.0;stroke-dasharray:7.0,7.0;"/><polygon fill="#FFFFFF" points="1285.21,807.03,1295.0585,806.9464,1289.7617,804.9606,1291.7475,799.6638,1285.21,807.03" style="stroke:#FFFFFF;stroke-width:1.0;"/></g><!--link DashboardService to StudyProgram--><g id="link_DashboardService_StudyProgram"><path codeLine="150" d="M1389.83,746.85 C1378.57,800.69 1355.88,886.13 1316,950.45 C1298.73,978.3 1278.0984,1000.3747 1255.1584,1021.0347 " fill="none" id="DashboardService-to-StudyProgram" style="stroke:#FFFFFF;stroke-width:1.0;stroke-dasharray:7.0,7.0;"/><polygon fill="#FFFFFF" points="1250.7,1025.05,1260.0645,1021.9993,1254.4153,1021.7039,1254.7108,1016.0548,1250.7,1025.05" style="stroke:#FFFFFF;stroke-width:1.0;"/></g><!--link DashboardService to Goal--><g id="link_DashboardService_Goal"><path codeLine="151" d="M1420.91,746.68 C1454.46,825.24 1515.2233,967.5422 1542.9733,1032.5122 " fill="none" id="DashboardService-to-Goal" style="stroke:#FFFFFF;stroke-width:1.0;stroke-dasharray:7.0,7.0;"/><polygon fill="#FFFFFF" points="1545.33,1038.03,1545.4734,1028.1822,1543.366,1033.4319,1538.1164,1031.3245,1545.33,1038.03" style="stroke:#FFFFFF;stroke-width:1.0;"/></g><!--link DashboardService to GoalEvaluation--><g id="link_DashboardService_GoalEvaluation"><path codeLine="152" d="M1461.12,746.8 C1536.13,809.86 1664.91,921.21 1767,1025.45 C1822.15,1081.75 1876.6167,1146.1612 1915.5467,1193.8712 " fill="none" id="DashboardService-to-GoalEvaluation" style="stroke:#FFFFFF;stroke-width:1.0;stroke-dasharray:7.0,7.0;"/><polygon fill="#FFFFFF" points="1919.34,1198.52,1916.7493,1189.018,1916.1789,1194.646,1910.5509,1194.0757,1919.34,1198.52" style="stroke:#FFFFFF;stroke-width:1.0;"/></g><!--reverse link DashboardGUI to TargetMonitoring--><g id="link_DashboardGUI_TargetMonitoring"><path codeLine="197" d="M715,310.75 C715,356.26 715,403.31 715,439.2 " fill="none" id="DashboardGUI-backto-TargetMonitoring" style="stroke:#FFFFFF;stroke-width:1.0;"/><polygon fill="none" points="715,298.75,711,304.75,715,310.75,719,304.75,715,298.75" style="stroke:#FFFFFF;stroke-width:1.0;"/></g><!--reverse link DashboardGUI to DataCollection--><g id="link_DashboardGUI_DataCollection"><path codeLine="198" d="M820.4317,304.265 C841.3417,320.485 852.83,331.63 870,351.33 C895.23,380.29 915.23,420.28 926.59,445.97 " fill="none" id="DashboardGUI-backto-DataCollection" style="stroke:#FFFFFF;stroke-width:1.0;"/><polygon fill="none" points="810.95,296.91,813.2392,303.7481,820.4317,304.265,818.1425,297.4269,810.95,296.91" style="stroke:#FFFFFF;stroke-width:1.0;"/></g><!--link DashboardGUI to DashboardController--><g id="link_DashboardGUI_DashboardController"><path codeLine="200" d="M621.18,298.75 C578.38,328.16 532.3055,359.8127 487.4555,390.6227 " fill="none" id="DashboardGUI-to-DashboardController" style="stroke:#FFFFFF;stroke-width:1.0;stroke-dasharray:7.0,7.0;"/><polygon fill="#FFFFFF" points="482.51,394.02,492.1932,392.221,486.6313,391.1889,487.6634,385.627,482.51,394.02" style="stroke:#FFFFFF;stroke-width:1.0;"/><text fill="#141414" font-family="Verdana" font-size="11" lengthAdjust="spacing" textLength="25" x="574.4" y="340.3891">calls</text></g><!--link DashboardGUI to DashboardController--><g id="link_DashboardGUI_DashboardController"><path codeLine="220" d="M619.3,272.92 C560.35,296.9 494.91,323.97 489,328.33 C464.44,346.45 445.5506,365.9948 426.7606,389.3548 " fill="none" id="DashboardGUI-to-DashboardController-1" style="stroke:#FFFFFF;stroke-width:1.0;stroke-dasharray:7.0,7.0;"/><polygon fill="#FFFFFF" points="423,394.03,431.7577,389.5242,426.1338,390.134,425.5241,384.5101,423,394.03" style="stroke:#FFFFFF;stroke-width:1.0;"/><text fill="#141414" font-family="Verdana" font-size="11" lengthAdjust="spacing" textLength="64" x="490" y="340.3891">shutdown()</text></g><!--link Main to Database--><g id="link_Main_Database"><path codeLine="206" d="M1099.31,42.31 C1262.41,49.54 1810,84.8 1810,232.3 C1810,232.3 1810,232.3 1810,695.37 C1810,893.9 1722.66,712.31 944,799.44 C798.33,815.74 635.618,844.3281 540.178,862.1581 " fill="none" id="Main-to-Database" style="stroke:#FFFFFF;stroke-width:1.0;stroke-dasharray:7.0,7.0;"/><polygon fill="#FFFFFF" points="534.28,863.26,543.8615,865.5392,539.195,862.3418,542.3924,857.6753,534.28,863.26" style="stroke:#FFFFFF;stroke-width:1.0;"/><text fill="#141414" font-family="Verdana" font-size="11" lengthAdjust="spacing" textLength="42" x="1811" y="476.8691">creates</text></g><!--link Main to StudentRepository--><g id="link_Main_StudentRepository"><path codeLine="207" d="M1053.35,72.75 C1050.78,182.8 1039.67,539.84 1003,574.29 C982.26,593.78 517.57,581.08 491,591.29 C462.91,602.09 441.0727,618.2109 420.2927,637.8309 " fill="none" id="Main-to-StudentRepository" style="stroke:#FFFFFF;stroke-width:1.0;stroke-dasharray:7.0,7.0;"/><polygon fill="#FFFFFF" points="415.93,641.95,425.2201,638.6798,419.5656,638.5174,419.7279,632.8629,415.93,641.95" style="stroke:#FFFFFF;stroke-width:1.0;"/><text fill="#141414" font-family="Verdana" font-size="11" lengthAdjust="spacing" textLength="150" x="1043.22" y="340.3891">creates (injects Database)</text></g><!--link Main to DashboardService--><g id="link_Main_DashboardService"><path codeLine="208" d="M1072.4,72.77 C1102.6,125.71 1164.26,234.7 1214,328.33 C1272.91,439.23 1336.0016,565.6211 1371.0716,636.5811 " fill="none" id="Main-to-DashboardService" style="stroke:#FFFFFF;stroke-width:1.0;stroke-dasharray:7.0,7.0;"/><polygon fill="#FFFFFF" points="1373.73,641.96,1373.3284,632.1193,1371.5147,637.4776,1366.1565,635.6639,1373.73,641.96" style="stroke:#FFFFFF;stroke-width:1.0;"/><text fill="#141414" font-family="Verdana" font-size="11" lengthAdjust="spacing" textLength="42" x="1222.91" y="340.3891">creates</text></g><!--link Main to DashboardController--><g id="link_Main_DashboardController"><path codeLine="209" d="M1008.68,42.59 C858.71,49.5 385.52,75.16 341,125.28 C276.44,197.95 302.5731,310.7673 332.3431,388.4573 " fill="none" id="Main-to-DashboardController" style="stroke:#FFFFFF;stroke-width:1.0;stroke-dasharray:7.0,7.0;"/><polygon fill="#FFFFFF" points="334.49,394.06,335.0048,384.2246,332.7009,389.391,327.5345,387.0872,334.49,394.06" style="stroke:#FFFFFF;stroke-width:1.0;"/><text fill="#141414" font-family="Verdana" font-size="11" lengthAdjust="spacing" textLength="219" x="342" y="237.8591">creates (injects Service+Repositories)</text></g><!--link Main to DashboardGUI--><g id="link_Main_DashboardGUI"><path codeLine="210" d="M1008.6,51.22 C970.8,61.15 916.35,78.12 873,102.28 C840.88,120.17 813.4509,140.9282 786.7509,163.9882 " fill="none" id="Main-to-DashboardGUI" style="stroke:#FFFFFF;stroke-width:1.0;stroke-dasharray:7.0,7.0;"/><polygon fill="#FFFFFF" points="782.21,167.91,791.6358,165.0545,785.9941,164.6418,786.4068,159,782.21,167.91" style="stroke:#FFFFFF;stroke-width:1.0;"/><text fill="#141414" font-family="Verdana" font-size="11" lengthAdjust="spacing" textLength="153" x="874" y="114.3391">creates (injects Controller)</text></g><!--link DashboardController to DashboardService--><g id="link_DashboardController_DashboardService"><path codeLine="212" d="M498.79,550.75 C519.34,560.23 540.82,568.57 562,574.29 C645.75,596.92 866.03,579.7 952,591.29 C1037,602.76 1123.8106,621.2293 1202.5906,640.4293 " fill="none" id="DashboardController-to-DashboardService" style="stroke:#FFFFFF;stroke-width:1.0;"/><polygon fill="#FFFFFF" points="1208.42,641.85,1200.6231,635.8327,1203.5622,640.6661,1198.7288,643.6052,1208.42,641.85" style="stroke:#FFFFFF;stroke-width:1.0;"/></g><!--link DashboardController to StudentRepository--><g id="link_DashboardController_StudentRepository"><path codeLine="213" d="M370,550.59 C370,580.8 370,608.65 370,635.8 " fill="none" id="DashboardController-to-StudentRepository" style="stroke:#FFFFFF;stroke-width:1.0;"/><polygon fill="#FFFFFF" points="370,641.8,374,632.8,370,636.8,366,632.8,370,641.8" style="stroke:#FFFFFF;stroke-width:1.0;"/></g><!--link DashboardController to ModuleRepository--><g id="link_DashboardController_ModuleRepository"><path codeLine="214" d="M286.07,550.59 C250.56,583.28 214.8646,616.1566 184.3246,644.2666 " fill="none" id="DashboardController-to-ModuleRepository" style="stroke:#FFFFFF;stroke-width:1.0;"/><polygon fill="#FFFFFF" points="179.91,648.33,189.2409,645.178,183.5889,644.9439,183.823,639.2919,179.91,648.33" style="stroke:#FFFFFF;stroke-width:1.0;"/></g><!--link DashboardController to EnrollmentRepository--><g id="link_DashboardController_EnrollmentRepository"><path codeLine="215" d="M493.61,550.59 C545.9,583.28 599.9022,617.0397 644.8722,645.1497 " fill="none" id="DashboardController-to-EnrollmentRepository" style="stroke:#FFFFFF;stroke-width:1.0;"/><polygon fill="#FFFFFF" points="649.96,648.33,644.4485,640.1677,645.7202,645.6798,640.2081,646.9514,649.96,648.33" style="stroke:#FFFFFF;stroke-width:1.0;"/></g><!--SRC=[fLZRRkCs47tNLt3ziiawzbxw9gG1ajXT17KkSB8R54KXq1BNOIEJAaabyARvzmv5IY8b-XBK3uar7CxbpF0CvVTeD1gXMxNE2Vg8PdZDIwL5qRkC_A2CeCdf_FUpsRTfz8woD2ypWgHM7XSvPgfSvT431LbAHPgJI3vILc21LoZDiPIdIWcwA1MvI3cxfJy9-XH5xxNvy0VMpZXNKWbS59Gjj-fM7j0bfWmT7tlRJavU8eI6ArWwE8pH5MSaUjMEVztqWRNBwybqjbMdmEaZNX8qkEGPoGVe9G8lLOHemhMp2ZU455yIzK04qb4WWmGW3D0nPMK8ZQGH93IB0L5HYnbU4KyW5HOgoR02iVuRsOKXE4dm4n4GKh8KE2CwrnyvnyhLK7H5aaBmfI1I9WKHAJY5BGTPAR2Yd2KhpjI3Z15bAcGWBOBR5LSuJqYgDkyaM32ILJewDD3gsYN2UFSZVuqStAPCy3nVUT1LsVeEHngQf80T9BCuzKn1sKheyiRCgdhk5a1HbViLQ9BiczHLNTzeUA3b6yE54UmiRGV39fL0PQnhwxvkfi7d0VGS6dmQZpyC7AX0nIQxJQLh1Vvv-UXOoumIQNMRXMP3PTDwYX6SSGMdGEe82IjNi0chKbfSliwdqwlgsn_JsUpwllewdqxgd0oWNpdEfqyuBoi4x5Pz1i1GR0qQcLRocc041mKQonDLIby2MhuinmkIVsvhOmHVQa4L7rveVacL4wWDRqXCmEJ0dkcuXlO8sLQ8FG2Xs_qyApCljOVN-kH28-gJuGJHArbLWIgM63rW3KtrC1wVz5qqAnR65dHzdauDbJXvMQY0P9OkMk7WhFdZVo6ihhtMquJWB8UfudhPsEwx7RdcMYVdnGrEGucubFEsZ5gJBUUVbH9SWxyPNzBKShzD4yk71SSYkoNYYQOrvmnJdASTpkwsZCU4PeD7uM_eiQuTXyd_fnN0OaVWzP58be3PtkwEKALkZiUV7_xg7HIGsTfqXgmfoGqHaaf5641kwj5MHE45bWxxPml8G_U1GyZ0O0m4_-HKaL_6v_04v5oVJms0aJIN2YkcZCA4NdJ5QSubyOIzsG5Gp4d19LLShDtOuYRYsXhEiX3chaFTneirZ9s3pkNYiDbHgvP55YAijsLWcFyj2PYH6zkT6yFt9_DXhRzdMEsGspUqif14g2vgHyYF0xhJkNWSeTwLevDF3gse4x9c0qLf8pMDlJ4xd_wTj4QZ4pURNaKwwq5eF9sW5pCqwWRgET7BJOM2BhI6S_S0jHv5-ZusBjTKiKcdukWjQyv4tFbAS7vzTJU_discy_tU2u0mbCwHY47LRvrXq2utzneJNDmBD_9U4GG06VVB4hctMAFJBOrH8GtoLYrK8tE2Xj3QMQ89ZSBL59eQUvqub32zkWqTP0_WobK1Rtu9Vz8faUT0-_UvtJfvA5N6dvdZ-dLtjRvVJE_tgzDt22TOeQ_VBkhIh33C4H4ZzJY-UupgwM3h5uUAQfGOLsJ1-IFiXArNzgc-XYmQECpwRz39f5q4UCJQNR5G2gAfvfbcG97IBmZScvuf0xIIBcyuj-gxwlvpoPckDBmWr_SHGLX6X6_GJ8QsRBe70gKA-j4iSgx1I9tRUz_BgqS06dGEmxiRP4Z7Tz0pemzvwBZ1kmdESxcZXtGJtTCAduzmjInqs2nTemlsjqteGF_QSBZTHlM3X0d4NZd0UrL0sQxrARPHGWUqyjVUMGvTcnrQ2zZU043NkhKmR6A05xsG9urhO7jh_32AGYxDLEdGsYR5FhTjqkmnt2R5CCVjAF-jPHveW7DzdD3aRFkMFTklPRJeFm00]--></g></svg>