<?xml version="1.0" encoding="us-ascii" standalone="no"?><svg xmlns="http://www.w3.org/2000/svg" xmlns:xlink="http://www.w3.org/1999/xlink" contentStyleType="text/css" height="1470px" preserveAspectRatio="none" style="width:1895px;height:1470px;background:#777777;" version="1.1" viewBox="0 0 1895 1470" width="1895px" zoomAndPan="magnify"><defs/><g><rect fill="#777777" height="1470" style="stroke:none;stroke-width:1.0;" width="1895" x="0" y="0"/><!--cluster Model--><g id="cluster_Model"><path d="M8.5,599.29 L53.5,599.29 A3.75,3.75 0 0 1 56,601.79 L63,621.7783 L1804.5,621.7783 A2.5,2.5 0 0 1 1807,624.2783 L1807,1461.47 A2.5,2.5 0 0 1 1804.5,1463.97 L8.5,1463.97 A2.5,2.5 0 0 1 6,1461.47 L6,601.79 A2.5,2.5 0 0 1 8.5,599.29 " fill="none" style="stroke:#000000;stroke-width:1.5;"/><line style="stroke:#000000;stroke-width:1.5;" x1="6" x2="63" y1="621.7783" y2="621.7783"/><text fill="#000000" font-family="sans-serif" font-size="14" font-weight="bold" lengthAdjust="spacing" textLength="44" x="10" y="614.8252">Model</text></g><!--cluster Controller--><g id="cluster_Controller"><path d="M1008.5,359.33 L1082.5,359.33 A3.75,3.75 0 0 1 1085,361.83 L1092,381.8183 L1339.5,381.8183 A2.5,2.5 0 0 1 1342,384.3183 L1342,563.79 A2.5,2.5 0 0 1 1339.5,566.29 L1008.5,566.29 A2.5,2.5 0 0 1 1006,563.79 L1006,361.83 A2.5,2.5 0 0 1 1008.5,359.33 " fill="none" style="stroke:#000000;stroke-width:1.5;"/><line style="stroke:#000000;stroke-width:1.5;" x1="1006" x2="1092" y1="381.8183" y2="381.8183"/><text fill="#000000" font-family="sans-serif" font-size="14" font-weight="bold" lengthAdjust="spacing" textLength="73" x="1010" y="374.8652">Controller</text></g><!--cluster View--><g id="cluster_View"><path d="M1368.5,133.28 L1404.5,133.28 A3.75,3.75 0 0 1 1407,135.78 L1414,155.7683 L1804.5,155.7683 A2.5,2.5 0 0 1 1807,158.2683 L1807,518.45 A2.5,2.5 0 0 1 1804.5,520.95 L1368.5,520.95 A2.5,2.5 0 0 1 1366,518.45 L1366,135.78 A2.5,2.5 0 0 1 1368.5,133.28 " fill="none" style="stroke:#000000;stroke-width:1.5;"/><line style="stroke:#000000;stroke-width:1.5;" x1="1366" x2="1414" y1="155.7683" y2="155.7683"/><text fill="#000000" font-family="sans-serif" font-size="14" font-weight="bold" lengthAdjust="spacing" textLength="35" x="1370" y="148.8152">View</text></g><!--class Student--><g id="elem_Student"><rect codeLine="21" fill="#2E2E2E" height="143.0093" id="Student" rx="2.5" ry="2.5" style="stroke:#FFFFFF;stroke-width:0.5;" width="339" x="734.5" y="799.44"/><text fill="#AAAAAA" font-family="Verdana" font-size="11" lengthAdjust="spacing" textLength="44" x="882" y="815.4991">Student</text><line style="stroke:#FFFFFF;stroke-width:0.5;" x1="735.5" x2="1072.5" y1="822.8087" y2="822.8087"/><text fill="#AAAAAA" font-family="sans-serif" font-size="11" lengthAdjust="spacing" textLength="84" x="740.5" y="837.4434">-student_id: str</text><text fill="#AAAAAA" font-family="sans-serif" font-size="11" lengthAdjust="spacing" textLength="56" x="740.5" y="850.3985">-name: str</text><text fill="#AAAAAA" font-family="sans-serif" font-size="11" lengthAdjust="spacing" textLength="89" x="740.5" y="863.3536">-start_date: date</text><line style="stroke:#FFFFFF;stroke-width:0.5;" x1="735.5" x2="1072.5" y1="869.6739" y2="869.6739"/><text fill="#AAAAAA" font-family="sans-serif" font-size="11" lengthAdjust="spacing" textLength="149" x="740.5" y="884.3087">+get_average_grade(): float</text><text fill="#AAAAAA" font-family="sans-serif" font-size="11" lengthAdjust="spacing" textLength="327" x="740.5" y="897.2637">+get_time_progress_percentage(duration_months: int): float</text><text fill="#AAAAAA" font-family="sans-serif" font-size="11" lengthAdjust="spacing" textLength="276" x="740.5" y="910.2188">+get_cp_progress_percentage(total_ects: int): float</text><text fill="#AAAAAA" font-family="sans-serif" font-size="11" lengthAdjust="spacing" textLength="125" x="740.5" y="923.1739">+get_earned_ects(): int</text><text fill="#AAAAAA" font-family="sans-serif" font-size="11" lengthAdjust="spacing" textLength="148" x="740.5" y="936.129">+get_cp_per_month(): float</text></g><!--class Enrollment--><g id="elem_Enrollment"><rect codeLine="33" fill="#2E2E2E" height="65.2788" id="Enrollment" rx="2.5" ry="2.5" style="stroke:#FFFFFF;stroke-width:0.5;" width="114" x="946" y="1374.69"/><text fill="#AAAAAA" font-family="Verdana" font-size="11" lengthAdjust="spacing" textLength="61" x="972.5" y="1390.7491">Enrollment</text><line style="stroke:#FFFFFF;stroke-width:0.5;" x1="947" x2="1059" y1="1398.0587" y2="1398.0587"/><text fill="#AAAAAA" font-family="sans-serif" font-size="11" lengthAdjust="spacing" textLength="67" x="952" y="1412.6934">-grade: float</text><text fill="#AAAAAA" font-family="sans-serif" font-size="11" lengthAdjust="spacing" textLength="102" x="952" y="1425.6485">-date_passed: date</text><line style="stroke:#FFFFFF;stroke-width:0.5;" x1="947" x2="1059" y1="1431.9688" y2="1431.9688"/></g><!--class Module--><g id="elem_Module"><rect codeLine="38" fill="#2E2E2E" height="78.2339" id="Module" rx="2.5" ry="2.5" style="stroke:#FFFFFF;stroke-width:0.5;" width="95" x="955.5" y="1209.55"/><text fill="#AAAAAA" font-family="Verdana" font-size="11" lengthAdjust="spacing" textLength="40" x="983" y="1225.6091">Module</text><line style="stroke:#FFFFFF;stroke-width:0.5;" x1="956.5" x2="1049.5" y1="1232.9187" y2="1232.9187"/><text fill="#AAAAAA" font-family="sans-serif" font-size="11" lengthAdjust="spacing" textLength="83" x="961.5" y="1247.5534">-module_id: str</text><text fill="#AAAAAA" font-family="sans-serif" font-size="11" lengthAdjust="spacing" textLength="47" x="961.5" y="1260.5085">-title: str</text><text fill="#AAAAAA" font-family="sans-serif" font-size="11" lengthAdjust="spacing" textLength="48" x="961.5" y="1273.4636">-ects: int</text><line style="stroke:#FFFFFF;stroke-width:0.5;" x1="956.5" x2="1049.5" y1="1279.7839" y2="1279.7839"/></g><!--class StudyProgram--><g id="elem_StudyProgram"><rect codeLine="44" fill="#2E2E2E" height="91.189" id="StudyProgram" rx="2.5" ry="2.5" style="stroke:#FFFFFF;stroke-width:0.5;" width="131" x="923.5" y="1017.45"/><text fill="#AAAAAA" font-family="Verdana" font-size="11" lengthAdjust="spacing" textLength="82" x="948" y="1033.5091">StudyProgram</text><line style="stroke:#FFFFFF;stroke-width:0.5;" x1="924.5" x2="1053.5" y1="1040.8187" y2="1040.8187"/><text fill="#AAAAAA" font-family="sans-serif" font-size="11" lengthAdjust="spacing" textLength="90" x="929.5" y="1055.4534">-program_id: str</text><text fill="#AAAAAA" font-family="sans-serif" font-size="11" lengthAdjust="spacing" textLength="56" x="929.5" y="1068.4085">-name: str</text><text fill="#AAAAAA" font-family="sans-serif" font-size="11" lengthAdjust="spacing" textLength="78" x="929.5" y="1081.3636">-total_ects: int</text><text fill="#AAAAAA" font-family="sans-serif" font-size="11" lengthAdjust="spacing" textLength="119" x="929.5" y="1094.3187">-duration_months: int</text><line style="stroke:#FFFFFF;stroke-width:0.5;" x1="924.5" x2="1053.5" y1="1100.639" y2="1100.639"/></g><!--class Status--><g id="elem_Status"><rect codeLine="57" fill="#2E2E2E" height="78.2339" id="Status" rx="2.5" ry="2.5" style="stroke:#FFFFFF;stroke-width:0.5;" width="55" x="663.5" y="1209.55"/><text fill="#AAAAAA" font-family="Verdana" font-size="11" lengthAdjust="spacing" textLength="36" x="673" y="1225.6091">Status</text><line style="stroke:#FFFFFF;stroke-width:0.5;" x1="664.5" x2="717.5" y1="1232.9187" y2="1232.9187"/><text fill="#AAAAAA" font-family="sans-serif" font-size="11" lengthAdjust="spacing" textLength="35" x="669.5" y="1247.5534">GREEN</text><text fill="#AAAAAA" font-family="sans-serif" font-size="11" lengthAdjust="spacing" textLength="43" x="669.5" y="1260.5085">YELLOW</text><text fill="#AAAAAA" font-family="sans-serif" font-size="11" lengthAdjust="spacing" textLength="21" x="669.5" y="1273.4636">RED</text><line style="stroke:#FFFFFF;stroke-width:0.5;" x1="664.5" x2="717.5" y1="1279.7839" y2="1279.7839"/></g><!--class GoalEvaluation--><g id="elem_GoalEvaluation"><rect codeLine="63" fill="#2E2E2E" height="130.0542" id="GoalEvaluation" rx="2.5" ry="2.5" style="stroke:#FFFFFF;stroke-width:0.5;" width="91" x="22.5" y="1183.64"/><text fill="#AAAAAA" font-family="Verdana" font-size="11" lengthAdjust="spacing" textLength="85" x="25.5" y="1199.6991">GoalEvaluation</text><line style="stroke:#FFFFFF;stroke-width:0.5;" x1="23.5" x2="112.5" y1="1207.0087" y2="1207.0087"/><text fill="#AAAAAA" font-family="sans-serif" font-size="11" lengthAdjust="spacing" textLength="78" x="28.5" y="1221.6434">-status: Status</text><text fill="#AAAAAA" font-family="sans-serif" font-size="11" lengthAdjust="spacing" textLength="64" x="28.5" y="1234.5985">-value: float</text><text fill="#AAAAAA" font-family="sans-serif" font-size="11" lengthAdjust="spacing" textLength="68" x="28.5" y="1247.5536">-target: float</text><text fill="#AAAAAA" font-family="sans-serif" font-size="11" lengthAdjust="spacing" textLength="71" x="28.5" y="1260.5087">-value2: float</text><text fill="#AAAAAA" font-family="sans-serif" font-size="11" lengthAdjust="spacing" textLength="75" x="28.5" y="1273.4637">-target2: float</text><text fill="#AAAAAA" font-family="sans-serif" font-size="11" lengthAdjust="spacing" textLength="59" x="28.5" y="1286.4188">-label1: str</text><text fill="#AAAAAA" font-family="sans-serif" font-size="11" lengthAdjust="spacing" textLength="59" x="28.5" y="1299.3739">-label2: str</text><line style="stroke:#FFFFFF;stroke-width:0.5;" x1="23.5" x2="112.5" y1="1305.6942" y2="1305.6942"/></g><!--class Goal--><g id="elem_Goal"><rect codeLine="73" fill="#2E2E2E" height="65.2788" id="Goal" rx="2.5" ry="2.5" style="stroke:#FFFFFF;stroke-width:0.5;" width="381" x="337.5" y="1030.4"/><text fill="#AAAAAA" font-family="Verdana" font-size="11" font-style="italic" lengthAdjust="spacing" textLength="26" x="515" y="1046.4591">Goal</text><line style="stroke:#FFFFFF;stroke-width:0.5;" x1="338.5" x2="717.5" y1="1053.7687" y2="1053.7687"/><line style="stroke:#FFFFFF;stroke-width:0.5;" x1="338.5" x2="717.5" y1="1061.7687" y2="1061.7687"/><text fill="#AAAAAA" font-family="sans-serif" font-size="11" lengthAdjust="spacing" textLength="369" x="343.5" y="1076.4034">+evaluate(student: Student, program: StudyProgram): GoalEvaluation</text><text fill="#AAAAAA" font-family="sans-serif" font-size="11" font-style="italic" lengthAdjust="spacing" textLength="81" x="343.5" y="1089.3585">+get_title(): str</text></g><!--class GradeAverageGoal--><g id="elem_GradeAverageGoal"><rect codeLine="82" fill="#2E2E2E" height="65.2788" id="GradeAverageGoal" rx="2.5" ry="2.5" style="stroke:#FFFFFF;stroke-width:0.5;" width="115" x="148.5" y="1216.02"/><text fill="#AAAAAA" font-family="Verdana" font-size="11" lengthAdjust="spacing" textLength="109" x="151.5" y="1232.0791">GradeAverageGoal</text><line style="stroke:#FFFFFF;stroke-width:0.5;" x1="149.5" x2="262.5" y1="1239.3887" y2="1239.3887"/><text fill="#AAAAAA" font-family="sans-serif" font-size="11" lengthAdjust="spacing" textLength="93" x="154.5" y="1254.0234">-target_avg: float</text><line style="stroke:#FFFFFF;stroke-width:0.5;" x1="149.5" x2="262.5" y1="1260.3437" y2="1260.3437"/><text fill="#AAAAAA" font-family="sans-serif" font-size="11" lengthAdjust="spacing" textLength="81" x="154.5" y="1274.9785">+get_title(): str</text></g><!--class DeadlineGoal--><g id="elem_DeadlineGoal"><rect codeLine="88" fill="#2E2E2E" height="65.2788" id="DeadlineGoal" rx="2.5" ry="2.5" style="stroke:#FFFFFF;stroke-width:0.5;" width="131" x="298.5" y="1216.02"/><text fill="#AAAAAA" font-family="Verdana" font-size="11" lengthAdjust="spacing" textLength="75" x="326.5" y="1232.0791">DeadlineGoal</text><line style="stroke:#FFFFFF;stroke-width:0.5;" x1="299.5" x2="428.5" y1="1239.3887" y2="1239.3887"/><text fill="#AAAAAA" font-family="sans-serif" font-size="11" lengthAdjust="spacing" textLength="119" x="304.5" y="1254.0234">-duration_months: int</text><line style="stroke:#FFFFFF;stroke-width:0.5;" x1="299.5" x2="428.5" y1="1260.3437" y2="1260.3437"/><text fill="#AAAAAA" font-family="sans-serif" font-size="11" lengthAdjust="spacing" textLength="81" x="304.5" y="1274.9785">+get_title(): str</text></g><!--class CpPaceGoal--><g id="elem_CpPaceGoal"><rect codeLine="94" fill="#2E2E2E" height="65.2788" id="CpPaceGoal" rx="2.5" ry="2.5" style="stroke:#FFFFFF;stroke-width:0.5;" width="164" x="464" y="1216.02"/><text fill="#AAAAAA" font-family="Verdana" font-size="11" lengthAdjust="spacing" textLength="68" x="512" y="1232.0791">CpPaceGoal</text><line style="stroke:#FFFFFF;stroke-width:0.5;" x1="465" x2="627" y1="1239.3887" y2="1239.3887"/><text fill="#AAAAAA" font-family="sans-serif" font-size="11" lengthAdjust="spacing" textLength="152" x="470" y="1254.0234">-target_cp_per_month: float</text><line style="stroke:#FFFFFF;stroke-width:0.5;" x1="465" x2="627" y1="1260.3437" y2="1260.3437"/><text fill="#AAAAAA" font-family="sans-serif" font-size="11" lengthAdjust="spacing" textLength="81" x="470" y="1274.9785">+get_title(): str</text></g><!--class DashboardService--><g id="elem_DashboardService"><rect codeLine="101" fill="#2E2E2E" height="104.144" id="DashboardService" rx="2.5" ry="2.5" style="stroke:#FFFFFF;stroke-width:0.5;" width="507" x="430.5" y="634.29"/><text fill="#AAAAAA" font-family="Verdana" font-size="11" lengthAdjust="spacing" textLength="104" x="632" y="650.3491">DashboardService</text><line style="stroke:#FFFFFF;stroke-width:0.5;" x1="431.5" x2="936.5" y1="657.6587" y2="657.6587"/><line style="stroke:#FFFFFF;stroke-width:0.5;" x1="431.5" x2="936.5" y1="665.6587" y2="665.6587"/><text fill="#AAAAAA" font-family="sans-serif" font-size="11" lengthAdjust="spacing" textLength="241" x="436.5" y="680.2934">+calc_average_grade(student: Student): float</text><text fill="#AAAAAA" font-family="sans-serif" font-size="11" lengthAdjust="spacing" textLength="375" x="436.5" y="693.2485">+calc_time_progress(student: Student, program: StudyProgram): float</text><text fill="#AAAAAA" font-family="sans-serif" font-size="11" lengthAdjust="spacing" textLength="365" x="436.5" y="706.2036">+calc_cp_progress(student: Student, program: StudyProgram): float</text><text fill="#AAAAAA" font-family="sans-serif" font-size="11" lengthAdjust="spacing" textLength="206" x="436.5" y="719.1587">+calc_cp_pace(student: Student): float</text><text fill="#AAAAAA" font-family="sans-serif" font-size="11" lengthAdjust="spacing" textLength="495" x="436.5" y="732.1137">+evaluate_goals(student: Student, program: StudyProgram, goals: Goal[*]): GoalEvaluation[*]</text></g><!--class Database--><g id="elem_Database"><rect codeLine="110" fill="#2E2E2E" height="104.144" id="Database" rx="2.5" ry="2.5" style="stroke:#FFFFFF;stroke-width:0.5;" width="152" x="1240" y="1196.59"/><text fill="#AAAAAA" font-family="Verdana" font-size="11" lengthAdjust="spacing" textLength="53" x="1289.5" y="1212.6491">Database</text><line style="stroke:#FFFFFF;stroke-width:0.5;" x1="1241" x2="1391" y1="1219.9587" y2="1219.9587"/><text fill="#AAAAAA" font-family="sans-serif" font-size="11" lengthAdjust="spacing" textLength="71" x="1246" y="1234.5934">-db_path: str</text><text fill="#AAAAAA" font-family="sans-serif" font-size="11" lengthAdjust="spacing" textLength="140" x="1246" y="1247.5485">-conn: sqlite3.Connection</text><line style="stroke:#FFFFFF;stroke-width:0.5;" x1="1241" x2="1391" y1="1253.8688" y2="1253.8688"/><text fill="#AAAAAA" font-family="sans-serif" font-size="11" lengthAdjust="spacing" textLength="94" x="1246" y="1268.5036">+connect(): None</text><text fill="#AAAAAA" font-family="sans-serif" font-size="11" lengthAdjust="spacing" textLength="88" x="1246" y="1281.4587">+init_db(): None</text><text fill="#AAAAAA" font-family="sans-serif" font-size="11" lengthAdjust="spacing" textLength="79" x="1246" y="1294.4137">+close(): None</text></g><!--class StudentRepository--><g id="elem_StudentRepository"><rect codeLine="118" fill="#2E2E2E" height="104.144" id="StudentRepository" rx="2.5" ry="2.5" style="stroke:#FFFFFF;stroke-width:0.5;" width="206" x="973" y="634.29"/><text fill="#AAAAAA" font-family="Verdana" font-size="11" lengthAdjust="spacing" textLength="105" x="1023.5" y="650.3491">StudentRepository</text><line style="stroke:#FFFFFF;stroke-width:0.5;" x1="974" x2="1178" y1="657.6587" y2="657.6587"/><text fill="#AAAAAA" font-family="sans-serif" font-size="11" lengthAdjust="spacing" textLength="75" x="979" y="672.2934">-db: Database</text><line style="stroke:#FFFFFF;stroke-width:0.5;" x1="974" x2="1178" y1="678.6137" y2="678.6137"/><text fill="#AAAAAA" font-family="sans-serif" font-size="11" lengthAdjust="spacing" textLength="159" x="979" y="693.2485">+add(student: Student): None</text><text fill="#AAAAAA" font-family="sans-serif" font-size="11" lengthAdjust="spacing" textLength="194" x="979" y="706.2036">+get_by_id(student_id: str): Student</text><text fill="#AAAAAA" font-family="sans-serif" font-size="11" lengthAdjust="spacing" textLength="176" x="979" y="719.1587">+update(student: Student): None</text><text fill="#AAAAAA" font-family="sans-serif" font-size="11" lengthAdjust="spacing" textLength="79" x="979" y="732.1137">+close(): None</text></g><!--class ModuleRepository--><g id="elem_ModuleRepository"><rect codeLine="126" fill="#2E2E2E" height="91.189" id="ModuleRepository" rx="2.5" ry="2.5" style="stroke:#FFFFFF;stroke-width:0.5;" width="203" x="1125.5" y="1017.45"/><text fill="#AAAAAA" font-family="Verdana" font-size="11" lengthAdjust="spacing" textLength="101" x="1176.5" y="1033.5091">ModuleRepository</text><line style="stroke:#FFFFFF;stroke-width:0.5;" x1="1126.5" x2="1327.5" y1="1040.8187" y2="1040.8187"/><text fill="#AAAAAA" font-family="sans-serif" font-size="11" lengthAdjust="spacing" textLength="75" x="1131.5" y="1055.4534">-db: Database</text><line style="stroke:#FFFFFF;stroke-width:0.5;" x1="1126.5" x2="1327.5" y1="1061.7737" y2="1061.7737"/><text fill="#AAAAAA" font-family="sans-serif" font-size="11" lengthAdjust="spacing" textLength="156" x="1131.5" y="1076.4085">+add(module: Module): None</text><text fill="#AAAAAA" font-family="sans-serif" font-size="11" lengthAdjust="spacing" textLength="191" x="1131.5" y="1089.3636">+get_by_id(module_id: str): Module</text><text fill="#AAAAAA" font-family="sans-serif" font-size="11" lengthAdjust="spacing" textLength="79" x="1131.5" y="1102.3187">+close(): None</text></g><!--class EnrollmentRepository--><g id="elem_EnrollmentRepository"><rect codeLine="133" fill="#2E2E2E" height="91.189" id="EnrollmentRepository" rx="2.5" ry="2.5" style="stroke:#FFFFFF;stroke-width:0.5;" width="428" x="1363" y="1017.45"/><text fill="#AAAAAA" font-family="Verdana" font-size="11" lengthAdjust="spacing" textLength="122" x="1516" y="1033.5091">EnrollmentRepository</text><line style="stroke:#FFFFFF;stroke-width:0.5;" x1="1364" x2="1790" y1="1040.8187" y2="1040.8187"/><text fill="#AAAAAA" font-family="sans-serif" font-size="11" lengthAdjust="spacing" textLength="75" x="1369" y="1055.4534">-db: Database</text><line style="stroke:#FFFFFF;stroke-width:0.5;" x1="1364" x2="1790" y1="1061.7737" y2="1061.7737"/><text fill="#AAAAAA" font-family="sans-serif" font-size="11" lengthAdjust="spacing" textLength="416" x="1369" y="1076.4085">+upsert(student_id: str, module_id: str, grade: float, date_passed: date): None</text><text fill="#AAAAAA" font-family="sans-serif" font-size="11" lengthAdjust="spacing" textLength="254" x="1369" y="1089.3636">+list_by_student(student_id: str): Enrollment[*]</text><text fill="#AAAAAA" font-family="sans-serif" font-size="11" lengthAdjust="spacing" textLength="79" x="1369" y="1102.3187">+close(): None</text></g><!--class DashboardController--><g id="elem_DashboardController"><rect codeLine="158" fill="#2E2E2E" height="155.9644" id="DashboardController" rx="2.5" ry="2.5" style="stroke:#FFFFFF;stroke-width:0.5;" width="305" x="1021.5" y="394.33"/><text fill="#AAAAAA" font-family="Verdana" font-size="11" lengthAdjust="spacing" textLength="117" x="1115.5" y="410.3891">DashboardController</text><line style="stroke:#FFFFFF;stroke-width:0.5;" x1="1022.5" x2="1325.5" y1="417.6987" y2="417.6987"/><text fill="#AAAAAA" font-family="sans-serif" font-size="11" lengthAdjust="spacing" textLength="147" x="1027.5" y="432.3334">-service: DashboardService</text><text fill="#AAAAAA" font-family="sans-serif" font-size="11" lengthAdjust="spacing" textLength="183" x="1027.5" y="445.2885">-student_repo: StudentRepository</text><text fill="#AAAAAA" font-family="sans-serif" font-size="11" lengthAdjust="spacing" textLength="180" x="1027.5" y="458.2436">-module_repo: ModuleRepository</text><text fill="#AAAAAA" font-family="sans-serif" font-size="11" lengthAdjust="spacing" textLength="217" x="1027.5" y="471.1987">-enrollment_repo: EnrollmentRepository</text><line style="stroke:#FFFFFF;stroke-width:0.5;" x1="1022.5" x2="1325.5" y1="477.519" y2="477.519"/><text fill="#AAAAAA" font-family="sans-serif" font-size="11" lengthAdjust="spacing" textLength="138" x="1027.5" y="492.1537">+load_initial_data(): None</text><text fill="#AAAAAA" font-family="sans-serif" font-size="11" lengthAdjust="spacing" textLength="210" x="1027.5" y="505.1088">+save_student(student: Student): None</text><text fill="#AAAAAA" font-family="sans-serif" font-size="11" lengthAdjust="spacing" textLength="293" x="1027.5" y="518.0639">+compute_overview(student_id: str): GoalEvaluation[*]</text><text fill="#AAAAAA" font-family="sans-serif" font-size="11" lengthAdjust="spacing" textLength="3" x="1027.5" y="531.019">&#160;</text><text fill="#AAAAAA" font-family="sans-serif" font-size="11" lengthAdjust="spacing" textLength="104" x="1027.5" y="543.974">+shutdown(): None</text></g><!--class DashboardGUI--><g id="elem_DashboardGUI"><rect codeLine="176" fill="#2E2E2E" height="130.0542" id="DashboardGUI" rx="2.5" ry="2.5" style="stroke:#FFFFFF;stroke-width:0.5;" width="191" x="1385.5" y="168.28"/><text fill="#AAAAAA" font-family="Verdana" font-size="11" lengthAdjust="spacing" textLength="83" x="1439.5" y="184.3391">DashboardGUI</text><line style="stroke:#FFFFFF;stroke-width:0.5;" x1="1386.5" x2="1575.5" y1="191.6487" y2="191.6487"/><text fill="#AAAAAA" font-family="sans-serif" font-size="11" lengthAdjust="spacing" textLength="75" x="1391.5" y="206.2834">-master: tk.Tk</text><text fill="#AAAAAA" font-family="sans-serif" font-size="11" lengthAdjust="spacing" textLength="179" x="1391.5" y="219.2385">-controller: DashboardController</text><text fill="#AAAAAA" font-family="sans-serif" font-size="11" lengthAdjust="spacing" textLength="132" x="1391.5" y="232.1936">-notebook: ttk.Notebook</text><text fill="#AAAAAA" font-family="sans-serif" font-size="11" lengthAdjust="spacing" textLength="132" x="1391.5" y="245.1487">-tab_overview: ttk.Frame</text><text fill="#AAAAAA" font-family="sans-serif" font-size="11" lengthAdjust="spacing" textLength="113" x="1391.5" y="258.1037">-tab_entry: ttk.Frame</text><line style="stroke:#FFFFFF;stroke-width:0.5;" x1="1386.5" x2="1575.5" y1="264.424" y2="264.424"/><text fill="#AAAAAA" font-family="sans-serif" font-size="11" lengthAdjust="spacing" textLength="131" x="1391.5" y="279.0588">+create_widgets(): None</text><text fill="#AAAAAA" font-family="sans-serif" font-size="11" lengthAdjust="spacing" textLength="145" x="1391.5" y="292.0139">+on_window_close(): None</text></g><!--class TargetMonitoring--><g id="elem_TargetMonitoring"><rect codeLine="187" fill="#2E2E2E" height="65.2788" id="TargetMonitoring" rx="2.5" ry="2.5" style="stroke:#FFFFFF;stroke-width:0.5;" width="274" x="1382" y="439.67"/><text fill="#AAAAAA" font-family="Verdana" font-size="11" lengthAdjust="spacing" textLength="96" x="1471" y="455.7291">TargetMonitoring</text><line style="stroke:#FFFFFF;stroke-width:0.5;" x1="1383" x2="1655" y1="463.0387" y2="463.0387"/><line style="stroke:#FFFFFF;stroke-width:0.5;" x1="1383" x2="1655" y1="471.0387" y2="471.0387"/><text fill="#AAAAAA" font-family="sans-serif" font-size="11" lengthAdjust="spacing" textLength="87" x="1388" y="485.6734">+render(): None</text><text fill="#AAAAAA" font-family="sans-serif" font-size="11" lengthAdjust="spacing" textLength="262" x="1388" y="498.6285">+update_overview(data: GoalEvaluation[*]): None</text></g><!--class DataCollection--><g id="elem_DataCollection"><rect codeLine="192" fill="#2E2E2E" height="52.3237" id="DataCollection" rx="2.5" ry="2.5" style="stroke:#FFFFFF;stroke-width:0.5;" width="99" x="1691.5" y="446.15"/><text fill="#AAAAAA" font-family="Verdana" font-size="11" lengthAdjust="spacing" textLength="81" x="1700.5" y="462.2091">DataCollection</text><line style="stroke:#FFFFFF;stroke-width:0.5;" x1="1692.5" x2="1789.5" y1="469.5187" y2="469.5187"/><line style="stroke:#FFFFFF;stroke-width:0.5;" x1="1692.5" x2="1789.5" y1="477.5187" y2="477.5187"/><text fill="#AAAAAA" font-family="sans-serif" font-size="11" lengthAdjust="spacing" textLength="87" x="1697.5" y="492.1534">+render(): None</text></g><!--class Main--><g id="elem_Main"><rect codeLine="10" fill="#2E2E2E" height="65.2788" id="Main" rx="2.5" ry="2.5" style="stroke:#FFFFFF;stroke-width:0.5;" width="90" x="1084" y="7"/><text fill="#AAAAAA" font-family="sans-serif" font-size="11" font-style="italic" lengthAdjust="spacing" textLength="88" x="1085" y="22.6348">&#171;Bootstrapping&#187;</text><text fill="#AAAAAA" font-family="Verdana" font-size="11" lengthAdjust="spacing" textLength="26" x="1116" y="36.0142">Main</text><line style="stroke:#FFFFFF;stroke-width:0.5;" x1="1085" x2="1173" y1="43.3237" y2="43.3237"/><line style="stroke:#FFFFFF;stroke-width:0.5;" x1="1085" x2="1173" y1="51.3237" y2="51.3237"/><text fill="#AAAAAA" font-family="sans-serif" font-size="11" lengthAdjust="spacing" textLength="77" x="1090" y="65.9585">+main(): None</text></g><!--link Student to Enrollment--><g id="link_Student_Enrollment"><path codeLine="52" d="M896.68,942.61 C890.2,1032.39 888.3,1190.46 938,1313.69 C946.89,1335.74 961.9,1357.64 975.25,1374.61 " fill="none" id="Student-Enrollment" style="stroke:#FFFFFF;stroke-width:1.0;"/><text fill="#141414" font-family="Verdana" font-size="11" lengthAdjust="spacing" textLength="7" x="888.5642" y="961.7489">1</text><text fill="#141414" font-family="Verdana" font-size="11" lengthAdjust="spacing" textLength="22" x="945.2578" y="1364.6181">0..*</text></g><!--link Module to Enrollment--><g id="link_Module_Enrollment"><path codeLine="53" d="M1003,1287.99 C1003,1314.44 1003,1349.21 1003,1374.21 " fill="none" id="Module-Enrollment" style="stroke:#FFFFFF;stroke-width:1.0;"/><text fill="#141414" font-family="Verdana" font-size="11" lengthAdjust="spacing" textLength="7" x="995.3984" y="1306.9566">1</text><text fill="#141414" font-family="Verdana" font-size="11" lengthAdjust="spacing" textLength="22" x="978.7313" y="1364.1356">0..*</text></g><!--link Student to StudyProgram--><g id="link_Student_StudyProgram"><path codeLine="54" d="M912.33,942.76 C915.69,957.96 920.4,973.61 927,987.45 C931.93,997.78 938.61,1007.89 945.77,1017.16 " fill="none" id="Student-StudyProgram" style="stroke:#FFFFFF;stroke-width:1.0;"/><text fill="#141414" font-family="Verdana" font-size="11" lengthAdjust="spacing" textLength="40" x="928" y="984.5091">studies</text><text fill="#141414" font-family="Verdana" font-size="11" lengthAdjust="spacing" textLength="7" x="905.8055" y="961.5464">1</text><text fill="#141414" font-family="Verdana" font-size="11" lengthAdjust="spacing" textLength="7" x="931.6145" y="1007.2259">1</text></g><!--link StudyProgram to Module--><g id="link_StudyProgram_Module"><path codeLine="55" d="M962.21,1109.01 C956.74,1123.1 953.57,1138.83 957,1153.64 C961.47,1172.94 970.47,1192.85 979.34,1209.35 " fill="none" id="StudyProgram-Module" style="stroke:#FFFFFF;stroke-width:1.0;"/><text fill="#141414" font-family="Verdana" font-size="11" lengthAdjust="spacing" textLength="47" x="958" y="1150.6991">contains</text><text fill="#141414" font-family="Verdana" font-size="11" lengthAdjust="spacing" textLength="7" x="950.7612" y="1127.802">1</text><text fill="#141414" font-family="Verdana" font-size="11" lengthAdjust="spacing" textLength="22" x="951.1662" y="1199.2808">1..*</text></g><!--link Student to Goal--><g id="link_Student_Goal"><path codeLine="78" d="M763.72,942.86 C704.46,972.83 638.41,1006.22 591.34,1030.02 " fill="none" id="Student-Goal" style="stroke:#FFFFFF;stroke-width:1.0;"/><text fill="#141414" font-family="Verdana" font-size="11" lengthAdjust="spacing" textLength="20" x="705.73" y="984.5091">has</text><text fill="#141414" font-family="Verdana" font-size="11" lengthAdjust="spacing" textLength="7" x="743.016" y="961.4106">1</text><text fill="#141414" font-family="Verdana" font-size="11" lengthAdjust="spacing" textLength="22" x="580.1351" y="1019.9662">1..*</text></g><!--link Goal to GoalEvaluation--><g id="link_Goal_GoalEvaluation"><path codeLine="79" d="M355.53,1096.07 C282.75,1114.51 199.25,1142.44 131,1183.64 C125.13,1187.18 124.0082,1187.5456 118.5682,1192.1056 " fill="none" id="Goal-to-GoalEvaluation" style="stroke:#FFFFFF;stroke-width:1.0;stroke-dasharray:7.0,7.0;"/><polygon fill="#FFFFFF" points="113.97,1195.96,123.4369,1193.2439,117.8019,1192.748,118.2977,1187.1129,113.97,1195.96" style="stroke:#FFFFFF;stroke-width:1.0;"/></g><!--link Goal to Status--><g id="link_Goal_Status"><path codeLine="80" d="M562.61,1096.15 C586.99,1119.46 619.83,1152.29 646,1183.64 C652.7,1191.67 655.9733,1195.77 662.1233,1204.42 " fill="none" id="Goal-to-Status" style="stroke:#FFFFFF;stroke-width:1.0;stroke-dasharray:7.0,7.0;"/><polygon fill="#FFFFFF" points="665.6,1209.31,663.6449,1199.6571,662.7027,1205.235,657.1249,1204.2928,665.6,1209.31" style="stroke:#FFFFFF;stroke-width:1.0;"/></g><!--reverse link Goal to GradeAverageGoal--><g id="link_Goal_GradeAverageGoal"><path codeLine="86" d="M432.5269,1103.2766 C382.6269,1125.0066 334.25,1148.85 281,1183.64 C266.67,1193 252.09,1204.82 239.64,1215.75 " fill="none" id="Goal-backto-GradeAverageGoal" style="stroke:#FFFFFF;stroke-width:1.0;"/><polygon fill="none" points="449.03,1096.09,430.1314,1097.7756,434.9224,1108.7777,449.03,1096.09" style="stroke:#FFFFFF;stroke-width:1.0;"/></g><!--reverse link Goal to DeadlineGoal--><g id="link_Goal_DeadlineGoal"><path codeLine="92" d="M487.4395,1109.4549 C457.4295,1143.0549 422.5,1182.16 392.51,1215.74 " fill="none" id="Goal-backto-DeadlineGoal" style="stroke:#FFFFFF;stroke-width:1.0;"/><polygon fill="none" points="499.43,1096.03,482.9645,1105.4581,491.9145,1113.4517,499.43,1096.03" style="stroke:#FFFFFF;stroke-width:1.0;"/></g><!--reverse link Goal to CpPaceGoal--><g id="link_Goal_CpPaceGoal"><path codeLine="98" d="M532.8941,1113.9443 C536.1841,1147.5443 539.58,1182.16 542.87,1215.74 " fill="none" id="Goal-backto-CpPaceGoal" style="stroke:#FFFFFF;stroke-width:1.0;"/><polygon fill="none" points="531.14,1096.03,526.9227,1114.529,538.8656,1113.3596,531.14,1096.03" style="stroke:#FFFFFF;stroke-width:1.0;"/></g><!--link StudentRepository to Database--><g id="link_StudentRepository_Database"><path codeLine="140" d="M1083.11,738.91 C1085.23,755.64 1087.42,774.3 1089,791.44 C1092.25,826.6 1090.43,1078.01 1108,1108.64 C1137.06,1159.31 1187.6009,1192.5028 1234.1609,1215.0728 " fill="none" id="StudentRepository-to-Database" style="stroke:#FFFFFF;stroke-width:1.0;"/><polygon fill="#FFFFFF" points="1239.56,1217.69,1233.2062,1210.1648,1235.0608,1215.509,1229.7166,1217.3636,1239.56,1217.69" style="stroke:#FFFFFF;stroke-width:1.0;"/></g><!--link ModuleRepository to Database--><g id="link_ModuleRepository_Database"><path codeLine="141" d="M1248.77,1108.96 C1261.59,1135.4 1275.2238,1163.5304 1288.5338,1191.0004 " fill="none" id="ModuleRepository-to-Database" style="stroke:#FFFFFF;stroke-width:1.0;"/><polygon fill="#FFFFFF" points="1291.15,1196.4,1290.8253,1186.5565,1288.9698,1191.9004,1283.6259,1190.0448,1291.15,1196.4" style="stroke:#FFFFFF;stroke-width:1.0;"/></g><!--link EnrollmentRepository to Database--><g id="link_EnrollmentRepository_Database"><path codeLine="142" d="M1513.15,1108.96 C1475.57,1135.4 1432.8274,1165.4778 1393.7774,1192.9478 " fill="none" id="EnrollmentRepository-to-Database" style="stroke:#FFFFFF;stroke-width:1.0;"/><polygon fill="#FFFFFF" points="1388.87,1196.4,1398.5325,1194.4934,1392.9595,1193.5232,1393.9297,1187.9502,1388.87,1196.4" style="stroke:#FFFFFF;stroke-width:1.0;"/></g><!--link StudentRepository to Student--><g id="link_StudentRepository_Student"><path codeLine="144" d="M1027.63,738.71 C1009.94,757.48 993.7252,774.7036 974.7252,794.8636 " fill="none" id="StudentRepository-to-Student" style="stroke:#FFFFFF;stroke-width:1.0;stroke-dasharray:7.0,7.0;"/><polygon fill="#FFFFFF" points="970.61,799.23,979.6937,795.4238,974.0393,795.5913,973.8718,789.937,970.61,799.23" style="stroke:#FFFFFF;stroke-width:1.0;"/></g><!--link ModuleRepository to Module--><g id="link_ModuleRepository_Module"><path codeLine="145" d="M1151.87,1109.05 C1120.07,1129.81 1083.61,1155.97 1054,1183.64 C1045.8,1191.3 1041.5726,1195.6644 1034.4326,1204.4944 " fill="none" id="ModuleRepository-to-Module" style="stroke:#FFFFFF;stroke-width:1.0;stroke-dasharray:7.0,7.0;"/><polygon fill="#FFFFFF" points="1030.66,1209.16,1039.4293,1204.6767,1033.8038,1205.272,1033.2085,1199.6466,1030.66,1209.16" style="stroke:#FFFFFF;stroke-width:1.0;"/></g><!--link EnrollmentRepository to Enrollment--><g id="link_EnrollmentRepository_Enrollment"><path codeLine="146" d="M1559.19,1109.14 C1534.34,1165.97 1483.74,1262.41 1409,1313.69 C1301.55,1387.42 1150.1264,1403.0416 1066.3764,1405.9516 " fill="none" id="EnrollmentRepository-to-Enrollment" style="stroke:#FFFFFF;stroke-width:1.0;stroke-dasharray:7.0,7.0;"/><polygon fill="#FFFFFF" points="1060.38,1406.16,1069.5135,1409.8451,1065.377,1405.9864,1069.2357,1401.8499,1060.38,1406.16" style="stroke:#FFFFFF;stroke-width:1.0;"/></g><!--link DashboardService to Student--><g id="link_DashboardService_Student"><path codeLine="148" d="M745.87,738.71 C768.49,757.48 789.8823,775.239 814.1823,795.399 " fill="none" id="DashboardService-to-Student" style="stroke:#FFFFFF;stroke-width:1.0;stroke-dasharray:7.0,7.0;"/><polygon fill="#FFFFFF" points="818.8,799.23,814.4274,790.405,814.9519,796.0375,809.3194,796.562,818.8,799.23" style="stroke:#FFFFFF;stroke-width:1.0;"/></g><!--link DashboardService to StudyProgram--><g id="link_DashboardService_StudyProgram"><path codeLine="149" d="M668.87,738.86 C652.83,805.34 637.43,920.41 699,987.45 C732.53,1023.95 873.52,1000.25 920,1017.45 C921.07,1017.84 916.5727,1016.0227 917.6427,1016.4527 " fill="none" id="DashboardService-to-StudyProgram" style="stroke:#FFFFFF;stroke-width:1.0;stroke-dasharray:7.0,7.0;"/><polygon fill="#FFFFFF" points="923.21,1018.69,916.3506,1011.6225,918.5706,1016.8256,913.3676,1019.0455,923.21,1018.69" style="stroke:#FFFFFF;stroke-width:1.0;"/></g><!--link DashboardService to Goal--><g id="link_DashboardService_Goal"><path codeLine="150" d="M662.64,738.68 C629.93,817.24 570.6862,959.5209 543.6362,1024.4909 " fill="none" id="DashboardService-to-Goal" style="stroke:#FFFFFF;stroke-width:1.0;stroke-dasharray:7.0,7.0;"/><polygon fill="#FFFFFF" points="541.33,1030.03,548.482,1023.2588,543.2518,1025.4141,541.0965,1020.1839,541.33,1030.03" style="stroke:#FFFFFF;stroke-width:1.0;"/></g><!--link DashboardService to GoalEvaluation--><g id="link_DashboardService_GoalEvaluation"><path codeLine="151" d="M624.39,738.71 C521.83,827.51 306.14,1016.36 131,1183.64 C125.36,1189.02 123.77,1190.5148 118.03,1196.2348 " fill="none" id="DashboardService-to-GoalEvaluation" style="stroke:#FFFFFF;stroke-width:1.0;stroke-dasharray:7.0,7.0;"/><polygon fill="#FFFFFF" points="113.78,1200.47,122.9785,1196.9505,117.3217,1196.9406,117.3316,1191.2838,113.78,1200.47" style="stroke:#FFFFFF;stroke-width:1.0;"/></g><!--reverse link DashboardGUI to TargetMonitoring--><g id="link_DashboardGUI_TargetMonitoring"><path codeLine="196" d="M1493.2306,310.5985 C1500.5306,356.1085 1508.1,403.31 1513.85,439.2 " fill="none" id="DashboardGUI-backto-TargetMonitoring" style="stroke:#FFFFFF;stroke-width:1.0;"/><polygon fill="none" points="1491.33,298.75,1488.3308,305.3078,1493.2306,310.5985,1496.2298,304.0408,1491.33,298.75" style="stroke:#FFFFFF;stroke-width:1.0;"/></g><!--reverse link DashboardGUI to DataCollection--><g id="link_DashboardGUI_DataCollection"><path codeLine="197" d="M1587.3038,285.3599 C1620.7738,304.2999 1646.38,322.71 1674,351.33 C1700.84,379.14 1720.54,419.8 1731.39,445.91 " fill="none" id="DashboardGUI-backto-DataCollection" style="stroke:#FFFFFF;stroke-width:1.0;"/><polygon fill="none" points="1576.86,279.45,1580.1119,285.8862,1587.3038,285.3599,1584.0519,278.9237,1576.86,279.45" style="stroke:#FFFFFF;stroke-width:1.0;"/></g><!--link DashboardGUI to DashboardController--><g id="link_DashboardGUI_DashboardController"><path codeLine="199" d="M1385.33,284.14 C1376.09,288.94 1366.87,293.73 1358,298.33 C1332.24,311.7 1322.88,310.47 1300,328.33 C1275.88,347.16 1256.6621,366.5194 1236.9421,389.3494 " fill="none" id="DashboardGUI-to-DashboardController" style="stroke:#FFFFFF;stroke-width:1.0;stroke-dasharray:7.0,7.0;"/><polygon fill="#FFFFFF" points="1233.02,393.89,1241.9302,389.6938,1236.2884,390.1061,1235.876,384.4643,1233.02,393.89" style="stroke:#FFFFFF;stroke-width:1.0;"/><text fill="#141414" font-family="Verdana" font-size="11" lengthAdjust="spacing" textLength="25" x="1301" y="340.3891">calls</text></g><!--link DashboardGUI to DashboardController--><g id="link_DashboardGUI_DashboardController"><path codeLine="219" d="M1397.52,298.75 C1359.43,328.16 1318.7794,359.5435 1278.8694,390.3535 " fill="none" id="DashboardGUI-to-DashboardController-1" style="stroke:#FFFFFF;stroke-width:1.0;stroke-dasharray:7.0,7.0;"/><polygon fill="#FFFFFF" points="1274.12,394.02,1283.6884,391.6865,1278.0778,390.9646,1278.7998,385.354,1274.12,394.02" style="stroke:#FFFFFF;stroke-width:1.0;"/><text fill="#141414" font-family="Verdana" font-size="11" lengthAdjust="spacing" textLength="64" x="1356" y="340.3891">shutdown()</text></g><!--link Main to Database--><g id="link_Main_Database"><path codeLine="205" d="M1174.02,40.26 C1309.4,40.03 1709.43,46.2 1807,125.28 C1846.1,156.97 1844,181.97 1844,232.3 C1844,232.3 1844,232.3 1844,1064.04 C1844,1158.49 1544.754,1214.5723 1398.424,1236.4623 " fill="none" id="Main-to-Database" style="stroke:#FFFFFF;stroke-width:1.0;stroke-dasharray:7.0,7.0;"/><polygon fill="#FFFFFF" points="1392.49,1237.35,1401.9827,1239.9745,1397.435,1236.6103,1400.7992,1232.0625,1392.49,1237.35" style="stroke:#FFFFFF;stroke-width:1.0;"/><text fill="#141414" font-family="Verdana" font-size="11" lengthAdjust="spacing" textLength="42" x="1845" y="690.9291">creates</text></g><!--link Main to StudentRepository--><g id="link_Main_StudentRepository"><path codeLine="206" d="M1107.45,72.47 C1074.23,123.68 1011.95,228.73 989,328.33 C964.4,435.11 971.75,470.21 1006,574.29 C1012.84,595.08 1021.0935,610.8867 1032.8635,628.7867 " fill="none" id="Main-to-StudentRepository" style="stroke:#FFFFFF;stroke-width:1.0;stroke-dasharray:7.0,7.0;"/><polygon fill="#FFFFFF" points="1036.16,633.8,1034.5575,624.0824,1033.4129,629.6222,1027.8731,628.4777,1036.16,633.8" style="stroke:#FFFFFF;stroke-width:1.0;"/><text fill="#141414" font-family="Verdana" font-size="11" lengthAdjust="spacing" textLength="150" x="990" y="340.3891">creates (injects Database)</text></g><!--link Main to DashboardService--><g id="link_Main_DashboardService"><path codeLine="207" d="M1083.82,60.51 C1054.37,75.16 1016.62,97.37 990,125.28 C839.7,282.8 741.8836,522.8487 703.5936,628.5487 " fill="none" id="Main-to-DashboardService" style="stroke:#FFFFFF;stroke-width:1.0;stroke-dasharray:7.0,7.0;"/><polygon fill="#FFFFFF" points="701.55,634.19,708.3762,627.0905,703.253,629.4889,700.8545,624.3657,701.55,634.19" style="stroke:#FFFFFF;stroke-width:1.0;"/><text fill="#141414" font-family="Verdana" font-size="11" lengthAdjust="spacing" textLength="42" x="841.85" y="340.3891">creates</text></g><!--link Main to DashboardController--><g id="link_Main_DashboardController"><path codeLine="208" d="M1129.91,72.47 C1131.55,121.23 1135.72,217.28 1145,298.33 C1148.6,329.79 1153.0374,358.3295 1158.2474,388.1495 " fill="none" id="Main-to-DashboardController" style="stroke:#FFFFFF;stroke-width:1.0;stroke-dasharray:7.0,7.0;"/><polygon fill="#FFFFFF" points="1159.28,394.06,1161.6713,384.5059,1158.4195,389.1346,1153.7907,385.8827,1159.28,394.06" style="stroke:#FFFFFF;stroke-width:1.0;"/><text fill="#141414" font-family="Verdana" font-size="11" lengthAdjust="spacing" textLength="219" x="1146" y="237.8591">creates (injects Service+Repositories)</text></g><!--link Main to DashboardGUI--><g id="link_Main_DashboardGUI"><path codeLine="209" d="M1174.18,52.08 C1221.98,65.37 1298.57,90.05 1358,125.28 C1378.09,137.18 1393.4582,148.6093 1411.2282,163.9493 " fill="none" id="Main-to-DashboardGUI" style="stroke:#FFFFFF;stroke-width:1.0;stroke-dasharray:7.0,7.0;"/><polygon fill="#FFFFFF" points="1415.77,167.87,1411.5711,158.9611,1411.9852,164.6027,1406.3435,165.0168,1415.77,167.87" style="stroke:#FFFFFF;stroke-width:1.0;"/><text fill="#141414" font-family="Verdana" font-size="11" lengthAdjust="spacing" textLength="153" x="1341.78" y="114.3391">creates (injects Controller)</text></g><!--link DashboardController to DashboardService--><g id="link_DashboardController_DashboardService"><path codeLine="211" d="M1021.31,539.39 C950.95,569.84 874.2065,603.057 808.5365,631.477 " fill="none" id="DashboardController-to-DashboardService" style="stroke:#FFFFFF;stroke-width:1.0;"/><polygon fill="#FFFFFF" points="803.03,633.86,812.8784,633.9564,807.6187,631.8741,809.701,626.6145,803.03,633.86" style="stroke:#FFFFFF;stroke-width:1.0;"/></g><!--link DashboardController to StudentRepository--><g id="link_DashboardController_StudentRepository"><path codeLine="212" d="M1138.2,550.77 C1125.41,578.45 1113.837,603.5035 1102.307,628.4535 " fill="none" id="DashboardController-to-StudentRepository" style="stroke:#FFFFFF;stroke-width:1.0;"/><polygon fill="#FFFFFF" points="1099.79,633.9,1107.1965,627.4082,1101.8875,629.3612,1099.9344,624.0522,1099.79,633.9" style="stroke:#FFFFFF;stroke-width:1.0;"/></g><!--link DashboardController to ModuleRepository--><g id="link_DashboardController_ModuleRepository"><path codeLine="213" d="M1189.76,550.53 C1192.13,564.07 1194.34,578.06 1196,591.29 C1215.56,746.92 1223.0136,927.1329 1225.6236,1011.0929 " fill="none" id="DashboardController-to-ModuleRepository" style="stroke:#FFFFFF;stroke-width:1.0;"/><polygon fill="#FFFFFF" points="1225.81,1017.09,1229.5284,1007.9701,1225.6546,1012.0924,1221.5323,1008.2186,1225.81,1017.09" style="stroke:#FFFFFF;stroke-width:1.0;"/></g><!--link DashboardController to EnrollmentRepository--><g id="link_DashboardController_EnrollmentRepository"><path codeLine="214" d="M1226.89,550.58 C1312.31,675.37 1474.5607,912.3989 1542.9407,1012.2889 " fill="none" id="DashboardController-to-EnrollmentRepository" style="stroke:#FFFFFF;stroke-width:1.0;"/><polygon fill="#FFFFFF" points="1546.33,1017.24,1544.5468,1007.5539,1543.5056,1013.1141,1537.9454,1012.0729,1546.33,1017.24" style="stroke:#FFFFFF;stroke-width:1.0;"/></g><!--SRC=[fLXPR-Cs47xNh-3wPPDDx3tw9gG1ShX1KEU0azsWA0g1bhWE6vbKIIg1Dyr_x_3GGOcolQWV4eiSpl7DpCUHtwFnU8pkr3edw2EQuJKlbLwAtcNaEsK4dP_CVp-TVPr6xoXByp8ZI6hXIP5ZfifL7ZrIM4kfI7CIoIVA2Ypm2gKvbl94AK4NfIANAMTtz0T1dwBelLOV_i3UAUTAAe6BWhBbHbbZ0LrXoj3HaNVi-FWrGkXW1Ljx-p6wven4RzhmhqCVsBkwEP_EDieKE7t2Iu96LpmZ-GYzHc35U8ZEkJPcS4D8yILHZqGWxGMoI03201rJRWsXiRGB2SrYG5HKomolYBSW5HOgoR22PVqtSXi7O2J1pqI0IybIu8peMB_d7AksXA8haXI2BmMHCYc8IC4e7DdBIe4LvInPSQOUPOmeKo45QH4yhhZ2UK9IDNoIOC58PcIqQo3LrKk4jUvx_XQrS9iomVDyvK5delKDZZKqIG4dIEPmwgc2j9LGvRMQbNdk9a1HbViPg8FigzHPNTzgUA3aQyM5NTYQsWw6TIY1p3ZJpdnLJAFF8wWvDFeqcNmOjQ024HVi9f6k5lZdnQDzBJDAf9EjD-e3HgUp52FeSGLT8BM7X9KhE8HLAHqk5_FfzDfy-sCwczqycA_pwNaLamNqWkDy-eppqY3WZkeU04MnKsZNj91N16De52WiRya8VGb8-MivNf3ySvCRk_2bMZ3-uONcbrIr77Nk7H3hCDbpFHrNq1uYLmgn1o1Kkn-dKVDQMNYhEXSAKNT6oubUoam6Z2ynUiGQ6lCmcHptJTGx3iO6TDrF9vPAMd4vg81abcsqmiuvzKV_WbjTVOsbSuAp76wLjfN1SjzkgAskCN9MtE8q54YRSdukeaPbm_cdfGJJO6_6bpHrtE_2nF9nmR78xeXufcd5EGSfpjCEPtTBncD2Uy2Zy9-eiQwU5fF_Jos0nHR7gvP8be3PpkOEaH6txV7dXxzwZG9hLIlO9DmI8QbKX078VWOKNc19wY9RWDSwwtMB0rinUFmdfuhyCZc39o3YgXSFKljSZmzcaJ8AD_72NqnpBabhgKLcBjWvARYaYejruqrSUsYru2mB8TgOqIMwMCELijSP7FPhUIjO5bc8YdRrsRBvhYxRApHsfmOSzk_P_Kfwo1M4elxbluj3PI69K5ry3f5l7sgiDJuSejxWu4MHGt7fC9pI0FYDZxOuX-3j5yDuVDoEe8TyPpy8XYSJj689logGdX6zNUSZQ49BjEO64ElHcszZSBjgyo4PmwyRzbgtsTPn_kpc-dv-CvjDvxlDz400IiT8nCXKM8V8c-rw9h7EnJrt8s-y5m1at4zBr9v0hKmtDLQ4rCWxiL2E8bUi76U99YaAOoMKClQPIiBDqota0NxWgmBUsXB-h4CYBu6ox_EoC_9Ogeo_CA_yjsRhs-NqORSyVGDtWXcw-7fPfMQ5uKOGCL9Fa_kdckrT_k9GKgqGuueiE7-2at3qsZrL8yIYXiFk_mQLJ9fDW4UispiEIa4qmRpG30XH-Wc1cUU5Ca0hsK38zsPskU9CPnfURgjPGX2M4U4hjDpVf4tNG21LGJkQHSuq66bhykvRUVC8G8FEuHhkEXcIyGtqrEWc3xKRl5VWF9TRQaWNqGCr-7o4iR3GRhDqZIxPtowWFVrBmVvc7UR71Ek86n_0kacWRFRw55iBeJrgx3NpntvRPuVM0he70EXgTneEQX_W9IraIUCQEDuetu-Ya4bxgtHeRKYmpsr3aZs66n8CSzoMzDyvve42EDFjXCvFDn_PiVmQHel-0m00]--></g></svg>